<svg width="76" height="92" viewBox="0 0 76 92" fill="none" xmlns="http://www.w3.org/2000/svg">
<g filter="url(#filter0_d_8_18712)">
<path d="M47.7111 25.0321L47.7069 25.0233L47.7025 25.0146C46.9927 23.595 46.0628 22.433 44.8806 21.6056C43.548 20.673 41.9918 20.2335 40.2809 20.2335C38.7179 20.2335 37.2345 20.6752 35.853 21.5162L35.8402 21.5239L35.8276 21.532C34.4826 22.3879 33.4544 23.5361 32.773 24.9596C32.7726 24.9605 32.7721 24.9614 32.7717 24.9623L12.2586 67.4319C11.394 69.1626 10.8129 70.7281 10.8129 71.9695C10.8129 74.0076 12.0529 75.6454 13.8724 76.9188C14.5129 77.367 15.2448 77.786 16.0593 78.1797C17.8184 79.0584 19.4213 79.6255 20.7489 79.6255C21.9793 79.6255 23.1388 79.3481 24.0809 78.6415L24.0882 78.636L24.0955 78.6304C24.8116 78.0795 25.4321 77.4689 25.8283 76.7822C26.1808 76.2452 26.6096 75.4581 27.1065 74.4643L27.1115 74.4543L27.1164 74.4442L30.6595 67.0855H49.8263L53.3694 74.4442L53.3743 74.4543L53.3793 74.4643L54.0443 75.7943L54.5193 76.7443L54.545 76.7958L54.5747 76.8452C55.0026 77.5584 55.6081 78.1769 56.3289 78.7175L56.3517 78.7345L56.3751 78.7508C57.3316 79.413 58.4558 79.7015 59.6609 79.7015C61.034 79.7015 62.66 79.139 64.4357 78.2511C67.4645 76.7367 69.6729 74.7128 69.6729 71.9695C69.6729 70.728 69.0917 69.1624 68.227 67.4315L47.7111 25.0321ZM42.8936 52.8375H37.5765L40.215 47.3605L42.8936 52.8375Z" fill="#2B0057" stroke="white" stroke-width="3"/>
<path d="M27.8568 21.5208C27.5403 22.1825 27.7488 22.976 28.3496 23.3967L33.2645 26.8382C33.6256 27.091 34.0797 27.1722 34.506 27.0602C34.9324 26.9482 35.2879 26.6543 35.4781 26.2566C35.9114 25.3506 36.5548 24.6251 37.4382 24.0629C37.861 23.7939 38.1215 23.3315 38.1325 22.8305C38.1436 22.3296 37.9038 21.8561 37.4933 21.5687L32.5784 18.1273C32.0816 17.7794 31.4243 17.7649 30.9127 18.0905C29.5668 18.947 28.5382 20.0961 27.8568 21.5208Z" fill="#2B0057" stroke="white" stroke-width="3" stroke-linejoin="round"/>
<path d="M30.9381 18.0747C30.5055 18.338 30.235 18.8018 30.2188 19.3079C30.2025 19.8141 30.4428 20.2943 30.8576 20.5847L35.7725 24.0262C36.2604 24.3678 36.9041 24.3884 37.4128 24.0787C38.3619 23.501 39.3105 23.2335 40.2809 23.2335C40.9356 23.2335 41.5146 22.8089 41.7115 22.1845C41.9083 21.5601 41.6775 20.8802 41.1413 20.5047L36.2264 17.0633C35.9742 16.8867 35.6738 16.792 35.366 16.792C33.803 16.792 32.3196 17.2338 30.9381 18.0747Z" fill="#2B0057" stroke="white" stroke-width="3" stroke-linejoin="round"/>
<path d="M7.33928 63.9996C7.01931 64.6621 7.22698 65.4588 7.82961 65.8807L12.7445 69.3222C13.1048 69.5745 13.5576 69.6559 13.9832 69.545C14.4088 69.434 14.7643 69.1419 14.9556 68.7459L35.4756 26.2619C35.7955 25.5994 35.5879 24.8027 34.9852 24.3807L30.0703 20.9393C29.7101 20.687 29.2572 20.6056 28.8316 20.7165C28.406 20.8274 28.0506 21.1196 27.8593 21.5156L7.33928 63.9996Z" fill="#2B0057" stroke="white" stroke-width="3" stroke-linejoin="round"/>
<path d="M35.366 16.792C34.7113 16.792 34.1323 17.2166 33.9354 17.8409C33.7386 18.4653 33.9694 19.1452 34.5056 19.5207L39.4205 22.9622C39.6727 23.1387 39.9731 23.2335 40.2809 23.2335C41.4582 23.2335 42.395 23.5279 43.1602 24.0633C43.1603 24.0634 43.1604 24.0634 43.1605 24.0635C43.8392 24.5385 44.7744 24.3734 45.2494 23.6948C45.7244 23.0162 45.5595 22.081 44.8809 21.6058L44.8806 21.6056L39.966 18.1644L39.9657 18.1642C38.6331 17.2316 37.0769 16.792 35.366 16.792Z" fill="#2B0057" stroke="white" stroke-width="3" stroke-linejoin="round"/>
<path d="M5.89798 68.528C5.89798 69.0174 6.13672 69.476 6.53762 69.7567L11.4525 73.1982C11.9107 73.519 12.5094 73.5583 13.0055 73.3C13.5017 73.0417 13.8129 72.5288 13.8129 71.9695C13.8129 71.4904 14.0911 70.4752 14.9465 68.7643C15.279 68.0993 15.0743 67.2912 14.4653 66.8647L9.55034 63.4233C9.19301 63.1731 8.74444 63.0908 8.32158 63.198C7.89871 63.3051 7.54343 63.591 7.34834 63.9812C6.48113 65.7156 5.89798 67.2844 5.89798 68.528Z" fill="#2B0057" stroke="white" stroke-width="3" stroke-linejoin="round"/>
<path d="M38.2456 20.622L38.2456 20.622L38.2473 20.6233C38.2474 20.6234 38.2475 20.6234 38.2476 20.6235C38.9411 21.1094 39.5707 21.8476 40.1043 22.9148C40.2159 23.1379 40.3813 23.3296 40.5856 23.4727L45.5005 26.9142C46.0629 27.308 46.8208 27.2697 47.3407 26.8212C47.8605 26.3728 48.0095 25.6287 47.7025 25.0146C46.9927 23.5951 46.0629 22.4332 44.8809 21.6058C44.8808 21.6058 44.8807 21.6057 44.8806 21.6056L39.9687 18.1663L39.9684 18.166C39.9684 18.166 39.9684 18.166 39.9684 18.166L39.9657 18.1642L39.9657 18.1642C39.2874 17.6914 38.354 17.8567 37.8794 18.5343C37.4046 19.2122 37.5686 20.1464 38.2456 20.622Z" fill="#2B0057" stroke="white" stroke-width="3" stroke-linejoin="round"/>
<path d="M13.8675 76.9153L13.8678 76.9156C13.8679 76.9156 13.8679 76.9156 13.8679 76.9156L13.8724 76.9188L13.8724 76.9187C14.5506 77.3899 15.4827 77.2243 15.9568 76.5473C16.4312 75.8701 16.2679 74.937 15.5926 74.4609L15.5926 74.4609L15.589 74.4584C15.5889 74.4584 15.5889 74.4583 15.5889 74.4583C15.5888 74.4582 15.5887 74.4582 15.5886 74.4581C15.5885 74.4581 15.5884 74.458 15.5884 74.4579C14.1852 73.4748 13.8129 72.6335 13.8129 71.9694C13.8129 71.48 13.5741 71.0214 13.1733 70.7407L8.25834 67.2993C7.80015 66.9784 7.20151 66.9392 6.70536 67.1975C6.20921 67.4557 5.89798 67.9686 5.89798 68.528C5.89798 70.566 7.13784 72.2037 8.95721 73.4771C8.95731 73.4772 8.95741 73.4772 8.95752 73.4773L13.866 76.9143C13.8665 76.9146 13.867 76.915 13.8675 76.9153C13.8675 76.9153 13.8675 76.9153 13.8675 76.9153Z" fill="#2B0057" stroke="white" stroke-width="3" stroke-linejoin="round"/>
<path d="M12.6664 72.1633C12.6003 72.117 12.5307 72.0762 12.4581 72.0412C11.7536 71.7011 11.1633 71.3593 10.678 71.0197C10.6779 71.0196 10.6778 71.0195 10.6777 71.0194C9.99899 70.5445 9.0638 70.7096 8.58876 71.3882C8.11372 72.0668 8.27868 73.002 8.95723 73.4771L8.95754 73.4773L13.8721 76.9186L13.8724 76.9188C14.5154 77.3687 15.2505 77.7893 16.0688 78.1843C16.7727 78.5241 17.6195 78.2664 18.0149 77.5922C18.4102 76.9179 18.2215 76.0531 17.5813 75.6047L12.6664 72.1633Z" fill="#2B0057" stroke="white" stroke-width="3" stroke-linejoin="round"/>
<path d="M36.1503 39.2553C35.7898 39.0029 35.3367 38.9215 34.9109 39.0327C34.4851 39.1439 34.1296 39.4365 33.9386 39.833L28.9226 50.245C28.6036 50.9072 28.8114 51.7031 29.4136 52.1247L34.3285 55.5662C34.689 55.8186 35.1422 55.9 35.568 55.7888C35.9938 55.6776 36.3492 55.385 36.5402 54.9885L41.5562 44.5765C41.8753 43.9142 41.6674 43.1184 41.0652 42.6967L36.1503 39.2553Z" fill="#2B0057" stroke="white" stroke-width="3" stroke-linejoin="round"/>
<path d="M16.6944 73.4553C16.4422 73.2787 16.1418 73.184 15.834 73.184C15.2386 73.184 14.1595 72.8917 12.4768 72.0504C11.7741 71.699 10.9194 71.9494 10.5173 72.6243C10.1153 73.2993 10.3021 74.1701 10.9456 74.6207L15.8605 78.0622C15.9209 78.1044 15.9842 78.1422 16.0501 78.1751C17.8128 79.0564 19.4189 79.6255 20.7489 79.6255C21.4036 79.6255 21.9826 79.2009 22.1795 78.5765C22.3763 77.9521 22.1455 77.2722 21.6093 76.8967L16.6944 73.4553Z" fill="#2B0057" stroke="white" stroke-width="3" stroke-linejoin="round"/>
<path d="M19.1263 72.7713C18.595 72.3993 17.8848 72.4108 17.366 72.8C17.0921 73.0054 16.6302 73.184 15.834 73.184C15.1793 73.184 14.6002 73.6086 14.4034 74.2329C14.2065 74.8573 14.4373 75.5372 14.9736 75.9127L19.8885 79.3542C20.1407 79.5307 20.441 79.6255 20.7489 79.6255C21.9793 79.6255 23.1387 79.3481 24.0809 78.6415C24.4655 78.353 24.6885 77.8977 24.6807 77.417C24.6728 76.9363 24.435 76.4885 24.0412 76.2127L19.1263 72.7713Z" fill="#2B0057" stroke="white" stroke-width="3" stroke-linejoin="round"/>
<path d="M25.6624 60.9153C25.3018 60.6628 24.8486 60.5814 24.4228 60.6927C23.9969 60.804 23.6414 61.0967 23.4505 61.4933L19.4985 69.7013C19.1797 70.3635 19.3876 71.1592 19.9896 71.5807L24.9046 75.0222C25.2651 75.2746 25.7183 75.356 26.1442 75.2447C26.57 75.1334 26.9255 74.8407 27.1164 74.4442L31.0684 66.2362C31.3873 65.574 31.1793 64.7783 30.5773 64.3567L25.6624 60.9153Z" fill="#2B0057" stroke="white" stroke-width="3" stroke-linejoin="round"/>
<path d="M39.0345 51.555C39.1461 51.7831 39.3137 51.9791 39.5216 52.1247L44.4366 55.5662C44.9969 55.9586 45.7518 55.9221 46.2717 55.4776C46.7916 55.033 46.9449 54.293 46.6444 53.6785L41.5524 43.2665C41.4409 43.0384 41.2733 42.8424 41.0653 42.6967L36.1504 39.2553C35.59 38.8629 34.8352 38.8994 34.3152 39.3439C33.7953 39.7885 33.642 40.5285 33.9425 41.143L39.0345 51.555Z" fill="#2B0057" stroke="white" stroke-width="3" stroke-linejoin="round"/>
<path d="M20.4943 71.3273C20.1463 71.0836 19.7113 70.9989 19.2972 71.0943C18.8832 71.1897 18.5291 71.4561 18.3227 71.8275C18.2103 72.0299 17.9331 72.3636 17.3514 72.8111C16.9729 73.1022 16.7556 73.5562 16.7663 74.0336C16.777 74.511 17.0144 74.9548 17.4056 75.2287L22.3205 78.6702C22.8573 79.0461 23.576 79.03 24.0954 78.6304C24.8311 78.0645 25.4658 77.4356 25.8601 76.7259C26.2332 76.0543 26.0386 75.2094 25.4092 74.7687L20.4943 71.3273Z" fill="#2B0057" stroke="white" stroke-width="3" stroke-linejoin="round"/>
<path d="M21.7104 69.1233C21.353 68.8731 20.9045 68.7908 20.4816 68.8979C20.0587 69.0051 19.7034 69.291 19.5084 69.6812C19.0067 70.6844 18.6355 71.3495 18.3859 71.7239C17.9338 72.4021 18.106 73.3172 18.7736 73.7847L23.6886 77.2262C24.0193 77.4578 24.4294 77.5462 24.8263 77.4716C25.2231 77.3969 25.573 77.1655 25.797 76.8295C26.1554 76.2919 26.5949 75.4877 27.1066 74.4643C27.439 73.7993 27.2343 72.9911 26.6253 72.5647L21.7104 69.1233Z" fill="#2B0057" stroke="white" stroke-width="3" stroke-linejoin="round"/>
<path d="M30.274 49.396C29.6193 49.396 29.0402 49.8206 28.8434 50.4449C28.6465 51.0693 28.8773 51.7492 29.4136 52.1247L34.3285 55.5662C34.5807 55.7427 34.881 55.8375 35.1889 55.8375H45.2969C45.9515 55.8375 46.5306 55.4129 46.7274 54.7885C46.9243 54.1641 46.6935 53.4842 46.1572 53.1087L41.2423 49.6673C40.9902 49.4907 40.6898 49.396 40.382 49.396H30.274Z" fill="#2B0057" stroke="white" stroke-width="3" stroke-linejoin="round"/>
<path d="M46.7143 60.9153C46.4622 60.7387 46.1618 60.644 45.854 60.644H24.802C24.1473 60.644 23.5683 61.0686 23.3714 61.6929C23.1745 62.3173 23.4053 62.9972 23.9416 63.3727L28.8565 66.8142C29.1087 66.9907 29.4091 67.0854 29.7169 67.0854H50.7689C51.4236 67.0854 52.0026 66.6609 52.1995 66.0365C52.3963 65.4121 52.1655 64.7322 51.6292 64.3567L46.7143 60.9153Z" fill="#2B0057" stroke="white" stroke-width="3" stroke-linejoin="round"/>
<path d="M42.3063 21.0153C41.7469 20.6236 40.9935 20.6592 40.4736 21.1019C39.9536 21.5446 39.7983 22.2826 40.0957 22.8973L60.6157 65.3053C60.7272 65.5358 60.8959 65.7339 61.1056 65.8807L66.0205 69.3222C66.5799 69.7139 67.3333 69.6783 67.8533 69.2356C68.3732 68.7929 68.5286 68.0548 68.2311 67.4401L47.7111 25.0321C47.5996 24.8016 47.4309 24.6036 47.2212 24.4567L42.3063 21.0153Z" fill="#2B0057" stroke="white" stroke-width="3" stroke-linejoin="round"/>
<path d="M48.4545 71.0027C48.566 71.2343 48.7351 71.4333 48.9456 71.5807L53.8605 75.0222C54.4195 75.4136 55.1722 75.3784 55.6922 74.9365C56.2122 74.4947 56.3684 73.7575 56.0724 73.1427L52.1204 64.9347C52.0089 64.7032 51.8398 64.5041 51.6293 64.3567L46.7143 60.9153C46.1554 60.5239 45.4027 60.5591 44.8827 61.0009C44.3627 61.4428 44.2065 62.1799 44.5025 62.7947L48.4545 71.0027Z" fill="#2B0057" stroke="white" stroke-width="3" stroke-linejoin="round"/>
<path d="M49.6044 73.3028C49.7159 73.5259 49.8813 73.7177 50.0856 73.8607L55.0005 77.3022C55.5629 77.696 56.3209 77.6577 56.8407 77.2092C57.3605 76.7608 57.5096 76.0167 57.2026 75.4026L56.0626 73.1226C55.951 72.8995 55.7856 72.7078 55.5813 72.5647L50.6664 69.1233C50.104 68.7295 49.3461 68.7678 48.8262 69.2162C48.3064 69.6646 48.1573 70.4088 48.4644 71.0228L49.6044 73.3028Z" fill="#2B0057" stroke="white" stroke-width="3" stroke-linejoin="round"/>
<path d="M51.414 75.276C51.427 75.2858 51.4402 75.2954 51.4536 75.3047L56.3685 78.7462C57.0393 79.2159 57.9628 79.0608 58.4434 78.3977C58.924 77.7347 58.784 76.8088 58.1289 76.3174C57.6336 75.946 57.3272 75.6018 57.1471 75.3017C57.0388 75.1212 56.8937 74.9655 56.7212 74.8447L51.8063 71.4033C51.2263 70.9971 50.4413 71.0519 49.9233 71.5346C49.4053 72.0174 49.2954 72.7966 49.6597 73.4037C50.0877 74.117 50.6932 74.7354 51.414 75.276Z" fill="#2B0057" stroke="white" stroke-width="3" stroke-linejoin="round"/>
<path d="M55.6064 73.5313C55.3542 73.3547 55.0538 73.26 54.746 73.26C54.0258 73.26 53.5286 73.0925 53.1678 72.8427C52.488 72.372 51.5555 72.5403 51.083 73.2189C50.6105 73.8975 50.7763 74.8304 51.4536 75.3047L56.3685 78.7462L56.3685 78.7462L56.3751 78.7507C57.3316 79.413 58.4558 79.7014 59.6609 79.7014C60.3156 79.7014 60.8946 79.2769 61.0915 78.6525C61.2883 78.0281 61.0575 77.3482 60.5213 76.9727L55.6064 73.5313Z" fill="#2B0057" stroke="white" stroke-width="3" stroke-linejoin="round"/>
<path d="M59.7104 72.2393C59.2594 71.9235 58.6716 71.8801 58.1792 72.1263C56.5096 72.9611 55.3995 73.26 54.746 73.26C54.0913 73.26 53.5123 73.6846 53.3154 74.3089C53.1186 74.9333 53.3494 75.6132 53.8856 75.9887L58.8005 79.4302C59.0527 79.6067 59.3531 79.7014 59.6609 79.7014C61.0341 79.7014 62.66 79.139 64.4357 78.2511C64.9085 78.0147 65.222 77.5469 65.2609 77.0198C65.2997 76.4926 65.0583 75.9839 64.6253 75.6807L59.7104 72.2393Z" fill="#2B0057" stroke="white" stroke-width="3" stroke-linejoin="round"/>
<path d="M62.8263 63.4233C62.264 63.0295 61.506 63.0678 60.9862 63.5162C60.4663 63.9647 60.3173 64.7088 60.6243 65.3228C61.4798 67.0337 61.758 68.0489 61.758 68.528C61.758 69.0174 61.9967 69.476 62.3976 69.7567L67.3125 73.1982C67.7707 73.519 68.3694 73.5583 68.8655 73.3C69.3617 73.0417 69.6729 72.5288 69.6729 71.9695C69.6729 70.7259 69.0897 69.1571 68.2225 67.4226C68.111 67.1996 67.9456 67.0078 67.7412 66.8647L62.8263 63.4233Z" fill="#2B0057" stroke="white" stroke-width="3" stroke-linejoin="round"/>
<path d="M64.1184 67.2993C63.6602 66.9784 63.0615 66.9392 62.5654 67.1975C62.0692 67.4557 61.758 67.9686 61.758 68.528C61.758 69.4326 61.0277 70.7021 58.1792 72.1263C57.7064 72.3627 57.3929 72.8305 57.3541 73.3577C57.3152 73.8848 57.5566 74.3935 57.9896 74.6967L62.9046 78.1382C63.3555 78.454 63.9433 78.4973 64.4357 78.2511C67.4645 76.7367 69.6729 74.7128 69.6729 71.9694C69.6729 71.48 69.4342 71.0214 69.0333 70.7407L64.1184 67.2993Z" fill="#2B0057" stroke="white" stroke-width="3" stroke-linejoin="round"/>
<path d="M41.446 22.244L61.966 64.652C62.8273 66.3747 63.258 67.6667 63.258 68.528C63.258 70.352 61.7886 71.9987 58.85 73.468C57.1273 74.3293 55.7593 74.76 54.746 74.76C53.7833 74.76 52.9726 74.532 52.314 74.076C51.706 73.62 51.25 73.1387 50.946 72.632C50.6926 72.1253 50.3126 71.3653 49.806 70.352L45.854 62.144H24.802L20.85 70.352C20.3433 71.3653 19.938 72.1 19.634 72.556C19.3806 73.012 18.9246 73.4933 18.266 74C17.658 74.456 16.8473 74.684 15.834 74.684C14.8713 74.684 13.5286 74.2533 11.806 73.392C8.8673 71.9733 7.39797 70.352 7.39797 68.528C7.39797 67.6667 7.82863 66.3747 8.68997 64.652L29.21 22.168C29.7673 21.0027 30.6033 20.0653 31.718 19.356C32.8833 18.6467 34.0993 18.292 35.366 18.292C38.102 18.292 40.1286 19.6093 41.446 22.244ZM35.29 40.484L30.274 50.896H40.382L35.29 40.484Z" fill="#2B0057"/>
<path d="M41.446 22.244L44.1464 20.9373L44.138 20.9198L44.1292 20.9024L41.446 22.244ZM61.966 64.652L59.2655 65.9587L59.274 65.9762L59.2827 65.9936L61.966 64.652ZM58.85 73.468L57.5083 70.7847L57.5083 70.7847L58.85 73.468ZM52.314 74.076L50.514 76.476L50.5595 76.5102L50.6063 76.5426L52.314 74.076ZM50.946 72.632L48.2627 73.9736L48.3142 74.0767L48.3735 74.1755L50.946 72.632ZM49.806 70.352L47.103 71.6534L47.1127 71.6736L47.1227 71.6936L49.806 70.352ZM45.854 62.144L48.557 60.8426L47.7392 59.144H45.854V62.144ZM24.802 62.144V59.144H22.9168L22.099 60.8426L24.802 62.144ZM20.85 70.352L23.5332 71.6936L23.5433 71.6736L23.553 71.6534L20.85 70.352ZM19.634 72.556L17.1378 70.8919L17.0705 70.9929L17.0115 71.0991L19.634 72.556ZM18.266 74L20.066 76.4L20.0806 76.389L20.0951 76.3779L18.266 74ZM11.806 73.392L13.1476 70.7087L13.129 70.6994L13.1102 70.6903L11.806 73.392ZM8.68997 64.652L11.3732 65.9936L11.3824 65.9753L11.3914 65.9568L8.68997 64.652ZM29.21 22.168L31.9114 23.4728L31.9164 23.4624L29.21 22.168ZM31.718 19.356L30.1581 16.7934L30.1326 16.809L30.1073 16.825L31.718 19.356ZM35.29 40.484L37.9849 39.166L35.2697 33.6139L32.5872 39.182L35.29 40.484ZM30.274 50.896L27.5712 49.594L25.4987 53.896H30.274V50.896ZM40.382 50.896V53.896H45.1887L43.0769 49.578L40.382 50.896ZM38.7455 23.5507L59.2655 65.9587L64.6664 63.3453L44.1464 20.9373L38.7455 23.5507ZM59.2827 65.9936C59.6736 66.7755 59.9326 67.3928 60.0889 67.8617C60.2543 68.3579 60.258 68.5511 60.258 68.528H66.258C66.258 66.9022 65.5223 65.0565 64.6492 63.3104L59.2827 65.9936ZM60.258 68.528C60.258 68.5557 60.2698 68.7389 59.9175 69.1336C59.5276 69.5706 58.7884 70.1447 57.5083 70.7847L60.1916 76.1513C63.3106 74.5918 66.258 72.1907 66.258 68.528H60.258ZM57.5083 70.7847C55.8918 71.593 55.0397 71.76 54.746 71.76V77.76C56.4789 77.76 58.3628 77.0657 60.1916 76.1513L57.5083 70.7847ZM54.746 71.76C54.2682 71.76 54.0845 71.653 54.0216 71.6094L50.6063 76.5426C51.8607 77.411 53.2984 77.76 54.746 77.76V71.76ZM54.114 71.676C53.7315 71.3891 53.5746 71.1821 53.5184 71.0885L48.3735 74.1755C48.9254 75.0953 49.6804 75.8509 50.514 76.476L54.114 71.676ZM53.6292 71.2904C53.5643 71.1604 53.6462 71.3243 53.5803 71.1924C53.5634 71.1587 53.5908 71.2134 53.5739 71.1797C53.5697 71.1712 53.575 71.1819 53.5707 71.1734C53.5702 71.1723 53.5697 71.1712 53.5692 71.1702C53.5686 71.1691 53.5681 71.168 53.5676 71.167C53.567 71.1659 53.5665 71.1648 53.566 71.1638C53.5654 71.1627 53.5649 71.1616 53.5643 71.1606C53.5638 71.1595 53.5633 71.1584 53.5627 71.1573C53.5622 71.1563 53.5617 71.1552 53.5611 71.1541C53.5606 71.153 53.5601 71.152 53.5595 71.1509C53.559 71.1498 53.5584 71.1487 53.5579 71.1477C53.5574 71.1466 53.5568 71.1455 53.5563 71.1444C53.5557 71.1433 53.5552 71.1423 53.5547 71.1412C53.5202 71.0723 53.563 71.1579 53.5283 71.0885C53.4557 70.9433 53.5741 71.18 53.5012 71.0343C53.4271 70.8861 53.5477 71.1273 53.4734 70.9786C53.4728 70.9775 53.4722 70.9763 53.4716 70.9751C53.471 70.9739 53.4704 70.9728 53.4699 70.9716C53.4463 70.9244 53.4899 71.0117 53.4663 70.9645C53.4657 70.9633 53.4651 70.9621 53.4645 70.9609C53.4639 70.9598 53.4634 70.9586 53.4628 70.9574C53.4622 70.9562 53.4616 70.955 53.461 70.9538C53.4604 70.9526 53.4598 70.9514 53.4592 70.9503C53.4497 70.9312 53.4652 70.9622 53.4556 70.9431C53.455 70.9419 53.4544 70.9407 53.4538 70.9395C53.4532 70.9383 53.4526 70.9371 53.452 70.9359C53.4424 70.9167 53.458 70.9479 53.4484 70.9287C53.4478 70.9275 53.4472 70.9263 53.4466 70.9251C53.446 70.9239 53.4454 70.9227 53.4448 70.9215C53.44 70.9118 53.446 70.9239 53.4412 70.9142C53.4363 70.9046 53.4424 70.9167 53.4376 70.907C53.4369 70.9058 53.4363 70.9045 53.4357 70.9033C53.4351 70.9021 53.4345 70.9009 53.4339 70.8997C53.4333 70.8985 53.4327 70.8972 53.4321 70.896C53.4315 70.8948 53.4309 70.8936 53.4302 70.8924C53.4205 70.8728 53.4364 70.9046 53.4266 70.885C53.426 70.8838 53.4254 70.8826 53.4247 70.8813C53.4241 70.8801 53.4235 70.8789 53.4229 70.8777C53.4223 70.8764 53.4217 70.8752 53.4211 70.874C53.4204 70.8727 53.4198 70.8715 53.4192 70.8703C53.4186 70.869 53.418 70.8678 53.4174 70.8666C53.4167 70.8653 53.4161 70.8641 53.4155 70.8629C53.4149 70.8616 53.4143 70.8604 53.4136 70.8591C53.413 70.8579 53.4124 70.8567 53.4118 70.8554C53.4112 70.8542 53.4105 70.8529 53.4099 70.8517C53.4093 70.8505 53.4087 70.8492 53.4081 70.848C53.4074 70.8467 53.4068 70.8455 53.4062 70.8442C53.4056 70.843 53.4049 70.8417 53.4043 70.8405C53.4037 70.8392 53.4031 70.838 53.4024 70.8367C53.4018 70.8355 53.4012 70.8342 53.4006 70.833C53.3999 70.8317 53.3993 70.8305 53.3987 70.8292C53.3981 70.828 53.3974 70.8267 53.3968 70.8255C53.3867 70.8053 53.4031 70.838 53.393 70.8179C53.3924 70.8167 53.3918 70.8154 53.3911 70.8141C53.3905 70.8129 53.3899 70.8116 53.3892 70.8103C53.3886 70.8091 53.388 70.8078 53.3873 70.8065C53.3867 70.8053 53.3861 70.804 53.3854 70.8027C53.3848 70.8015 53.3842 70.8002 53.3835 70.7989C53.3829 70.7977 53.3823 70.7964 53.3816 70.7951C53.381 70.7939 53.3804 70.7926 53.3797 70.7913C53.3791 70.79 53.3784 70.7888 53.3778 70.7875C53.3772 70.7862 53.3765 70.7849 53.3759 70.7837C53.3753 70.7824 53.3746 70.7811 53.374 70.7798C53.3733 70.7785 53.3727 70.7773 53.3721 70.776C53.3714 70.7747 53.3708 70.7734 53.3701 70.7721C53.3598 70.7515 53.3727 70.7773 53.3624 70.7567C53.3521 70.736 53.3689 70.7696 53.3585 70.7489C53.3579 70.7476 53.3572 70.7463 53.3566 70.745C53.3559 70.7437 53.3553 70.7424 53.3546 70.7411C53.354 70.7398 53.3533 70.7385 53.3527 70.7372C53.352 70.7359 53.3514 70.7346 53.3507 70.7333C53.3403 70.7124 53.3573 70.7464 53.3468 70.7255C53.3462 70.7242 53.3455 70.7229 53.3449 70.7216C53.3442 70.7203 53.3436 70.719 53.3429 70.7177C53.3422 70.7163 53.3416 70.715 53.3409 70.7137C53.3403 70.7124 53.3396 70.7111 53.339 70.7098C53.3383 70.7085 53.3376 70.7072 53.337 70.7058C53.3363 70.7045 53.3357 70.7032 53.335 70.7019C53.3344 70.7006 53.3337 70.6992 53.333 70.6979C53.3324 70.6966 53.3317 70.6953 53.3311 70.694C53.3304 70.6926 53.3297 70.6913 53.3291 70.69C53.3284 70.6887 53.3277 70.6873 53.3271 70.686C53.3264 70.6847 53.3258 70.6834 53.3251 70.682C53.3244 70.6807 53.3238 70.6794 53.3231 70.6781C53.3124 70.6567 53.3258 70.6834 53.3151 70.6621C53.2529 70.5377 53.3733 70.7784 53.3111 70.654C53.2681 70.568 53.35 70.732 53.307 70.646C53.3064 70.6446 53.3057 70.6433 53.305 70.6419C53.3044 70.6406 53.3037 70.6392 53.303 70.6379C53.3023 70.6365 53.3017 70.6352 53.301 70.6338C53.3003 70.6325 53.2996 70.6311 53.299 70.6298C53.2962 70.6243 53.2935 70.6189 53.2908 70.6135C53.2854 70.6026 53.2799 70.5917 53.2744 70.5806C53.2661 70.5641 53.2744 70.5806 53.2661 70.5641C53.2654 70.5627 53.2647 70.5613 53.264 70.5599C53.2633 70.5585 53.2626 70.5572 53.262 70.5558C53.2453 70.5225 53.2744 70.5807 53.2578 70.5474C53.2571 70.546 53.2564 70.5446 53.2557 70.5433C53.255 70.5419 53.2543 70.5405 53.2536 70.5391C53.2494 70.5307 53.2536 70.5391 53.2494 70.5307C53.2438 70.5195 53.2466 70.5251 53.241 70.5138C53.2382 70.5082 53.2396 70.511 53.2368 70.5054C53.2361 70.504 53.2354 70.5026 53.2346 70.5012C53.2339 70.4997 53.2332 70.4983 53.2325 70.4969C53.2099 70.4517 53.2509 70.5337 53.2283 70.4884C53.2254 70.4827 53.2269 70.4856 53.224 70.4799C53.2012 70.4343 53.2125 70.4569 53.1895 70.4109C53.1888 70.4094 53.188 70.408 53.1873 70.4065C53.1866 70.405 53.1859 70.4036 53.1851 70.4021C53.1844 70.4007 53.1837 70.3992 53.1829 70.3978C53.1822 70.3963 53.1815 70.3948 53.1808 70.3934C53.1221 70.2761 53.235 70.5019 53.1764 70.3846C53.1756 70.3831 53.1749 70.3817 53.1742 70.3802C53.1734 70.3787 53.1727 70.3773 53.172 70.3758C53.1712 70.3743 53.1705 70.3729 53.1698 70.3714C53.169 70.3699 53.1683 70.3684 53.1676 70.367C53.1084 70.2486 53.2223 70.4765 53.1631 70.3581C53.1624 70.3566 53.1617 70.3552 53.1609 70.3537C53.1602 70.3522 53.1594 70.3507 53.1587 70.3493C53.158 70.3478 53.1572 70.3463 53.1565 70.3448C53.1557 70.3433 53.155 70.3418 53.1542 70.3404C53.0827 70.1972 53.2169 70.4657 53.1453 70.3225C53.1393 70.3105 53.1423 70.3165 53.1363 70.3045C53.1356 70.303 53.1348 70.3015 53.1341 70.3C53.1333 70.2985 53.1326 70.297 53.1318 70.2955C53.1168 70.2655 53.1424 70.3166 53.1273 70.2865C53.0306 70.093 53.215 70.4619 53.1183 70.2684C53.1092 70.2502 53.1228 70.2774 53.1137 70.2593C53.1129 70.2577 53.1122 70.2562 53.1114 70.2547C53.1107 70.2532 53.1099 70.2517 53.1091 70.2501C53.0056 70.043 53.2035 70.4389 53.1 70.2318C53.0938 70.2195 53.1015 70.2349 53.0954 70.2226C53.0946 70.2211 53.0938 70.2195 53.0931 70.218C53.0923 70.2165 53.0915 70.2149 53.0908 70.2134C53.09 70.2119 53.0892 70.2103 53.0885 70.2088C53.0877 70.2072 53.0869 70.2057 53.0861 70.2042C53.0769 70.1856 53.0908 70.2134 53.0815 70.1949C52.9948 70.0214 53.159 70.3498 53.0722 70.1763C53.0504 70.1327 53.0894 70.2106 53.0675 70.167C52.9708 69.9734 53.1596 70.3511 53.0629 70.1576C53.0621 70.156 53.0613 70.1545 53.0605 70.1529C53.0597 70.1513 53.059 70.1498 53.0582 70.1482C53.0268 70.0855 53.0848 70.2015 53.0535 70.1388C52.9907 70.0132 53.1068 70.2455 53.044 70.1199C53.0061 70.0442 53.0772 70.1862 53.0393 70.1105C52.9349 69.9017 53.1389 70.3097 53.0345 70.101C53.0282 70.0882 53.0314 70.0946 53.025 70.0819C52.9805 69.9928 53.06 70.1518 53.0154 70.0627C52.9609 69.9536 53.0652 70.1623 53.0106 70.0531C52.9142 69.8602 53.1023 70.2364 53.0058 70.0435C53.005 70.0419 53.0042 70.0403 53.0034 70.0387C53.0026 70.037 53.0018 70.0354 53.001 70.0338C52.9363 69.9044 53.0609 70.1536 52.9961 70.0241C52.9638 69.9595 53.0188 70.0694 52.9864 70.0047C52.9083 69.8484 53.0597 70.1513 52.9815 69.995C52.9807 69.9933 52.9799 69.9917 52.9791 69.9901C52.9783 69.9884 52.9775 69.9868 52.9767 69.9852C52.9758 69.9835 52.975 69.9819 52.9742 69.9803C52.9734 69.9786 52.9726 69.977 52.9718 69.9754C52.8931 69.818 53.0455 70.1229 52.9668 69.9656C52.9406 69.9131 52.9832 69.9983 52.957 69.9458C52.8711 69.774 53.0379 70.1078 52.952 69.9359C52.9512 69.9343 52.9504 69.9326 52.9496 69.931C52.9487 69.9293 52.9479 69.9277 52.9471 69.926C52.9463 69.9244 52.9454 69.9227 52.9446 69.9211C52.9438 69.9194 52.9429 69.9178 52.9421 69.9161C52.8357 69.7033 53.0435 70.1189 52.9371 69.9061C52.9238 69.8795 52.9405 69.9128 52.9271 69.8861C52.9263 69.8845 52.9255 69.8828 52.9246 69.8811C52.9238 69.8795 52.923 69.8778 52.9221 69.8761C52.9213 69.8744 52.9204 69.8728 52.9196 69.8711C52.9188 69.8694 52.9179 69.8677 52.9171 69.8661C52.9163 69.8644 52.9154 69.8627 52.9146 69.861C52.9137 69.8593 52.9129 69.8577 52.9121 69.856C52.9112 69.8543 52.9104 69.8526 52.9095 69.8509C52.9087 69.8492 52.9078 69.8476 52.907 69.8459C52.9062 69.8442 52.9053 69.8425 52.9045 69.8408C52.9036 69.8391 52.9028 69.8374 52.9019 69.8358C52.9011 69.8341 52.9003 69.8324 52.8994 69.8307C52.8986 69.829 52.8977 69.8273 52.8969 69.8256C52.8561 69.744 52.9275 69.8869 52.8867 69.8052C52.8858 69.8035 52.885 69.8018 52.8841 69.8001C52.8833 69.7984 52.8824 69.7967 52.8816 69.795C52.8807 69.7933 52.8799 69.7916 52.879 69.7899C52.8782 69.7882 52.8773 69.7865 52.8765 69.7848C52.8756 69.7831 52.8748 69.7814 52.8739 69.7797C52.873 69.7779 52.8722 69.7762 52.8713 69.7745C52.8705 69.7728 52.8696 69.7711 52.8688 69.7694C52.8679 69.7677 52.867 69.766 52.8662 69.7642C52.811 69.6538 52.9111 69.8541 52.8559 69.7436C52.855 69.7419 52.8541 69.7401 52.8533 69.7384C52.8524 69.7367 52.8516 69.735 52.8507 69.7332C52.8498 69.7315 52.849 69.7298 52.8481 69.7281C52.8472 69.7263 52.8464 69.7246 52.8455 69.7229C52.8446 69.7211 52.8438 69.7194 52.8429 69.7177C52.842 69.7159 52.8412 69.7142 52.8403 69.7125C52.8394 69.7107 52.8386 69.709 52.8377 69.7072C52.8368 69.7055 52.836 69.7038 52.8351 69.702C52.7792 69.5902 52.8805 69.7929 52.8246 69.6811C52.8238 69.6794 52.8229 69.6776 52.822 69.6759C52.8211 69.6741 52.8203 69.6724 52.8194 69.6706C52.8185 69.6689 52.8176 69.6671 52.8167 69.6654C52.8159 69.6636 52.815 69.6619 52.8141 69.6601C52.8132 69.6583 52.8124 69.6566 52.8115 69.6548C52.8106 69.6531 52.8097 69.6513 52.8088 69.6496C52.808 69.6478 52.8071 69.646 52.8062 69.6443C52.8053 69.6425 52.8044 69.6408 52.8036 69.639C52.7329 69.4976 52.8637 69.7593 52.793 69.6178C52.7921 69.616 52.7912 69.6143 52.7903 69.6125C52.7894 69.6107 52.7885 69.6089 52.7876 69.6072C52.7868 69.6054 52.7859 69.6036 52.785 69.6018C52.7841 69.6001 52.7832 69.5983 52.7823 69.5965C52.7814 69.5947 52.7805 69.5929 52.7797 69.5912C52.7788 69.5894 52.7779 69.5876 52.777 69.5858C52.7761 69.584 52.7752 69.5823 52.7743 69.5805C52.7734 69.5787 52.7725 69.5769 52.7716 69.5751C52.6855 69.4029 52.847 69.7259 52.7609 69.5536C52.76 69.5518 52.7591 69.5501 52.7582 69.5483C52.7573 69.5465 52.7564 69.5447 52.7555 69.5429C52.7546 69.5411 52.7537 69.5393 52.7528 69.5375C52.7519 69.5357 52.751 69.5339 52.7501 69.5321C52.7492 69.5303 52.7483 69.5285 52.7474 69.5267C52.7465 69.5249 52.7456 69.5231 52.7447 69.5213C52.7438 69.5194 52.7429 69.5176 52.742 69.5158C52.7411 69.514 52.7402 69.5122 52.7393 69.5104C52.6522 69.3362 52.8155 69.6629 52.7284 69.4887C52.7275 69.4868 52.7266 69.485 52.7257 69.4832C52.7248 69.4814 52.7238 69.4796 52.7229 69.4777C52.722 69.4759 52.7211 69.4741 52.7202 69.4723C52.7193 69.4705 52.7184 69.4686 52.7175 69.4668C52.7166 69.465 52.7156 69.4632 52.7147 69.4613C52.7138 69.4595 52.7129 69.4577 52.712 69.4558C52.7111 69.454 52.7102 69.4522 52.7092 69.4504C52.7083 69.4485 52.7074 69.4467 52.7065 69.4449C52.6034 69.2387 52.7986 69.6291 52.6955 69.4228C52.6946 69.421 52.6936 69.4191 52.6927 69.4173C52.6918 69.4155 52.6909 69.4136 52.69 69.4118C52.689 69.4099 52.6881 69.4081 52.6872 69.4062C52.6863 69.4044 52.6853 69.4026 52.6844 69.4007C52.6835 69.3989 52.6826 69.397 52.6816 69.3952C52.6807 69.3933 52.6798 69.3915 52.6789 69.3896C52.6779 69.3878 52.677 69.3859 52.6761 69.384C52.6752 69.3822 52.6742 69.3803 52.6733 69.3785C52.6724 69.3766 52.6715 69.3748 52.6705 69.3729C52.6696 69.3711 52.6687 69.3692 52.6677 69.3673C52.6668 69.3655 52.6659 69.3636 52.6649 69.3618C52.664 69.3599 52.6631 69.358 52.6622 69.3562C52.6612 69.3543 52.6603 69.3524 52.6594 69.3506C52.6584 69.3487 52.6575 69.3468 52.6566 69.345C52.6556 69.3431 52.6547 69.3412 52.6538 69.3394C52.6528 69.3375 52.6519 69.3356 52.651 69.3338C52.65 69.3319 52.6491 69.33 52.6481 69.3282C52.6472 69.3263 52.6463 69.3244 52.6453 69.3225C52.6444 69.3207 52.6435 69.3188 52.6425 69.3169C52.6416 69.315 52.6406 69.3131 52.6397 69.3113C52.6388 69.3094 52.6378 69.3075 52.6369 69.3056C52.6359 69.3038 52.635 69.3019 52.6341 69.3C52.6331 69.2981 52.6322 69.2962 52.6312 69.2943C52.6303 69.2925 52.6294 69.2906 52.6284 69.2887C52.6275 69.2868 52.6265 69.2849 52.6256 69.283C52.6246 69.2811 52.6237 69.2792 52.6227 69.2774C52.6218 69.2755 52.6209 69.2736 52.6199 69.2717C52.619 69.2698 52.618 69.2679 52.6171 69.266C52.6161 69.2641 52.6152 69.2622 52.6142 69.2603C52.6133 69.2584 52.6123 69.2565 52.6114 69.2546C52.6104 69.2527 52.6095 69.2508 52.6085 69.2489C52.6076 69.247 52.6066 69.2451 52.6057 69.2432C52.6047 69.2413 52.6038 69.2394 52.6028 69.2375C52.6019 69.2356 52.6009 69.2337 52.6 69.2318C52.599 69.2299 52.5981 69.228 52.5971 69.2261C52.5962 69.2242 52.5952 69.2223 52.5942 69.2204C52.5933 69.2184 52.5923 69.2165 52.5914 69.2146C52.5904 69.2127 52.5895 69.2108 52.5885 69.2089C52.5876 69.207 52.5866 69.2051 52.5856 69.2031C52.5847 69.2012 52.5837 69.1993 52.5828 69.1974C52.5216 69.075 52.5978 69.2275 52.5364 69.1046C52.5354 69.1027 52.5344 69.1007 52.5335 69.0988C52.5325 69.0968 52.5315 69.0949 52.5305 69.0929C52.5296 69.091 52.5286 69.089 52.5276 69.0871C52.5266 69.0851 52.5256 69.0831 52.5247 69.0812C52.5237 69.0792 52.5227 69.0773 52.5217 69.0753C52.5208 69.0734 52.5198 69.0714 52.5188 69.0694C52.5178 69.0675 52.5168 69.0655 52.5158 69.0636C52.5149 69.0616 52.5139 69.0596 52.5129 69.0577C52.5119 69.0557 52.5109 69.0537 52.51 69.0518C52.509 69.0498 52.508 69.0478 52.507 69.0459C52.4441 68.9201 52.564 69.1599 52.5011 69.0341C52.5001 69.0321 52.4991 69.0301 52.4981 69.0281C52.4972 69.0262 52.4962 69.0242 52.4952 69.0222C52.4942 69.0202 52.4932 69.0183 52.4922 69.0163C52.4912 69.0143 52.4902 69.0123 52.4892 69.0104L47.1227 71.6936C47.1853 71.819 47.1545 71.7573 47.2162 71.8807C47.2933 72.0348 47.1621 71.7724 47.2391 71.9265C47.2401 71.9284 47.241 71.9303 47.242 71.9322C47.2429 71.9341 47.2439 71.936 47.2448 71.9379C47.2458 71.9398 47.2467 71.9417 47.2477 71.9436C47.2486 71.9455 47.2496 71.9474 47.2505 71.9493C47.3568 72.1618 47.1499 71.7481 47.2562 71.9606C47.2571 71.9625 47.2581 71.9644 47.259 71.9663C47.26 71.9682 47.2609 71.9701 47.2618 71.972C47.292 72.0324 47.2542 71.9568 47.2844 72.017C47.2853 72.0189 47.2863 72.0208 47.2872 72.0227C47.2881 72.0245 47.2891 72.0264 47.29 72.0283C47.2909 72.0301 47.2919 72.032 47.2928 72.0339C47.2937 72.0357 47.2947 72.0376 47.2956 72.0395C47.2965 72.0413 47.2975 72.0432 47.2984 72.045C47.2993 72.0469 47.3002 72.0488 47.3012 72.0506C47.3021 72.0525 47.303 72.0543 47.304 72.0562C47.3049 72.0581 47.3058 72.0599 47.3067 72.0618C47.3077 72.0636 47.3086 72.0655 47.3095 72.0673C47.3105 72.0692 47.3114 72.071 47.3123 72.0729C47.3132 72.0747 47.3142 72.0766 47.3151 72.0784C47.316 72.0803 47.3169 72.0821 47.3179 72.084C47.3188 72.0858 47.3197 72.0877 47.3206 72.0895C47.3215 72.0914 47.3225 72.0932 47.3234 72.0951C47.43 72.3082 47.2223 71.8929 47.3289 72.1061C47.3298 72.108 47.3308 72.1098 47.3317 72.1116C47.3326 72.1135 47.3335 72.1153 47.3344 72.1171C47.3354 72.119 47.3363 72.1208 47.3372 72.1226C47.3381 72.1245 47.339 72.1263 47.3399 72.1281C47.4422 72.3327 47.2487 71.9456 47.3509 72.1501C47.3518 72.1519 47.3527 72.1537 47.3536 72.1556C47.3546 72.1574 47.3555 72.1592 47.3564 72.161C47.4473 72.3429 47.2709 71.99 47.3618 72.1719C47.3627 72.1738 47.3636 72.1756 47.3646 72.1774C47.3655 72.1792 47.3664 72.181 47.3673 72.1828C47.3682 72.1846 47.3691 72.1864 47.37 72.1883C47.3709 72.1901 47.3718 72.1919 47.3727 72.1937C47.4557 72.3598 47.3005 72.0493 47.3835 72.2154C47.3844 72.2172 47.3853 72.219 47.3862 72.2208C47.3871 72.2226 47.388 72.2244 47.3889 72.2261C47.466 72.3804 47.3172 72.0827 47.3943 72.2369C47.3952 72.2387 47.3961 72.2405 47.397 72.2423C47.3979 72.2441 47.3988 72.2459 47.3997 72.2477C47.4006 72.2495 47.4015 72.2512 47.4024 72.253C47.4033 72.2548 47.4042 72.2566 47.4051 72.2584C47.4656 72.3794 47.3553 72.1588 47.4158 72.2798C47.4166 72.2816 47.4175 72.2833 47.4184 72.2851C47.4193 72.2869 47.4202 72.2887 47.4211 72.2904C47.483 72.4143 47.3645 72.1772 47.4264 72.3011C47.4273 72.3028 47.4282 72.3046 47.4291 72.3064C47.4299 72.3082 47.4308 72.3099 47.4317 72.3117C47.4326 72.3135 47.4335 72.3152 47.4344 72.317C47.4352 72.3187 47.4361 72.3205 47.437 72.3223C47.4898 72.4278 47.3948 72.2379 47.4476 72.3434C47.5089 72.4661 47.3914 72.2311 47.4528 72.3539C47.4983 72.4448 47.4126 72.2735 47.4581 72.3644C47.465 72.3784 47.472 72.3923 47.4789 72.4061C47.5331 72.5145 47.589 72.6263 47.6392 72.7268C47.6401 72.7284 47.6409 72.73 47.6417 72.7316C47.6425 72.7332 47.6433 72.7348 47.6441 72.7364C47.6449 72.738 47.6457 72.7396 47.6465 72.7412C47.6473 72.7428 47.6481 72.7444 47.6489 72.746C47.7016 72.8514 47.601 72.6502 47.6537 72.7556C47.6545 72.7572 47.6553 72.7588 47.6561 72.7604C47.6569 72.762 47.6577 72.7636 47.6585 72.7652C47.6592 72.7668 47.66 72.7684 47.6608 72.7699C47.6616 72.7715 47.6624 72.7731 47.6632 72.7747C47.7061 72.8604 47.6251 72.6986 47.668 72.7842C47.6688 72.7858 47.6696 72.7874 47.6704 72.789C47.6711 72.7906 47.6719 72.7922 47.6727 72.7937C47.6735 72.7953 47.6743 72.7969 47.6751 72.7985C47.6759 72.8001 47.6767 72.8016 47.6775 72.8032C47.7121 72.8725 47.6476 72.7434 47.6822 72.8127C47.683 72.8142 47.6838 72.8158 47.6846 72.8174C47.6853 72.8189 47.6861 72.8205 47.6869 72.8221C47.6877 72.8237 47.6885 72.8252 47.6893 72.8268C47.69 72.8284 47.6908 72.8299 47.6916 72.8315C47.7213 72.8908 47.6666 72.7816 47.6963 72.8409C47.7025 72.8534 47.7088 72.8658 47.7149 72.8782C47.718 72.8844 47.7211 72.8905 47.7242 72.8967C47.725 72.8982 47.7257 72.8998 47.7265 72.9013C47.7273 72.9028 47.728 72.9044 47.7288 72.9059C47.7296 72.9074 47.7303 72.909 47.7311 72.9105C47.7319 72.912 47.7326 72.9136 47.7334 72.9151C47.7365 72.9212 47.7349 72.9182 47.738 72.9243C47.7388 72.9258 47.7395 72.9273 47.7403 72.9288C47.741 72.9304 47.7418 72.9319 47.7426 72.9334C47.7456 72.9395 47.7441 72.9365 47.7471 72.9425C47.7479 72.9441 47.7487 72.9456 47.7494 72.9471C47.7502 72.9486 47.7509 72.9501 47.7517 72.9516C47.7524 72.9532 47.7532 72.9547 47.754 72.9562C47.7547 72.9577 47.7555 72.9592 47.7562 72.9607C47.7683 72.9849 47.7487 72.9456 47.7608 72.9698C47.8446 73.1375 47.686 72.8202 47.7698 72.9878C47.7705 72.9893 47.7713 72.9908 47.772 72.9923C47.7728 72.9938 47.7735 72.9953 47.7743 72.9968C47.775 72.9983 47.7758 72.9998 47.7765 73.0013C47.7773 73.0028 47.778 73.0043 47.7788 73.0058C47.7795 73.0073 47.7802 73.0088 47.781 73.0103C47.7817 73.0117 47.7825 73.0132 47.7832 73.0147C47.784 73.0162 47.7847 73.0177 47.7855 73.0192C47.7862 73.0207 47.7869 73.0222 47.7877 73.0236C47.8469 73.142 47.7329 72.9142 47.7921 73.0325C47.8394 73.1272 47.7493 72.9468 47.7966 73.0414C47.798 73.0444 47.8039 73.0561 47.8054 73.0591C47.8501 73.1485 47.7651 72.9784 47.8098 73.0679C47.8105 73.0693 47.8113 73.0708 47.812 73.0723C47.8127 73.0737 47.8135 73.0752 47.8142 73.0767C47.8609 73.17 47.7719 72.9921 47.8186 73.0854C47.8193 73.0869 47.82 73.0883 47.8208 73.0898C47.8215 73.0912 47.8222 73.0927 47.8229 73.0941C47.8237 73.0956 47.8244 73.0971 47.8251 73.0985C47.8258 73.1 47.8266 73.1014 47.8273 73.1029C47.8591 73.1665 47.7998 73.0479 47.8316 73.1115C47.8324 73.113 47.8331 73.1144 47.8338 73.1159C47.8345 73.1173 47.8352 73.1188 47.836 73.1202C47.8367 73.1216 47.8374 73.1231 47.8381 73.1245C47.8388 73.126 47.8396 73.1274 47.8403 73.1288C47.8718 73.1919 47.8131 73.0744 47.8446 73.1375C47.8453 73.1389 47.846 73.1403 47.8467 73.1418C47.8475 73.1432 47.8482 73.1446 47.8489 73.1461C47.8496 73.1475 47.8503 73.1489 47.851 73.1503C47.8517 73.1518 47.8525 73.1532 47.8532 73.1546C47.8703 73.1888 47.8404 73.129 47.8574 73.1632C47.8582 73.1646 47.8589 73.166 47.8596 73.1674C47.8603 73.1689 47.861 73.1703 47.8617 73.1717C47.8624 73.1731 47.8631 73.1745 47.8638 73.1759C47.8645 73.1774 47.8653 73.1788 47.866 73.1802C47.8744 73.1971 47.8617 73.1717 47.8702 73.1887C47.8709 73.1901 47.8716 73.1915 47.8723 73.1929C47.873 73.1943 47.8737 73.1957 47.8744 73.1971C47.8751 73.1985 47.8758 73.1999 47.8765 73.2013C47.8772 73.2027 47.8779 73.2042 47.8786 73.2056C47.8814 73.2112 47.88 73.2084 47.8828 73.214C47.8835 73.2154 47.8842 73.2168 47.8849 73.2182C47.8856 73.2196 47.8863 73.221 47.887 73.2223C47.8898 73.2279 47.8884 73.2251 47.8912 73.2307C47.8919 73.2321 47.8926 73.2335 47.8933 73.2349C47.894 73.2363 47.8947 73.2377 47.8954 73.239C47.8961 73.2404 47.8968 73.2418 47.8975 73.2432C47.8982 73.2446 47.8989 73.246 47.8995 73.2474C47.9078 73.2639 47.8954 73.2391 47.9037 73.2557C47.9044 73.257 47.9051 73.2584 47.9058 73.2598C47.9064 73.2612 47.9071 73.2625 47.9078 73.2639C47.9085 73.2653 47.9092 73.2667 47.9099 73.268C47.9106 73.2694 47.9113 73.2708 47.9119 73.2722C47.9284 73.3051 47.8996 73.2475 47.9161 73.2804C47.9167 73.2818 47.9174 73.2831 47.9181 73.2845C47.9188 73.2859 47.9195 73.2872 47.9202 73.2886C47.9208 73.29 47.9236 73.2954 47.9242 73.2968C47.9487 73.3457 47.9039 73.256 47.9283 73.3049C47.929 73.3063 47.9297 73.3076 47.9304 73.309C47.931 73.3103 47.9317 73.3117 47.9324 73.313C47.9331 73.3144 47.9337 73.3158 47.9344 73.3171C47.9351 73.3185 47.9358 73.3198 47.9364 73.3212C47.9741 73.3966 47.9028 73.2538 47.9405 73.3292C47.9412 73.3306 47.9418 73.3319 47.9425 73.3333C47.9432 73.3346 47.9438 73.336 47.9445 73.3373C47.9452 73.3386 47.9459 73.34 47.9465 73.3413C47.9472 73.3427 47.9479 73.344 47.9485 73.3453C47.9539 73.356 47.9512 73.3507 47.9565 73.3613C47.9618 73.372 47.9552 73.3587 47.9605 73.3693C47.9612 73.3706 47.9618 73.372 47.9625 73.3733C47.9632 73.3746 47.9638 73.3759 47.9645 73.3772C47.9651 73.3786 47.9658 73.3799 47.9665 73.3812C47.9671 73.3825 47.9678 73.3838 47.9684 73.3852C47.9737 73.3957 47.9671 73.3825 47.9724 73.3931C47.9731 73.3944 47.9737 73.3957 47.9744 73.397C47.975 73.3983 47.9757 73.3996 47.9763 73.4009C47.977 73.4022 47.9776 73.4036 47.9783 73.4049C47.979 73.4062 47.9796 73.4075 47.9803 73.4088C47.9809 73.4101 47.9816 73.4114 47.9822 73.4127C47.9829 73.414 47.9835 73.4153 47.9842 73.4166C47.9848 73.4179 47.9855 73.4192 47.9861 73.4205C47.9868 73.4218 47.9874 73.4231 47.9881 73.4244C47.9887 73.4257 47.9894 73.427 47.99 73.4283C47.9907 73.4296 47.9913 73.4309 47.992 73.4322C47.9926 73.4335 47.9933 73.4348 47.9939 73.4361C47.9946 73.4374 47.9952 73.4387 47.9958 73.44C48.001 73.4503 47.9984 73.4451 48.0036 73.4554C48.0042 73.4567 48.0048 73.458 48.0055 73.4593C48.0061 73.4605 48.0068 73.4618 48.0074 73.4631C48.0081 73.4644 48.0087 73.4657 48.0093 73.4669C48.01 73.4682 48.0106 73.4695 48.0112 73.4708C48.0119 73.472 48.0125 73.4733 48.0132 73.4746C48.0138 73.4759 48.0144 73.4771 48.0151 73.4784C48.0157 73.4797 48.0163 73.4809 48.017 73.4822C48.0176 73.4835 48.0182 73.4848 48.0189 73.486C48.0195 73.4873 48.0201 73.4886 48.0208 73.4898C48.0214 73.4911 48.022 73.4924 48.0227 73.4936C48.0233 73.4949 48.0239 73.4961 48.0246 73.4974C48.0252 73.4987 48.0258 73.4999 48.0265 73.5012C48.0271 73.5025 48.0277 73.5037 48.0283 73.505C48.029 73.5062 48.0296 73.5075 48.0302 73.5087C48.0309 73.51 48.0315 73.5113 48.0321 73.5125C48.0327 73.5138 48.0334 73.515 48.034 73.5163C48.0346 73.5175 48.0352 73.5188 48.0359 73.52C48.0365 73.5213 48.0371 73.5225 48.0377 73.5238C48.0384 73.525 48.039 73.5263 48.0396 73.5275C48.0402 73.5288 48.0409 73.53 48.0415 73.5312C48.0421 73.5325 48.0427 73.5337 48.0434 73.535C48.044 73.5362 48.0446 73.5375 48.0452 73.5387C48.0458 73.5399 48.0465 73.5412 48.0471 73.5424C48.0477 73.5437 48.0483 73.5449 48.0489 73.5461C48.0514 73.5511 48.0502 73.5486 48.0526 73.5535C48.0533 73.5548 48.0539 73.556 48.0545 73.5572C48.0551 73.5585 48.0557 73.5597 48.0563 73.5609C48.0735 73.5953 48.0428 73.534 48.06 73.5683C48.0606 73.5695 48.0612 73.5708 48.0619 73.572C48.0625 73.5732 48.0631 73.5744 48.0637 73.5756C48.0734 73.5952 48.0612 73.5708 48.071 73.5903C48.0716 73.5915 48.0722 73.5927 48.0728 73.5939C48.0734 73.5951 48.074 73.5963 48.0746 73.5975C48.0752 73.5987 48.0758 73.5999 48.0764 73.6012C48.077 73.6024 48.0776 73.6036 48.0782 73.6048C48.1918 73.832 47.9935 73.4352 48.1068 73.6619C48.1327 73.7136 48.0845 73.6173 48.1103 73.669C48.1109 73.6701 48.1115 73.6713 48.1121 73.6725C48.1127 73.6736 48.1133 73.6748 48.1139 73.676C48.1144 73.6771 48.115 73.6783 48.1156 73.6795C48.1162 73.6806 48.1168 73.6818 48.1173 73.683C48.1476 73.7435 48.0906 73.6294 48.1208 73.6899C48.1214 73.6911 48.122 73.6923 48.1226 73.6934C48.1231 73.6946 48.1237 73.6957 48.1243 73.6969C48.1249 73.698 48.1255 73.6992 48.126 73.7003C48.1266 73.7015 48.1272 73.7027 48.1278 73.7038C48.1669 73.782 48.0921 73.6325 48.1312 73.7107C48.1318 73.7119 48.1324 73.713 48.1329 73.7141C48.1335 73.7153 48.1341 73.7164 48.1347 73.7176C48.1438 73.7358 48.1393 73.7268 48.1483 73.7449C48.2115 73.8714 48.0884 73.6251 48.1517 73.7516C48.1522 73.7527 48.1528 73.7539 48.1534 73.755C48.1539 73.7561 48.1545 73.7572 48.155 73.7584C48.1556 73.7595 48.1562 73.7606 48.1567 73.7617C48.1573 73.7628 48.1578 73.764 48.1584 73.7651C48.2321 73.9125 48.0881 73.6244 48.1617 73.7718C48.1623 73.7729 48.1629 73.774 48.1634 73.7751C48.164 73.7762 48.1645 73.7773 48.1651 73.7784C48.1656 73.7795 48.1662 73.7807 48.1667 73.7818C48.1673 73.7829 48.1678 73.784 48.1684 73.7851C48.1728 73.7939 48.1706 73.7895 48.175 73.7983C48.1756 73.7994 48.1761 73.8005 48.1767 73.8016C48.1772 73.8027 48.1778 73.8038 48.1783 73.8049C48.2745 73.9972 48.0854 73.6191 48.1816 73.8114C48.1821 73.8125 48.1827 73.8136 48.1832 73.8147C48.1838 73.8158 48.1843 73.8169 48.1848 73.818C48.1892 73.8266 48.1838 73.8158 48.1881 73.8245C48.2051 73.8585 48.1969 73.8421 48.2137 73.8757C48.2142 73.8767 48.2147 73.8778 48.2153 73.8788C48.2158 73.8799 48.2163 73.8809 48.2168 73.882C48.2174 73.883 48.2179 73.8841 48.2184 73.8851C48.2189 73.8862 48.2195 73.8872 48.22 73.8882C48.2205 73.8893 48.221 73.8903 48.2215 73.8914C48.2221 73.8924 48.2226 73.8935 48.2231 73.8945C48.2252 73.8986 48.2241 73.8966 48.2262 73.9007C48.2267 73.9018 48.2273 73.9028 48.2278 73.9038C48.2283 73.9049 48.2288 73.9059 48.2293 73.9069C48.2298 73.908 48.2304 73.909 48.2309 73.91C48.2314 73.911 48.2319 73.9121 48.2324 73.9131C48.2329 73.9141 48.2334 73.9152 48.234 73.9162C48.2345 73.9172 48.235 73.9182 48.2355 73.9193C48.236 73.9203 48.2365 73.9213 48.237 73.9223C48.2375 73.9234 48.2381 73.9244 48.2386 73.9254C48.2391 73.9264 48.2396 73.9274 48.2401 73.9285C48.2406 73.9295 48.2411 73.9305 48.2416 73.9315C48.2457 73.9396 48.2406 73.9295 48.2447 73.9376C48.2452 73.9386 48.2457 73.9396 48.2462 73.9406C48.2467 73.9416 48.2472 73.9427 48.2477 73.9437C48.2482 73.9447 48.2487 73.9457 48.2492 73.9467C48.2497 73.9477 48.2502 73.9487 48.2507 73.9497C48.2512 73.9507 48.2517 73.9517 48.2522 73.9527C48.2527 73.9537 48.2532 73.9547 48.2537 73.9557C48.2542 73.9567 48.2547 73.9577 48.2552 73.9587C48.2557 73.9597 48.2562 73.9607 48.2567 73.9617C48.2572 73.9627 48.2577 73.9637 48.2582 73.9647C48.2587 73.9657 48.2592 73.9667 48.2597 73.9677C48.2602 73.9687 48.2607 73.9697 48.2612 73.9707C48.2617 73.9717 48.2622 73.9727 48.2627 73.9736L53.6292 71.2904ZM52.509 69.0506L48.557 60.8426L43.151 63.4454L47.103 71.6534L52.509 69.0506ZM45.854 59.144H24.802V65.144H45.854V59.144ZM22.099 60.8426L18.147 69.0506L23.553 71.6534L27.505 63.4454L22.099 60.8426ZM18.1667 69.0104C17.6701 70.0036 17.333 70.5991 17.1378 70.8919L22.1301 74.2201C22.5429 73.6009 23.0165 72.7271 23.5332 71.6936L18.1667 69.0104ZM17.0115 71.0991C17.0348 71.0572 17.0234 71.091 16.9241 71.1958C16.8269 71.2983 16.6715 71.4416 16.4368 71.6221L20.0951 76.3779C20.9078 75.7527 21.7212 74.9763 22.2564 74.0129L17.0115 71.0991ZM16.466 71.6C16.5262 71.5548 16.4131 71.684 15.834 71.684V77.684C17.2815 77.684 18.7897 77.3572 20.066 76.4L16.466 71.6ZM15.834 71.684C15.6059 71.684 14.7902 71.53 13.1476 70.7087L10.4643 76.0753C12.267 76.9766 14.1367 77.684 15.834 77.684V71.684ZM13.1102 70.6903C11.8337 70.0741 11.1037 69.5176 10.7229 69.0974C10.3831 68.7224 10.398 68.5521 10.398 68.528H4.39797C4.39797 72.2131 7.37415 74.5838 10.5017 76.0937L13.1102 70.6903ZM10.398 68.528C10.398 68.5511 10.4016 68.3579 10.567 67.8617C10.7233 67.3928 10.9823 66.7755 11.3732 65.9936L6.00668 63.3104C5.13359 65.0565 4.39797 66.9022 4.39797 68.528H10.398ZM11.3914 65.9568L31.9114 23.4728L26.5086 20.8632L5.98857 63.3472L11.3914 65.9568ZM31.9164 23.4624C32.2256 22.8157 32.6763 22.3021 33.3286 21.887L30.1073 16.825C28.5303 17.8286 27.309 19.1896 26.5036 20.8736L31.9164 23.4624ZM33.2778 21.9186C34.0107 21.4725 34.6919 21.292 35.366 21.292V15.292C33.5067 15.292 31.7559 15.8209 30.1581 16.7934L33.2778 21.9186ZM35.366 21.292C36.2324 21.292 36.8385 21.4934 37.303 21.7953C37.7802 22.1055 38.2907 22.6417 38.7627 23.5856L44.1292 20.9024C43.2839 19.2116 42.1224 17.7718 40.5729 16.7647C39.0108 15.7493 37.2355 15.292 35.366 15.292V21.292ZM32.5872 39.182L27.5712 49.594L32.9767 52.198L37.9927 41.786L32.5872 39.182ZM30.274 53.896H40.382V47.896H30.274V53.896ZM43.0769 49.578L37.9849 39.166L32.595 41.802L37.687 52.214L43.0769 49.578Z" fill="white"/>
</g>
<defs>
<filter id="filter0_d_8_18712" x="0.39798" y="15.292" width="74.7749" height="73.9095" filterUnits="userSpaceOnUse" color-interpolation-filters="sRGB">
<feFlood flood-opacity="0" result="BackgroundImageFix"/>
<feColorMatrix in="SourceAlpha" type="matrix" values="0 0 0 0 0 0 0 0 0 0 0 0 0 0 0 0 0 0 127 0" result="hardAlpha"/>
<feOffset dy="4"/>
<feGaussianBlur stdDeviation="2"/>
<feComposite in2="hardAlpha" operator="out"/>
<feColorMatrix type="matrix" values="0 0 0 0 0 0 0 0 0 0 0 0 0 0 0 0 0 0 0.25 0"/>
<feBlend mode="normal" in2="BackgroundImageFix" result="effect1_dropShadow_8_18712"/>
<feBlend mode="normal" in="SourceGraphic" in2="effect1_dropShadow_8_18712" result="shape"/>
</filter>
</defs>
</svg>
