<svg width="62" height="92" viewBox="0 0 62 92" fill="none" xmlns="http://www.w3.org/2000/svg">
<path d="M37.7626 22.8346C38.7008 23.4912 39.4809 24.4415 40.1029 25.6855L60.6229 68.0935C61.4843 69.8161 61.9149 71.1081 61.9149 71.9695C61.9149 73.7935 60.4456 75.4401 57.5069 76.9095C55.7843 77.7708 54.4163 78.2015 53.4029 78.2015C52.4403 78.2015 51.6296 77.9735 50.9709 77.5175C50.3629 77.0615 49.9069 76.5801 49.6029 76.0735C49.3496 75.5668 48.9696 74.8068 48.4629 73.7935L44.5109 65.5855H23.4589L19.5069 73.7935C19.0003 74.8068 18.5949 75.5415 18.2909 75.9975C18.0376 76.4535 17.5816 76.9348 16.9229 77.4415C16.3149 77.8975 15.5043 78.1255 14.4909 78.1255C13.5283 78.1255 12.1856 77.6948 10.4629 76.8335C9.70148 76.4659 9.03868 76.0847 8.47453 75.6898C6.86146 74.561 6.05493 73.3208 6.05493 71.9695C6.05493 71.1081 6.4856 69.8161 7.34693 68.0935L27.8669 25.6095C28.4243 24.4441 29.2603 23.5068 30.3749 22.7975C31.5403 22.0881 32.7563 21.7335 34.0229 21.7335C35.4671 21.7335 36.7137 22.1005 37.7626 22.8346ZM33.9469 43.9255L28.9309 54.3375H39.0389L33.9469 43.9255Z" fill="#2B0057"/>
<path d="M25.46 19.356C24.3454 20.0653 23.5094 21.0027 22.952 22.168L27.8669 25.6094C28.4243 24.4441 29.2603 23.5068 30.3749 22.7974L25.46 19.356Z" fill="#2B0057"/>
<path d="M29.108 18.292C27.8414 18.292 26.6254 18.6467 25.46 19.356L30.3749 22.7975C31.5403 22.0881 32.7563 21.7335 34.0229 21.7335L29.108 18.292Z" fill="#2B0057"/>
<path d="M22.952 22.168L2.43201 64.652L7.34692 68.0935L27.8669 25.6095L22.952 22.168Z" fill="#2B0057"/>
<path d="M32.8477 19.3931C31.7988 18.659 30.5522 18.292 29.108 18.292L34.0229 21.7335C35.4671 21.7335 36.7137 22.1005 37.7626 22.8346L32.8477 19.3931Z" fill="#2B0057"/>
<path d="M2.43201 64.652C1.57068 66.3747 1.14001 67.6667 1.14001 68.528L6.05493 71.9695C6.05493 71.1081 6.48559 69.8161 7.34693 68.0935L2.43201 64.652Z" fill="#2B0057"/>
<path d="M35.188 22.244C34.5665 21.0011 33.7872 20.0513 32.85 19.3948L37.7626 22.8346C38.7008 23.4912 39.4809 24.4415 40.1029 25.6854L35.188 22.244Z" fill="#2B0057"/>
<path d="M1.14001 68.528C1.14001 69.8794 1.94655 71.1195 3.55961 72.2484L8.47024 75.6868C6.86003 74.5588 6.05493 73.3196 6.05493 71.9694L1.14001 68.528Z" fill="#2B0057"/>
<path d="M3.55963 72.2484C4.12378 72.6432 4.78658 73.0244 5.54804 73.392L10.4629 76.8335C9.7015 76.4659 9.03869 76.0847 8.47454 75.6898L3.55963 72.2484Z" fill="#2B0057"/>
<path d="M24.016 50.896L29.032 40.484L33.9469 43.9255L28.9309 54.3375L24.016 50.896Z" fill="#2B0057"/>
<path d="M5.54803 73.392C7.2707 74.2533 8.61337 74.684 9.57603 74.684L14.4909 78.1255C13.5283 78.1255 12.1856 77.6948 10.4629 76.8335L5.54803 73.392Z" fill="#2B0057"/>
<path d="M9.57599 74.684C10.5893 74.684 11.4 74.456 12.008 74L16.9229 77.4415C16.3149 77.8975 15.5042 78.1255 14.4909 78.1255L9.57599 74.684Z" fill="#2B0057"/>
<path d="M14.592 70.352L18.544 62.144L23.459 65.5854L19.507 73.7934L14.592 70.352Z" fill="#2B0057"/>
<path d="M29.032 40.484L34.124 50.896L39.039 54.3375L33.947 43.9255L29.032 40.484Z" fill="#2B0057"/>
<path d="M12.008 74C12.6667 73.4933 13.1227 73.012 13.376 72.556L18.2909 75.9975C18.0376 76.4535 17.5816 76.9348 16.9229 77.4415L12.008 74Z" fill="#2B0057"/>
<path d="M13.376 72.556C13.68 72.1 14.0854 71.3653 14.592 70.352L19.5069 73.7934C19.0003 74.8068 18.5949 75.5415 18.2909 75.9975L13.376 72.556Z" fill="#2B0057"/>
<path d="M34.124 50.896H24.016L28.9309 54.3375H39.0389L34.124 50.896Z" fill="#2B0057"/>
<path d="M18.544 62.144H39.596L44.5109 65.5854H23.4589L18.544 62.144Z" fill="#2B0057"/>
<path d="M55.708 64.652L35.188 22.244L40.1029 25.6854L60.6229 68.0935L55.708 64.652Z" fill="#2B0057"/>
<path d="M39.596 62.144L43.548 70.352L48.4629 73.7934L44.5109 65.5854L39.596 62.144Z" fill="#2B0057"/>
<path d="M43.548 70.352L44.688 72.632L49.6029 76.0735L48.4629 73.7934L43.548 70.352Z" fill="#2B0057"/>
<path d="M44.688 72.632C44.992 73.1387 45.448 73.62 46.056 74.076L50.9709 77.5174C50.3629 77.0614 49.9069 76.5801 49.6029 76.0734L44.688 72.632Z" fill="#2B0057"/>
<path d="M46.056 74.076C46.7147 74.532 47.5254 74.76 48.488 74.76L53.4029 78.2014C52.4403 78.2014 51.6296 77.9734 50.9709 77.5174L46.056 74.076Z" fill="#2B0057"/>
<path d="M48.488 74.76C49.5014 74.76 50.8694 74.3293 52.592 73.468L57.507 76.9094C55.7843 77.7708 54.4163 78.2014 53.4029 78.2014L48.488 74.76Z" fill="#2B0057"/>
<path d="M57 68.528C57 67.6667 56.5693 66.3747 55.708 64.652L60.6229 68.0935C61.4843 69.8161 61.9149 71.1081 61.9149 71.9695L57 68.528Z" fill="#2B0057"/>
<path d="M52.592 73.468C55.5307 71.9986 57 70.352 57 68.528L61.915 71.9694C61.915 73.7934 60.4456 75.4401 57.507 76.9094L52.592 73.468Z" fill="#2B0057"/>
<path d="M35.188 22.244L55.708 64.652C56.5693 66.3747 57 67.6667 57 68.528C57 70.352 55.5307 71.9987 52.592 73.468C50.8693 74.3293 49.5013 74.76 48.488 74.76C47.5253 74.76 46.7147 74.532 46.056 74.076C45.448 73.62 44.992 73.1387 44.688 72.632C44.4347 72.1253 44.0547 71.3653 43.548 70.352L39.596 62.144H18.544L14.592 70.352C14.0853 71.3653 13.68 72.1 13.376 72.556C13.1227 73.012 12.6667 73.4933 12.008 74C11.4 74.456 10.5893 74.684 9.576 74.684C8.61333 74.684 7.27067 74.2533 5.548 73.392C2.60933 71.9733 1.14 70.352 1.14 68.528C1.14 67.6667 1.57067 66.3747 2.432 64.652L22.952 22.168C23.5093 21.0027 24.3453 20.0653 25.46 19.356C26.6253 18.6467 27.8413 18.292 29.108 18.292C31.844 18.292 33.8707 19.6093 35.188 22.244ZM29.032 40.484L24.016 50.896H34.124L29.032 40.484Z" fill="white"/>
</svg>
