<svg width="149" height="148" viewBox="0 0 149 148" fill="none" xmlns="http://www.w3.org/2000/svg">
<path d="M27.7968 125.805L17.4091 9.25H131.591L121.189 125.786L74.4307 138.75L27.7968 125.805Z" fill="#1572B6" fill-opacity="0.5"/>
<path d="M74.5 128.843L112.286 118.368L121.175 18.7821H74.5V128.843Z" fill="#33A9DC" fill-opacity="0.5"/>
<path d="M74.5 61.0083H93.4163L94.7205 46.3702H74.5V32.0743H110.344L110.002 35.9085L106.491 75.3042H74.5V61.0083Z" fill="white" fill-opacity="0.8"/>
<path d="M74.5879 98.1332L74.5231 98.1517L58.6039 93.8505L57.5864 82.4498H43.235L45.2376 104.895L74.5185 113.026L74.5879 113.007V98.1332Z" fill="#EBEBEB" fill-opacity="0.8"/>
<path d="M92.1999 74.6984L90.4794 93.8412L74.537 98.1425V113.016L103.841 104.895L104.058 102.481L106.542 74.6984H92.1999Z" fill="white" fill-opacity="0.8"/>
<path d="M74.5509 32.0743V46.3702H40.0206L39.7339 43.1558L39.0818 35.9085L38.7395 32.0743H74.5509ZM74.5 61.0083V75.3042H58.7796L58.4929 72.0898L57.8454 64.8425L57.5031 61.0083H74.5Z" fill="#EBEBEB" fill-opacity="0.8"/>
</svg>
