<svg width="68" height="92" viewBox="0 0 68 92" fill="none" xmlns="http://www.w3.org/2000/svg">
<g filter="url(#filter0_d_8_18903)">
<path d="M18.7829 20.1575L18.7829 20.1575H18.7748C17.068 20.1575 15.578 20.3349 14.3701 20.753C13.154 21.1739 12.1071 21.8838 11.5195 23.0106C11.0769 23.8416 10.7502 24.6515 10.611 25.4171L10.599 25.483L10.5929 25.5497C10.5357 26.1794 10.5108 27.1239 10.5108 28.3455V70.6015C10.5108 72.8663 10.8174 74.8044 11.6204 76.2097L11.6283 76.2235L11.6365 76.2372C11.9496 76.759 12.3706 77.1893 12.8655 77.5358C14.2651 78.5153 16.3145 78.8655 18.6988 78.8655H32.6068C40.7595 78.8655 47.7313 75.9437 53.4347 70.1348C59.1805 64.3347 62.0748 57.3453 62.0748 49.2455C62.0748 41.0872 59.1227 34.1815 53.2477 28.6258C51.991 27.4265 50.6861 26.3521 49.3325 25.4048C44.4106 21.9603 38.8985 20.2342 32.8389 20.2335C32.8375 20.2335 32.8361 20.2335 32.8348 20.2335L18.7829 20.1575ZM41.7397 40.4356L41.7493 40.4451L41.7592 40.4544C44.3376 42.8972 45.6228 45.9187 45.6228 49.6255C45.6228 53.3211 44.3207 56.3384 41.6978 58.7828C39.0096 61.2374 36.0707 62.4135 32.8348 62.4135H26.9628V36.6855H32.7588C35.4308 36.6855 37.7979 37.4252 39.906 38.9022C40.5355 39.3431 41.1469 39.8534 41.7397 40.4356Z" fill="#2B0057" stroke="white" stroke-width="3"/>
<path d="M5.69604 21.9757C5.59124 22.5521 5.83159 23.1367 6.31148 23.4727L11.2264 26.9142C11.6451 27.2074 12.1843 27.2672 12.6571 27.0728C13.1299 26.8784 13.4711 26.4567 13.5626 25.9538C13.6256 25.6069 13.8042 25.1018 14.1703 24.4153C14.5272 23.7461 14.3284 22.9158 13.7071 22.4807L8.79221 19.0393C8.44051 18.793 8.00014 18.7093 7.5826 18.8092C7.16505 18.9092 6.81036 19.1833 6.60832 19.5621C6.16378 20.3956 5.83564 21.2079 5.69604 21.9757Z" fill="#2B0057" stroke="white" stroke-width="3" stroke-linejoin="round"/>
<path d="M5.59586 24.904C5.59586 25.3934 5.8346 25.852 6.23549 26.1327L11.1504 29.5742C11.6086 29.895 12.2072 29.9342 12.7034 29.676C13.1995 29.4177 13.5108 28.9048 13.5108 28.3454C13.5108 27.135 13.5365 26.3062 13.5806 25.8213C13.6293 25.2857 13.3876 24.7651 12.9471 24.4567L8.03222 21.0153C7.59398 20.7084 7.02548 20.6582 6.54024 20.8835C6.05499 21.1087 5.72645 21.5754 5.67802 22.1082C5.62077 22.7379 5.59586 23.6824 5.59586 24.904Z" fill="#2B0057" stroke="white" stroke-width="3" stroke-linejoin="round"/>
<path d="M6.60022 19.5775C6.25414 20.245 6.45563 21.0655 7.07149 21.4967L11.9864 24.9382C12.3406 25.1862 12.7846 25.2693 13.2045 25.1662C13.6244 25.0631 13.9794 24.7838 14.1784 24.3999C14.3009 24.1636 14.5945 23.85 15.3514 23.5879C16.1196 23.322 17.2389 23.1575 18.7748 23.1575C19.4294 23.1575 20.0085 22.7329 20.2053 22.1085C20.4022 21.4842 20.1714 20.8042 19.6351 20.4287L14.7202 16.9873C14.4681 16.8107 14.1677 16.716 13.8599 16.716C12.1531 16.716 10.6631 16.8934 9.45519 17.3115C8.23611 17.7335 7.18701 18.4459 6.60022 19.5775Z" fill="#2B0057" stroke="white" stroke-width="3" stroke-linejoin="round"/>
<path d="M13.868 16.716C13.2118 16.7125 12.6295 17.1358 12.4305 17.7611C12.2315 18.3863 12.462 19.0684 12.9995 19.4447L17.9144 22.8862C18.1643 23.0612 18.4616 23.1558 18.7667 23.1574L32.8267 23.2334C33.4828 23.237 34.0651 22.8136 34.2641 22.1884C34.4631 21.5631 34.2326 20.8811 33.6951 20.5047L28.7802 17.0633C28.5303 16.8883 28.233 16.7937 27.928 16.792L13.868 16.716Z" fill="#2B0057" stroke="white" stroke-width="3" stroke-linejoin="round"/>
<path d="M5.59586 67.16C5.59586 67.6494 5.8346 68.108 6.23549 68.3887L11.1504 71.8302C11.6086 72.151 12.2072 72.1902 12.7034 71.932C13.1995 71.6737 13.5108 71.1608 13.5108 70.6015V28.3455C13.5108 27.8561 13.272 27.3974 12.8711 27.1167L7.95622 23.6753C7.49803 23.3544 6.89938 23.3152 6.40323 23.5735C5.90708 23.8318 5.59586 24.3446 5.59586 24.904V67.16Z" fill="#2B0057" stroke="white" stroke-width="3" stroke-linejoin="round"/>
<path d="M28.7042 30.5153C28.4521 30.3387 28.1517 30.244 27.8439 30.244H20.5479C19.8932 30.244 19.3141 30.6686 19.1173 31.293C18.9204 31.9173 19.1512 32.5972 19.6875 32.9727L24.6024 36.4142C24.8546 36.5908 25.1549 36.6855 25.4628 36.6855H32.7588C33.4134 36.6855 33.9925 36.2609 34.1893 35.6365C34.3862 35.0122 34.1554 34.3323 33.6191 33.9567L28.7042 30.5153Z" fill="#2B0057" stroke="white" stroke-width="3" stroke-linejoin="round"/>
<path d="M26.4893 17.8409C26.6861 17.2166 27.2652 16.792 27.9199 16.792C33.9811 16.792 39.4946 18.5181 44.4175 21.9633L44.4179 21.9635L49.3325 25.4047L49.3328 25.405C50.0113 25.8801 50.1763 26.8153 49.7013 27.4939C49.2262 28.1725 48.291 28.3376 47.6124 27.8626C47.6123 27.8626 47.6122 27.8625 47.612 27.8624L26.4893 17.8409ZM26.4893 17.8409C26.2924 18.4653 26.5232 19.1452 27.0595 19.5207L31.9744 22.9622C32.2266 23.1387 32.5269 23.2335 32.8348 23.2335C38.2871 23.2335 43.1984 24.7739 47.6113 27.8619L26.4893 17.8409Z" fill="#2B0057" stroke="white" stroke-width="3" stroke-linejoin="round"/>
<path d="M21.4082 30.5153C20.95 30.1945 20.3514 30.1552 19.8552 30.4135C19.3591 30.6718 19.0479 31.1847 19.0479 31.744V60.472C19.0479 60.9614 19.2866 61.42 19.6875 61.7007L24.6024 65.1422C25.0606 65.463 25.6592 65.5023 26.1554 65.244C26.6515 64.9857 26.9628 64.4728 26.9628 63.9135V35.1855C26.9628 34.6961 26.724 34.2375 26.3231 33.9567L21.4082 30.5153Z" fill="#2B0057" stroke="white" stroke-width="3" stroke-linejoin="round"/>
<path d="M39.906 38.9021L39.906 38.9021L39.9006 38.8984C39.9006 38.8984 39.9005 38.8983 39.9005 38.8983C39.9004 38.8982 39.9003 38.8981 39.9002 38.8981C39.8998 38.8978 39.8994 38.8975 39.899 38.8972C37.7927 37.4236 35.4279 36.6855 32.7588 36.6855C32.451 36.6855 32.1506 36.5908 31.8984 36.4142L26.9835 32.9727C26.4472 32.5972 26.2164 31.9173 26.4133 31.293C26.6102 30.6686 27.1892 30.244 27.8439 30.244C31.1135 30.244 34.085 31.163 36.7122 33.0035L39.906 38.9021ZM39.906 38.9021C40.5842 39.3724 41.5156 39.2063 41.9894 38.5296C42.4629 37.8531 42.3005 36.9218 41.6275 36.4452L41.6275 36.4452L41.6209 36.4406C41.6209 36.4406 41.6209 36.4406 41.6209 36.4406L41.6206 36.4404C41.6206 36.4404 41.6205 36.4403 41.6205 36.4403L36.7125 33.0037L39.906 38.9021Z" fill="#2B0057" stroke="white" stroke-width="3" stroke-linejoin="round"/>
<path d="M6.70549 72.7682C6.81528 72.9604 6.96622 73.1258 7.14749 73.2528L12.0624 76.6942C12.6375 77.0969 13.415 77.0468 13.9337 76.5737C14.4524 76.1005 14.5735 75.3309 14.2251 74.7213C13.8121 73.9985 13.5108 72.694 13.5108 70.6015C13.5108 70.1121 13.272 69.6535 12.8711 69.3728L7.95622 65.9313C7.49803 65.6105 6.89938 65.5712 6.40323 65.8295C5.90708 66.0878 5.59586 66.6007 5.59586 67.16C5.59586 69.4248 5.90249 71.363 6.70549 72.7682Z" fill="#2B0057" stroke="white" stroke-width="3" stroke-linejoin="round"/>
<path d="M12.8645 77.535L12.8645 77.535L12.8645 77.535L12.8645 77.535L12.8645 77.535L12.8645 77.535L12.8645 77.535L12.8645 77.535L12.8645 77.535L12.8645 77.535L12.8645 77.535L12.8645 77.535L12.8645 77.535L12.8645 77.535L12.8645 77.535L12.8645 77.535L12.8645 77.535L12.8645 77.535L12.8645 77.535L12.8646 77.535L12.8646 77.535L12.8646 77.535L12.8646 77.5351L12.8646 77.5351L12.8646 77.5351L12.8646 77.5351L12.8646 77.5351L12.8646 77.5351L12.8646 77.5351L12.8646 77.5351L12.8646 77.5351L12.8646 77.5351L12.8646 77.5351L12.8646 77.5351L12.8646 77.5351L12.8646 77.5351L12.8647 77.5351L12.8647 77.5351L12.8647 77.5351L12.8647 77.5351L12.8647 77.5351L12.8647 77.5351L12.8647 77.5351L12.8647 77.5351L12.8647 77.5351L12.8647 77.5351L12.8647 77.5351L12.8647 77.5351L12.8647 77.5352L12.8647 77.5352L12.8647 77.5352L12.8647 77.5352L12.8647 77.5352L12.8647 77.5352L12.8647 77.5352L12.8647 77.5352L12.8648 77.5352L12.8648 77.5352L12.8648 77.5352L12.8648 77.5352L12.8648 77.5352L12.8648 77.5352L12.8648 77.5352L12.8648 77.5352L12.8648 77.5352L12.8648 77.5352L12.8648 77.5352L12.8648 77.5352L12.8648 77.5352L12.8648 77.5352L12.8648 77.5352L12.8648 77.5352L12.8648 77.5352L12.8648 77.5352L12.8648 77.5352L12.8648 77.5352L12.8648 77.5352L12.8649 77.5353L12.8649 77.5353L12.8649 77.5353L12.8649 77.5353L12.8649 77.5353L12.8649 77.5353L12.8649 77.5353L12.8649 77.5353L12.8649 77.5353L12.8649 77.5353L12.8649 77.5353L12.8649 77.5353L12.8649 77.5353L12.8649 77.5353L12.8649 77.5353L12.8649 77.5353L12.8649 77.5353L12.8649 77.5353L12.8649 77.5353L12.8649 77.5353L12.865 77.5353L12.865 77.5353L12.865 77.5353L12.865 77.5353L12.865 77.5353L12.865 77.5353L12.865 77.5353L12.865 77.5353L12.865 77.5353L12.865 77.5354L12.865 77.5354L12.865 77.5354L12.865 77.5354L12.865 77.5354L12.865 77.5354L12.865 77.5354L12.865 77.5354L12.865 77.5354L12.865 77.5354L12.865 77.5354L12.8651 77.5354L12.8651 77.5354L12.8651 77.5354L12.8651 77.5354L12.8651 77.5354L12.8651 77.5354L12.8651 77.5354L12.8651 77.5354L12.8651 77.5354L12.8651 77.5354L12.8651 77.5354L12.8651 77.5354L12.8651 77.5354L12.8651 77.5354L12.8651 77.5354L12.8651 77.5354L12.8651 77.5354L12.8651 77.5354L12.8651 77.5355L12.8651 77.5355L12.8651 77.5355L12.8652 77.5355L12.8652 77.5355L12.8652 77.5355L12.8652 77.5355L12.8652 77.5355L12.8652 77.5355L12.8652 77.5355L12.8652 77.5355L12.8652 77.5355L12.8652 77.5355L12.8652 77.5355L12.8652 77.5355L12.8652 77.5355L12.8652 77.5355L12.8652 77.5355L12.8652 77.5355L12.8652 77.5355L12.8652 77.5355L12.8652 77.5355L12.8652 77.5355L12.8653 77.5355L12.8653 77.5355L12.8653 77.5355L12.8653 77.5355L12.8653 77.5355L12.8653 77.5355L12.8653 77.5356L12.8653 77.5356L12.8653 77.5356L12.8653 77.5356L12.8653 77.5356L12.8653 77.5356L12.8653 77.5356L12.8653 77.5356L12.8653 77.5356L12.8653 77.5356L12.8653 77.5356L12.8653 77.5356L12.8653 77.5356L12.8653 77.5356L12.8654 77.5356L12.8654 77.5356L12.8654 77.5356L12.8654 77.5356L12.8654 77.5356L12.8654 77.5356L12.8654 77.5356L12.8654 77.5356L12.8654 77.5356L12.8654 77.5356L12.8654 77.5356L12.8654 77.5356L12.8654 77.5356L12.8654 77.5356L12.8654 77.5356L12.8654 77.5357C13.5439 78.0095 14.4781 77.8444 14.953 77.1664C15.428 76.4882 15.2636 75.5534 14.5858 75.078C14.5855 75.0778 14.5853 75.0776 14.585 75.0774C14.585 75.0774 14.585 75.0774 14.585 75.0774C14.585 75.0774 14.585 75.0774 14.585 75.0774C14.5849 75.0773 14.5849 75.0773 14.5849 75.0773C14.5849 75.0773 14.5849 75.0773 14.5849 75.0773C14.5849 75.0773 14.5849 75.0773 14.5849 75.0773C14.5848 75.0773 14.5848 75.0773 14.5848 75.0772C14.5848 75.0772 14.5847 75.0772 14.5847 75.0772L12.8645 77.535ZM12.8645 77.535C12.8644 77.535 12.8644 77.535 12.8644 77.535L12.8644 77.535L12.8644 77.535L12.8644 77.535L12.8644 77.5349L12.8644 77.5349L12.8644 77.5349L12.8644 77.5349L12.8644 77.5349L12.8644 77.5349L12.8644 77.5349L12.8644 77.5349L12.8644 77.5349L12.8645 77.535ZM14.5846 75.0771C14.3951 74.9443 14.2812 74.8141 14.209 74.6937C14.1007 74.5132 13.9556 74.3575 13.7831 74.2367L8.86821 70.7953C8.2882 70.3891 7.50319 70.4439 6.98519 70.9266C6.4672 71.4094 6.35731 72.1886 6.7216 72.7957C7.03459 73.3174 7.45549 73.7477 7.95034 74.0941C7.95043 74.0941 7.95052 74.0942 7.95062 74.0943L12.8637 77.5345L12.864 77.5347C12.8641 77.5347 12.8641 77.5347 12.8642 77.5348C12.8642 77.5348 12.8642 77.5348 12.8642 77.5348L12.8642 77.5348L14.5846 75.0771ZM12.8642 77.5348C12.8642 77.5348 12.8642 77.5348 12.8642 77.5348L12.8642 77.5348L12.8642 77.5348L12.8642 77.5348L12.8642 77.5348Z" fill="#2B0057" stroke="white" stroke-width="3" stroke-linejoin="round"/>
<path d="M36.8248 36.9942C36.8839 37.0522 36.9477 37.1052 37.0155 37.1527L41.9304 40.5942C42.5696 41.0418 43.4453 40.9245 43.9442 40.3244C44.4431 39.7244 44.3986 38.8421 43.8418 38.2953C43.1382 37.6042 42.4002 36.9866 41.6274 36.4451L41.6271 36.4449L36.7125 33.0037L36.7122 33.0034C36.0336 32.5283 35.0984 32.6932 34.6232 33.3717C34.148 34.0501 34.3127 34.9854 34.9911 35.4607C34.9912 35.4608 34.9913 35.4608 34.9914 35.4609C35.6208 35.9018 36.2321 36.412 36.8248 36.9942Z" fill="#2B0057" stroke="white" stroke-width="3" stroke-linejoin="round"/>
<path d="M14.6442 72.6953C14.3921 72.5187 14.0917 72.424 13.7839 72.424C11.5544 72.424 10.2884 72.0685 9.67109 71.6366C9.671 71.6366 9.67091 71.6365 9.67082 71.6364C8.99216 71.1615 8.05696 71.3265 7.58191 72.0051C7.10685 72.6837 7.27181 73.619 7.95037 74.0941L7.95064 74.0943L12.8653 77.5355L12.8656 77.5357C14.2651 78.5153 16.3145 78.8655 18.6988 78.8655C19.3534 78.8655 19.9325 78.4409 20.1294 77.8165C20.3262 77.1921 20.0954 76.5122 19.5591 76.1367L14.6442 72.6953Z" fill="#2B0057" stroke="white" stroke-width="3" stroke-linejoin="round"/>
<path d="M42.6974 24.4212L42.7093 24.4295C42.7094 24.4295 42.7095 24.4296 42.7096 24.4297C43.9286 25.2837 45.1136 26.2588 46.2641 27.357C46.3189 27.4093 46.3775 27.4573 46.4395 27.5007L51.3544 30.9422C51.997 31.3921 52.8777 31.271 53.375 30.6642C53.8722 30.0575 53.8179 29.1701 53.2505 28.6284C51.993 27.4281 50.6873 26.3529 49.3328 25.405C49.3327 25.4049 49.3326 25.4048 49.3325 25.4047L44.4306 21.9725L44.4303 21.9722C44.4302 21.9721 44.4301 21.972 44.4299 21.9719L44.4175 21.9633L44.4175 21.9633C43.74 21.4992 42.8136 21.6662 42.3413 22.3404C41.8689 23.015 42.029 23.9433 42.6975 24.4211L42.6974 24.4212Z" fill="#2B0057" stroke="white" stroke-width="3" stroke-linejoin="round"/>
<path d="M20.5479 58.972C19.8932 58.972 19.3141 59.3966 19.1173 60.0209C18.9204 60.6453 19.1512 61.3252 19.6875 61.7007L24.6024 65.1422C24.8546 65.3187 25.1549 65.4134 25.4628 65.4134H32.8348C33.4894 65.4134 34.0685 64.9889 34.2653 64.3645C34.4622 63.7401 34.2314 63.0602 33.6951 62.6847L28.7802 59.2433C28.5281 59.0667 28.2277 58.972 27.9199 58.972H20.5479Z" fill="#2B0057" stroke="white" stroke-width="3" stroke-linejoin="round"/>
<path d="M40.7079 46.184C40.7079 46.6734 40.9466 47.132 41.3475 47.4127L46.2624 50.8542C46.7206 51.175 47.3192 51.2143 47.8154 50.956C48.3115 50.6977 48.6228 50.1848 48.6228 49.6255C48.6228 45.1243 47.0199 41.3058 43.8224 38.2765C43.7688 38.2258 43.7116 38.1791 43.6511 38.1367L38.7362 34.6953C38.0927 34.2447 37.2106 34.3669 36.7139 34.9754C36.2171 35.584 36.274 36.4727 36.8442 37.0129C39.4227 39.4557 40.7079 42.4772 40.7079 46.184Z" fill="#2B0057" stroke="white" stroke-width="3" stroke-linejoin="round"/>
<path d="M28.5522 72.6953C28.3001 72.5187 27.9997 72.424 27.6918 72.424H13.7838C13.1292 72.424 12.5501 72.8486 12.3533 73.473C12.1564 74.0973 12.3872 74.7772 12.9235 75.1527L17.8384 78.5942C18.0906 78.7708 18.3909 78.8655 18.6988 78.8655H32.6068C33.2614 78.8655 33.8405 78.4409 34.0373 77.8165C34.2342 77.1922 34.0034 76.5122 33.4671 76.1367L28.5522 72.6953Z" fill="#2B0057" stroke="white" stroke-width="3" stroke-linejoin="round"/>
<path d="M27.9199 58.972C27.2652 58.972 26.6861 59.3966 26.4893 60.021C26.2924 60.6453 26.5232 61.3253 27.0595 61.7008L31.9744 65.1422C32.2266 65.3188 32.5269 65.4135 32.8348 65.4135C36.8928 65.4135 40.5389 63.9057 43.7266 60.9928C44.0627 60.6857 44.2411 60.2427 44.2116 59.7884C44.1822 59.3342 43.948 58.9179 43.5751 58.6568L38.6602 55.2153C38.0847 54.8123 37.3066 54.8628 36.788 55.3367C34.0984 57.7945 31.1579 58.972 27.9199 58.972Z" fill="#2B0057" stroke="white" stroke-width="3" stroke-linejoin="round"/>
<path d="M36.7777 55.3462C36.4464 55.6547 36.2721 56.0964 36.3035 56.5481C36.3349 56.9997 36.5686 57.4131 36.9395 57.6727L41.8544 61.1142C42.4342 61.5202 43.2189 61.4656 43.7369 60.9833C46.9879 57.9565 48.6228 54.1354 48.6228 49.6255C48.6228 49.1361 48.384 48.6775 47.9831 48.3968L43.0682 44.9553C42.61 44.6345 42.0114 44.5952 41.5152 44.8535C41.0191 45.1118 40.7079 45.6247 40.7079 46.184C40.7079 49.8821 39.4041 52.901 36.7777 55.3462Z" fill="#2B0057" stroke="white" stroke-width="3" stroke-linejoin="round"/>
<path d="M48.1602 25.0432C47.5165 24.5925 46.634 24.715 46.1374 25.324C45.6408 25.933 45.6983 26.8221 46.2693 27.3619C51.5394 32.3445 54.1599 38.4594 54.1599 45.804C54.1599 46.2934 54.3986 46.752 54.7995 47.0327L59.7144 50.4742C60.1726 50.795 60.7713 50.8342 61.2674 50.5759C61.7636 50.3177 62.0748 49.8048 62.0748 49.2454C62.0748 41.086 59.1219 34.1795 53.2453 28.6235C53.192 28.5731 53.1352 28.5267 53.0751 28.4847L48.1602 25.0432Z" fill="#2B0057" stroke="white" stroke-width="3" stroke-linejoin="round"/>
<path d="M48.3122 64.4113C47.7116 63.9907 46.8951 64.066 46.3814 64.5892C41.2427 69.824 35.042 72.424 27.6919 72.424C27.0372 72.424 26.4582 72.8486 26.2613 73.473C26.0644 74.0973 26.2952 74.7772 26.8315 75.1527L31.7464 78.5942C31.9986 78.7708 32.2989 78.8655 32.6068 78.8655C40.7606 78.8655 47.7333 75.9428 53.4372 70.1323C53.7461 69.8176 53.9009 69.3829 53.8605 68.9438C53.82 68.5047 53.5884 68.1057 53.2271 67.8527L48.3122 64.4113Z" fill="#2B0057" stroke="white" stroke-width="3" stroke-linejoin="round"/>
<path d="M56.5202 44.5753C56.062 44.2545 55.4634 44.2152 54.9672 44.4735C54.4711 44.7318 54.1598 45.2447 54.1598 45.804C54.1598 53.1057 51.583 59.3395 46.3863 64.5843C46.0751 64.8984 45.9183 65.3338 45.9579 65.7742C45.9974 66.2146 46.2293 66.6151 46.5915 66.8687L51.5064 70.3102C52.1048 70.7292 52.9181 70.6562 53.4323 70.1372C59.1796 64.3367 62.0748 57.3464 62.0748 49.2455C62.0748 48.7561 61.836 48.2975 61.4351 48.0167L56.5202 44.5753Z" fill="#2B0057" stroke="white" stroke-width="3" stroke-linejoin="round"/>
<path d="M13.8598 18.216L27.9198 18.292C35.2665 18.292 41.7265 20.952 47.2998 26.272C52.8732 31.5413 55.6598 38.052 55.6598 45.804C55.6598 53.5053 52.9238 60.1173 47.4519 65.64C42.0305 71.1627 35.4438 73.924 27.6918 73.924H13.7838C10.6932 73.924 8.76785 73.2907 8.00785 72.024C7.39985 70.96 7.09585 69.3387 7.09585 67.16V24.904C7.09585 23.688 7.12118 22.8013 7.17185 22.244C7.27318 21.6867 7.52651 21.028 7.93185 20.268C8.64118 18.9 10.6172 18.216 13.8598 18.216ZM27.9198 60.472C31.5678 60.472 34.8612 59.1293 37.7998 56.444C40.7385 53.708 42.2078 50.288 42.2078 46.184C42.2078 42.08 40.7638 38.66 37.8758 35.924C35.0385 33.1373 31.6945 31.744 27.8438 31.744H20.5478V60.472H27.9198Z" fill="#2B0057"/>
<path d="M13.8598 18.216L13.8761 15.216L13.868 15.216H13.8598V18.216ZM27.9198 18.292L27.9036 21.292L27.9117 21.292H27.9198V18.292ZM47.2998 26.272L45.2284 28.4421L45.2336 28.447L45.2388 28.4519L47.2998 26.272ZM47.4519 65.64L45.3208 63.5285L45.311 63.5384L47.4519 65.64ZM8.00785 72.024L5.40312 73.5124L5.41895 73.5401L5.43537 73.5675L8.00785 72.024ZM7.17185 22.244L4.22024 21.7073L4.19629 21.8391L4.18417 21.9724L7.17185 22.244ZM7.93185 20.268L10.5789 21.6798L10.5871 21.6644L10.5951 21.6489L7.93185 20.268ZM37.7998 56.444L39.8236 58.6586L39.8339 58.6492L39.8441 58.6397L37.7998 56.444ZM37.8758 35.924L35.7737 38.0643L35.793 38.0833L35.8126 38.1019L37.8758 35.924ZM20.5478 31.744V28.744H17.5478V31.744H20.5478ZM20.5478 60.472H17.5478V63.472H20.5478V60.472ZM13.8436 21.216L27.9036 21.292L27.9361 15.292L13.8761 15.216L13.8436 21.216ZM27.9198 21.292C34.4544 21.292 40.1831 23.6261 45.2284 28.4421L49.3713 24.1019C43.2699 18.2779 36.0786 15.292 27.9198 15.292V21.292ZM45.2388 28.4519C50.2056 33.1478 52.6598 38.8668 52.6598 45.804H58.6598C58.6598 37.2372 55.5408 29.9349 49.3609 24.0921L45.2388 28.4519ZM52.6598 45.804C52.6598 52.7061 50.2421 58.5616 45.3208 63.5285L49.5829 67.7515C55.6056 61.6731 58.6598 54.3046 58.6598 45.804H52.6598ZM45.311 63.5384C40.4548 68.4853 34.6401 70.924 27.6918 70.924V76.924C36.2476 76.924 43.6062 73.84 49.5927 67.7416L45.311 63.5384ZM27.6918 70.924H13.7838V76.924H27.6918V70.924ZM13.7838 70.924C12.4081 70.924 11.5046 70.7786 10.9593 70.5992C10.4259 70.4238 10.4718 70.2997 10.5803 70.4805L5.43537 73.5675C6.30387 75.015 7.69241 75.8409 9.08442 76.2988C10.4644 76.7527 12.0689 76.924 13.7838 76.924V70.924ZM10.6126 70.5356C10.3946 70.1541 10.0958 69.1664 10.0958 67.16H4.09585C4.09585 69.5109 4.40511 71.7659 5.40312 73.5124L10.6126 70.5356ZM10.0958 67.16V24.904H4.09585V67.16H10.0958ZM10.0958 24.904C10.0958 23.6991 10.122 22.9281 10.1595 22.5156L4.18417 21.9724C4.12034 22.6745 4.09585 23.6769 4.09585 24.904H10.0958ZM10.1235 22.7807C10.1483 22.6443 10.252 22.2927 10.5789 21.6798L5.28479 18.8562C4.80104 19.7633 4.39811 20.729 4.22024 21.7073L10.1235 22.7807ZM10.5951 21.6489C10.4855 21.8603 10.4013 21.746 10.9272 21.564C11.4755 21.3742 12.4095 21.216 13.8598 21.216V15.216C12.0676 15.216 10.3922 15.3998 8.96452 15.894C7.51436 16.396 6.0875 17.3077 5.26858 18.887L10.5951 21.6489ZM27.9198 63.472C32.3878 63.472 36.3868 61.7991 39.8236 58.6586L35.7761 54.2294C33.3356 56.4595 30.7478 57.472 27.9198 57.472V63.472ZM39.8441 58.6397C43.4074 55.3221 45.2078 51.0999 45.2078 46.184H39.2078C39.2078 49.4761 38.0696 52.0939 35.7556 54.2483L39.8441 58.6397ZM45.2078 46.184C45.2078 41.2856 43.4461 37.0686 39.9391 33.7461L35.8126 38.1019C38.0816 40.2514 39.2078 42.8744 39.2078 46.184H45.2078ZM39.978 33.7837C36.6002 30.4662 32.5091 28.744 27.8438 28.744V34.744C30.88 34.744 33.4769 35.8085 35.7737 38.0643L39.978 33.7837ZM27.8438 28.744H20.5478V34.744H27.8438V28.744ZM17.5478 31.744V60.472H23.5478V31.744H17.5478ZM20.5478 63.472H27.9198V57.472H20.5478V63.472Z" fill="white"/>
</g>
<defs>
<filter id="filter0_d_8_18903" x="0.0958557" y="15.216" width="67.4789" height="73.1495" filterUnits="userSpaceOnUse" color-interpolation-filters="sRGB">
<feFlood flood-opacity="0" result="BackgroundImageFix"/>
<feColorMatrix in="SourceAlpha" type="matrix" values="0 0 0 0 0 0 0 0 0 0 0 0 0 0 0 0 0 0 127 0" result="hardAlpha"/>
<feOffset dy="4"/>
<feGaussianBlur stdDeviation="2"/>
<feComposite in2="hardAlpha" operator="out"/>
<feColorMatrix type="matrix" values="0 0 0 0 0 0 0 0 0 0 0 0 0 0 0 0 0 0 0.25 0"/>
<feBlend mode="normal" in2="BackgroundImageFix" result="effect1_dropShadow_8_18903"/>
<feBlend mode="normal" in="SourceGraphic" in2="effect1_dropShadow_8_18903" result="shape"/>
</filter>
</defs>
</svg>
