<svg width="69" height="92" viewBox="0 0 69 92" fill="none" xmlns="http://www.w3.org/2000/svg">
<g filter="url(#filter0_d_7_16128)">
<path d="M58.7053 26.1189C53.1565 21.9973 47.1994 19.896 40.8641 19.896C32.7699 19.896 25.7138 22.7602 19.7665 28.4409C13.7839 34.1043 10.7881 41.2154 10.7881 49.668C10.7881 58.1112 13.7248 65.3783 19.5733 71.3863L19.5779 71.391C25.4165 77.3357 32.3568 80.352 40.3321 80.352C49.089 80.352 55.9289 78.0817 60.5632 73.2819C62.1784 71.609 63.1121 69.7083 63.1121 67.604V50.884C63.1121 48.9357 62.8585 47.2406 62.1969 45.9627C61.9704 45.4845 61.6574 45.0639 61.2714 44.704L60.2486 45.8013L61.2714 44.704C60.0176 43.5353 58.0859 43.0823 55.8916 43.001L55.8639 43H55.8361H42.4601C40.8121 43 39.3386 43.2437 38.1413 43.8423C37.0822 44.3719 36.4311 45.312 36.0884 46.4086L36.0754 46.45L36.0649 46.4922C35.8197 47.4729 35.7161 48.7005 35.7161 50.124C35.7161 51.5023 35.8205 52.7023 36.0649 53.6798L36.0677 53.6911L36.0708 53.7025C36.2864 54.511 36.6955 55.2254 37.3098 55.7979L38.3325 54.7006L37.3098 55.798C37.5299 56.003 37.7697 56.1838 38.026 56.3415C39.0619 56.979 40.5408 57.172 42.1561 57.172H46.6601V62.9138C44.8672 63.5145 42.864 63.824 40.6361 63.824C37.233 63.824 34.1585 62.4992 31.3651 59.7076C28.6056 56.9 27.2401 53.5559 27.2401 49.592C27.2401 45.5635 28.5867 42.4392 31.2265 40.0678L31.2266 40.0679L31.2369 40.0585C33.9655 37.561 37.0293 36.348 40.4841 36.348C43.172 36.348 45.4057 36.9931 47.2521 38.224L47.2625 38.231L47.273 38.2377C48.3735 38.9452 49.3631 39.502 50.232 39.8866C51.0729 40.2588 51.9276 40.528 52.7201 40.528C53.9578 40.528 55.1215 40.015 56.1824 39.223C57.2427 38.4315 58.2868 37.2989 59.3243 35.889L59.3292 35.8822L59.3341 35.8754C60.5755 34.1483 61.3641 32.4182 61.3641 30.744C61.3641 29.1876 60.6482 27.8496 59.4774 26.7584C59.2384 26.5356 58.9803 26.3226 58.7053 26.1189ZM58.7053 26.1189C58.7057 26.1192 58.7062 26.1195 58.7066 26.1199L57.8121 27.324L58.705 26.1186C58.7051 26.1187 58.7052 26.1188 58.7053 26.1189Z" fill="#2B0057" stroke="white" stroke-width="3"/>
<path d="M17.435 24.3389C16.8557 23.7987 15.9562 23.8021 15.3809 24.3465C9.39658 30.0103 6.39999 37.1223 6.39999 45.576C6.39999 45.992 6.57275 46.3893 6.877 46.673L11.2651 50.765C11.7019 51.1723 12.3386 51.2817 12.8862 51.0436C13.4339 50.8054 13.7881 50.2651 13.7881 49.668C13.7881 42.0097 16.4662 35.695 21.8312 30.6174C22.1319 30.3328 22.3016 29.9365 22.3001 29.5224C22.2986 29.1084 22.1259 28.7133 21.8231 28.4309L17.435 24.3389Z" fill="#2B0057" stroke="white" stroke-width="3" stroke-linejoin="round"/>
<path d="M37.499 16.207C37.2213 15.948 36.8557 15.804 36.476 15.804C28.3806 15.804 21.3236 18.6691 15.3758 24.3514C15.0773 24.6366 14.9095 25.0322 14.912 25.445C14.9145 25.8579 15.087 26.2515 15.389 26.533L19.7771 30.625C20.3584 31.1671 21.2616 31.1616 21.8363 30.6126C27.2378 25.4522 33.5569 22.896 40.8641 22.896C41.4803 22.896 42.0339 22.5191 42.2597 21.9457C42.4856 21.3724 42.3378 20.7192 41.8871 20.2989L37.499 16.207Z" fill="#2B0057" stroke="white" stroke-width="3" stroke-linejoin="round"/>
<path d="M19.852 45.5C19.852 45.916 20.0247 46.3133 20.329 46.597L24.7171 50.689C25.1539 51.0963 25.7906 51.2057 26.3382 50.9676C26.8859 50.7294 27.2401 50.1892 27.2401 49.592C27.2401 45.5635 28.5867 42.4392 31.2265 40.0679C31.5396 39.7866 31.7201 39.3868 31.724 38.9659C31.728 38.5451 31.5549 38.142 31.2471 37.8549L26.859 33.763C26.2907 33.233 25.4117 33.2248 24.8336 33.7441C21.4947 36.7434 19.852 40.7125 19.852 45.5Z" fill="#2B0057" stroke="white" stroke-width="3" stroke-linejoin="round"/>
<path d="M24.8233 33.7535C24.5146 34.036 24.338 34.4346 24.336 34.853C24.3341 35.2714 24.507 35.6716 24.813 35.957L29.2011 40.049C29.7734 40.5826 30.6597 40.5868 31.2369 40.0585C33.9655 37.561 37.0294 36.348 40.4841 36.348C41.1004 36.348 41.6539 35.9711 41.8797 35.3977C42.1056 34.8244 41.9578 34.1712 41.5071 33.7509L37.119 29.659C36.8413 29.4 36.4757 29.256 36.096 29.256C31.8494 29.256 28.0732 30.7789 24.8233 33.7535Z" fill="#2B0057" stroke="white" stroke-width="3" stroke-linejoin="round"/>
<path d="M54.447 22.135C54.4062 22.0969 54.3633 22.0611 54.3185 22.0279C48.7693 17.9057 42.8118 15.804 36.476 15.804C35.8597 15.804 35.3062 16.1809 35.0804 16.7542C34.8545 17.3276 35.0023 17.9807 35.453 18.401L39.8411 22.493C40.1188 22.752 40.4844 22.896 40.8641 22.896C46.4856 22.896 51.8267 24.7463 56.9176 28.5281C57.5565 29.0027 58.4549 28.8957 58.9645 28.2842C59.474 27.6727 59.4172 26.7698 58.8351 26.2269L54.447 22.135Z" fill="#2B0057" stroke="white" stroke-width="3" stroke-linejoin="round"/>
<path d="M8.92299 44.479C8.48624 44.0717 7.84952 43.9623 7.30187 44.2004C6.75422 44.4385 6.39999 44.9788 6.39999 45.576C6.39999 54.0192 9.3367 61.2863 15.1852 67.2943C15.202 67.3116 15.2193 67.3285 15.237 67.345L19.6251 71.437C20.2207 71.9924 21.1505 71.9711 21.7201 71.3892C22.2897 70.8073 22.2909 69.8772 21.7229 69.2937C16.4247 63.851 13.7881 57.3368 13.7881 49.668C13.7881 49.252 13.6154 48.8547 13.3111 48.5709L8.92299 44.479Z" fill="#2B0057" stroke="white" stroke-width="3" stroke-linejoin="round"/>
<path d="M36.096 29.256C35.4798 29.256 34.9262 29.6329 34.7004 30.2062C34.4745 30.7796 34.6223 31.4327 35.073 31.853L39.4611 35.945C39.7388 36.204 40.1044 36.348 40.4841 36.348C43.172 36.348 45.4057 36.9931 47.2521 38.224C47.9021 38.6574 48.7759 38.5193 49.2606 37.9066C49.7452 37.2939 49.6785 36.4117 49.1071 35.8789L44.719 31.787C44.6596 31.7315 44.5957 31.681 44.5281 31.6359C42.1184 30.0295 39.2854 29.256 36.096 29.256Z" fill="#2B0057" stroke="white" stroke-width="3" stroke-linejoin="round"/>
<path d="M24.8426 57.7239C24.8577 57.7393 24.8732 57.7543 24.889 57.769L29.2771 61.861C29.8738 62.4174 30.8057 62.3949 31.3748 61.8104C31.9439 61.2259 31.9416 60.2937 31.3695 59.7121C28.607 56.9036 27.2401 53.5581 27.2401 49.592C27.2401 49.176 27.0674 48.7787 26.7631 48.495L22.375 44.403C21.9382 43.9957 21.3015 43.8863 20.7539 44.1244C20.2062 44.3625 19.852 44.9028 19.852 45.5C19.852 50.2486 21.5251 54.351 24.8426 57.7239Z" fill="#2B0057" stroke="white" stroke-width="3" stroke-linejoin="round"/>
<path d="M35.447 39.9949C34.9888 39.5677 34.3135 39.4702 33.7532 39.7503C32.6941 40.2799 32.043 41.22 31.7003 42.3166C31.5282 42.8671 31.6871 43.4676 32.109 43.861L36.4971 47.953C36.8742 48.3046 37.4054 48.438 37.9039 48.3061C38.4023 48.1741 38.798 47.7955 38.9518 47.3034C39.1158 46.7787 39.326 46.6041 39.4829 46.5256C39.9225 46.3058 40.2265 45.8847 40.2967 45.3984C40.3669 44.912 40.1945 44.4221 39.8351 44.0869L35.447 39.9949Z" fill="#2B0057" stroke="white" stroke-width="3" stroke-linejoin="round"/>
<path d="M39.095 39.311C38.8173 39.052 38.4517 38.908 38.072 38.908C36.424 38.908 34.9504 39.1517 33.7532 39.7503C33.3136 39.9701 33.0096 40.3912 32.9394 40.8776C32.8691 41.364 33.0416 41.8539 33.401 42.189L37.7891 46.281C38.2472 46.7082 38.9226 46.8058 39.4829 46.5256C40.1097 46.2123 41.0681 46 42.4601 46C43.0763 46 43.6299 45.6231 43.8557 45.0497C44.0816 44.4764 43.9338 43.8232 43.4831 43.4029L39.095 39.311Z" fill="#2B0057" stroke="white" stroke-width="3" stroke-linejoin="round"/>
<path d="M34.155 41.6669C33.7666 41.3048 33.2157 41.1749 32.7064 41.3256C32.1972 41.4763 31.8056 41.885 31.6768 42.4002C31.4316 43.3809 31.328 44.6085 31.328 46.032C31.328 46.448 31.5008 46.8453 31.805 47.129L36.1931 51.221C36.6299 51.6283 37.2666 51.7377 37.8142 51.4996C38.3619 51.2614 38.7161 50.7211 38.7161 50.124C38.7161 48.8115 38.8152 47.8604 38.9753 47.2198C39.1077 46.6905 38.9422 46.131 38.5431 45.7589L34.155 41.6669Z" fill="#2B0057" stroke="white" stroke-width="3" stroke-linejoin="round"/>
<path d="M55.0896 22.6667L55.0893 22.6664C54.8502 22.4435 54.592 22.2305 54.3169 22.0267C53.6776 21.5531 52.7798 21.661 52.271 22.2725C51.7621 22.8841 51.8192 23.7865 52.401 24.329L56.7891 28.421C56.8304 28.4595 56.8739 28.4957 56.9193 28.5293C57.1125 28.6724 57.2827 28.8138 57.4317 28.9527C57.4318 28.9528 57.4319 28.9529 57.432 28.953C58.0379 29.5178 58.987 29.4844 59.5519 28.8785C60.1167 28.2727 60.0835 27.3236 59.4777 26.7587L59.4774 26.7584C59.4773 26.7583 59.4772 26.7582 59.4771 26.7581L55.0896 22.6667Z" fill="#2B0057" stroke="white" stroke-width="3" stroke-linejoin="round"/>
<path d="M33.851 44.935C33.4143 44.5277 32.7775 44.4183 32.2299 44.6564C31.6822 44.8945 31.328 45.4348 31.328 46.032C31.328 47.4103 31.4324 48.6103 31.6768 49.5878C31.747 49.8688 31.8972 50.1235 32.109 50.321L36.4971 54.413C36.9831 54.8662 37.7094 54.9456 38.2818 54.6082C38.8543 54.2707 39.1365 53.5968 38.9753 52.9522C38.8144 52.3083 38.7161 51.3804 38.7161 50.124C38.7161 49.708 38.5434 49.3107 38.2391 49.0269L33.851 44.935Z" fill="#2B0057" stroke="white" stroke-width="3" stroke-linejoin="round"/>
<path d="M44.5071 31.6222C43.854 31.2024 42.9884 31.3503 42.5118 31.9632C42.0352 32.5762 42.1051 33.4515 42.673 33.981L47.0611 38.073C47.1267 38.1342 47.1976 38.1893 47.273 38.2378C48.3734 38.9452 49.3631 39.5021 50.232 39.8866C51.0729 40.2588 51.9276 40.528 52.7201 40.528C53.3363 40.528 53.8899 40.1511 54.1157 39.5777C54.3416 39.0044 54.1938 38.3512 53.7431 37.931L49.355 33.839C49.0773 33.58 48.7117 33.436 48.332 33.436C48.1619 33.436 47.7625 33.3632 47.0581 33.0514C46.3816 32.7519 45.5347 32.2828 44.5071 31.6222Z" fill="#2B0057" stroke="white" stroke-width="3" stroke-linejoin="round"/>
<path d="M53.976 26.652C53.976 27.068 54.1488 27.4653 54.453 27.749L58.8411 31.841C59.2779 32.2483 59.9146 32.3577 60.4623 32.1196C61.0099 31.8814 61.3641 31.3411 61.3641 30.744C61.3641 29.1877 60.6484 27.8498 59.4777 26.7586C59.4777 26.7586 59.4776 26.7585 59.4775 26.7585C59.4775 26.7584 59.4775 26.7584 59.4774 26.7584L55.0922 22.6691L55.0919 22.6688C54.4861 22.1039 53.537 22.137 52.972 22.7427C52.407 23.3485 52.44 24.2975 53.0457 24.8626C53.0457 24.8627 53.0458 24.8628 53.0459 24.8629C53.7527 25.5224 53.976 26.1093 53.976 26.652Z" fill="#2B0057" stroke="white" stroke-width="3" stroke-linejoin="round"/>
<path d="M32.3602 47.9378C32.9337 47.5936 33.6658 47.6708 34.155 48.127L38.5431 52.219C38.7491 52.4111 38.8969 52.6573 38.9695 52.9295C39.0506 53.2339 39.1828 53.4423 39.3543 53.6025L32.3602 47.9378ZM32.3602 47.9378C31.7867 48.2819 31.5103 48.9642 31.6826 49.6105M32.3602 47.9378L31.6826 49.6105M31.6826 49.6105C31.8982 50.4189 32.3073 51.1332 32.9214 51.7057C32.9215 51.7058 32.9216 51.7059 32.9217 51.706L37.3081 55.7964L37.3084 55.7966C37.9142 56.3616 38.8633 56.3285 39.4283 55.7228M31.6826 49.6105L39.4283 55.7228M39.4283 55.7228C39.9933 55.117 39.9603 54.168 39.3547 53.6029M39.4283 55.7228L39.3547 53.6029M39.3547 53.6029C39.3546 53.6028 39.3545 53.6027 39.3544 53.6026L39.3547 53.6029Z" fill="#2B0057" stroke="white" stroke-width="3" stroke-linejoin="round"/>
<path d="M52.51 30.0325C52.0694 30.6454 52.153 31.4902 52.705 32.005L57.0931 36.097C57.4083 36.391 57.8348 36.5351 58.2637 36.4927C58.6926 36.4503 59.0826 36.2254 59.3341 35.8754C60.5755 34.1483 61.3641 32.4182 61.3641 30.744C61.3641 30.328 61.1914 29.9306 60.8871 29.6469L56.499 25.5549C56.0622 25.1477 55.4255 25.0383 54.8779 25.2764C54.3302 25.5145 53.976 26.0548 53.976 26.652C53.976 27.4098 53.5993 28.517 52.51 30.0325Z" fill="#2B0057" stroke="white" stroke-width="3" stroke-linejoin="round"/>
<path d="M34.9671 49.5113C34.3611 48.9466 33.412 48.9799 32.8472 49.5858C32.2823 50.1917 32.3156 51.1407 32.9214 51.7057L32.9217 51.7059L37.3095 55.7977L37.3098 55.7979C37.5298 56.003 37.7697 56.1838 38.026 56.3414C38.6824 56.7454 39.5381 56.5861 40.0053 55.973C40.4724 55.3599 40.3988 54.4926 39.8351 53.9669L35.447 49.8749C35.3742 49.8071 35.2949 49.7466 35.2101 49.6945C35.1142 49.6354 35.0344 49.574 34.9674 49.5116C34.9673 49.5115 34.9672 49.5114 34.9671 49.5113Z" fill="#2B0057" stroke="white" stroke-width="3" stroke-linejoin="round"/>
<path d="M48.332 33.436C47.7158 33.436 47.1622 33.8129 46.9364 34.3862C46.7105 34.9596 46.8583 35.6128 47.309 36.033L51.6971 40.125C51.9748 40.384 52.3404 40.528 52.7201 40.528C53.9578 40.528 55.1215 40.015 56.1824 39.223C57.2427 38.4316 58.2868 37.2989 59.3243 35.889C59.7754 35.2759 59.6958 34.4221 59.1391 33.9029L54.751 29.811C54.4379 29.519 54.015 29.3747 53.5888 29.4145C53.1625 29.4542 52.7736 29.6742 52.5198 30.019C51.5813 31.2944 50.7381 32.1757 49.9997 32.727C49.262 33.2777 48.7157 33.436 48.332 33.436Z" fill="#2B0057" stroke="white" stroke-width="3" stroke-linejoin="round"/>
<path d="M52.471 39.311C52.1933 39.052 51.8277 38.908 51.448 38.908H38.072C37.4558 38.908 36.9022 39.2849 36.6764 39.8582C36.4505 40.4316 36.5983 41.0847 37.049 41.505L41.4371 45.597C41.7148 45.856 42.0804 46 42.4601 46H55.8361C56.4524 46 57.0059 45.6231 57.2317 45.0497C57.4576 44.4764 57.3098 43.8232 56.8591 43.4029L52.471 39.311Z" fill="#2B0057" stroke="white" stroke-width="3" stroke-linejoin="round"/>
<path d="M35.2101 49.6945C34.5537 49.2905 33.6979 49.4498 33.2308 50.0629C32.7637 50.676 32.8373 51.5434 33.401 52.069L37.7891 56.161C37.8619 56.2289 37.9412 56.2893 38.026 56.3415C39.0619 56.979 40.5408 57.172 42.1561 57.172C42.7723 57.172 43.3259 56.7951 43.5517 56.2217C43.7776 55.6484 43.6298 54.9952 43.1791 54.5749L38.791 50.483C38.5133 50.224 38.1477 50.08 37.768 50.08C36.2419 50.08 35.4915 49.8677 35.2101 49.6945Z" fill="#2B0057" stroke="white" stroke-width="3" stroke-linejoin="round"/>
<path d="M26.935 55.575C26.3366 55.0169 25.4014 55.0414 24.833 55.63C24.2646 56.2186 24.2728 57.1541 24.8513 57.7327C25.1974 58.0787 25.5497 58.4078 25.9085 58.7197L29.2583 61.8435C32.5395 65.1167 36.3479 66.824 40.6361 66.824C41.2523 66.824 41.8059 66.4471 42.0317 65.8737C42.2576 65.3004 42.1098 64.6472 41.6591 64.227L37.271 60.135C36.9933 59.876 36.6277 59.732 36.248 59.732C33.2108 59.732 30.4481 58.6778 27.9147 56.4885L26.935 55.575Z" fill="#2B0057" stroke="white" stroke-width="3" stroke-linejoin="round"/>
<path d="M37.768 50.08C37.1518 50.08 36.5982 50.4569 36.3724 51.0302C36.1465 51.6036 36.2943 52.2567 36.745 52.677L41.1331 56.769C41.4108 57.028 41.7764 57.172 42.1561 57.172H48.1601C48.7764 57.172 49.3299 56.7951 49.5558 56.2217C49.7816 55.6484 49.6338 54.9952 49.1831 54.5749L44.795 50.483C44.5173 50.224 44.1517 50.08 43.772 50.08H37.768Z" fill="#2B0057" stroke="white" stroke-width="3" stroke-linejoin="round"/>
<path d="M36.967 73.663C36.6893 73.404 36.3237 73.26 35.944 73.26C29.7258 73.26 24.2402 71.2349 19.4293 67.1525L17.283 65.151C16.6865 64.5947 15.7549 64.617 15.1857 65.2011C14.6165 65.7853 14.6183 66.7172 15.1898 67.299C15.9196 68.042 16.6674 68.7403 17.4335 69.3933L19.6013 71.4148C25.435 77.3437 32.3675 80.352 40.3321 80.352C40.9484 80.352 41.5019 79.9751 41.7278 79.4017C41.9536 78.8284 41.8058 78.1752 41.3551 77.7549L36.967 73.663Z" fill="#2B0057" stroke="white" stroke-width="3" stroke-linejoin="round"/>
<path d="M56.8835 40.6123L56.8833 40.6121C55.6295 39.4434 53.6977 38.9903 51.5035 38.909C50.8776 38.8858 50.3031 39.2541 50.0628 39.8325C49.8225 40.4109 49.9669 41.0778 50.425 41.505L54.8131 45.597C55.0768 45.8429 55.4203 45.9856 55.7806 45.999C57.7744 46.0728 58.7843 46.4871 59.2256 46.8983C59.2257 46.8984 59.2257 46.8984 59.2258 46.8985C59.8317 47.4633 60.7808 47.4301 61.3457 46.8242C61.9106 46.2183 61.8774 45.2692 61.2716 44.7042L61.2714 44.7041L56.8835 40.6123Z" fill="#2B0057" stroke="white" stroke-width="3" stroke-linejoin="round"/>
<path d="M55.1021 43.1646C55.1836 43.3412 55.2987 43.5003 55.441 43.633L59.8291 47.725C60.3535 48.214 61.1506 48.2635 61.7314 47.8432C62.3123 47.4229 62.5145 46.6504 62.2141 45.9994C61.9864 45.5061 61.6673 45.0732 61.2716 44.7042C61.2715 44.7042 61.2715 44.7041 61.2714 44.7041L56.8845 40.6132L56.8843 40.613C56.2785 40.0481 55.3294 40.0812 54.7644 40.687C54.1994 41.2927 54.2324 42.2418 54.8381 42.8069C54.8382 42.807 54.8382 42.807 54.8383 42.8071C54.9616 42.9221 55.0446 43.0401 55.1021 43.1646Z" fill="#2B0057" stroke="white" stroke-width="3" stroke-linejoin="round"/>
<path d="M44.795 50.483C44.3583 50.0757 43.7215 49.9663 43.1739 50.2044C42.6262 50.4425 42.272 50.9828 42.272 51.58V59.864C42.272 60.28 42.4448 60.6773 42.749 60.961L47.1371 65.053C47.5739 65.4603 48.2106 65.5697 48.7582 65.3316C49.3059 65.0934 49.6601 64.5532 49.6601 63.956V55.672C49.6601 55.256 49.4874 54.8587 49.1831 54.5749L44.795 50.483Z" fill="#2B0057" stroke="white" stroke-width="3" stroke-linejoin="round"/>
<path d="M44.795 58.767C44.3669 58.3678 43.7458 58.254 43.204 58.4757C41.181 59.3033 38.8701 59.732 36.248 59.732C35.6318 59.732 35.0782 60.1089 34.8524 60.6822C34.6265 61.2556 34.7743 61.9087 35.225 62.329L39.6131 66.421C39.8908 66.68 40.2564 66.824 40.6361 66.824C43.5873 66.824 46.2924 66.3407 48.7281 65.3443C49.2014 65.1507 49.5435 64.7292 49.6356 64.2261C49.7277 63.7231 49.5571 63.2077 49.1831 62.8589L44.795 58.767Z" fill="#2B0057" stroke="white" stroke-width="3" stroke-linejoin="round"/>
<path d="M55.724 46.792C55.724 47.208 55.8967 47.6053 56.201 47.889L60.5891 51.981C61.0259 52.3883 61.6626 52.4977 62.2102 52.2596C62.7579 52.0214 63.1121 51.4811 63.1121 50.884C63.1121 48.9187 62.854 47.211 62.1795 45.9294C62.1011 45.7804 61.9982 45.6457 61.8751 45.5309L57.487 41.4389C56.9519 40.9399 56.1348 40.8998 55.5534 41.344C54.9719 41.7882 54.7958 42.5871 55.1366 43.2346C55.4754 43.8783 55.724 45.0079 55.724 46.792Z" fill="#2B0057" stroke="white" stroke-width="3" stroke-linejoin="round"/>
<path d="M55.724 63.512C55.724 63.928 55.8968 64.3253 56.201 64.609L60.5891 68.701C61.0259 69.1083 61.6626 69.2177 62.2102 68.9796C62.7579 68.7414 63.1121 68.2012 63.1121 67.604V50.884C63.1121 50.468 62.9394 50.0707 62.6351 49.787L58.247 45.695C57.8102 45.2877 57.1735 45.1783 56.6259 45.4164C56.0782 45.6545 55.724 46.1948 55.724 46.792V63.512Z" fill="#2B0057" stroke="white" stroke-width="3" stroke-linejoin="round"/>
<path d="M35.944 73.26C35.3278 73.26 34.7742 73.6369 34.5484 74.2102C34.3225 74.7836 34.4703 75.4367 34.921 75.857L39.3091 79.949C39.5868 80.208 39.9524 80.352 40.3321 80.352C49.089 80.352 55.9289 78.0817 60.5632 73.2819C60.8427 72.9924 60.9942 72.6028 60.9836 72.2006C60.9731 71.7984 60.8014 71.4173 60.5071 71.1429L56.119 67.0509C55.5206 66.4929 54.5853 66.5174 54.0169 67.1061C50.1392 71.1223 44.2111 73.26 35.944 73.26Z" fill="#2B0057" stroke="white" stroke-width="3" stroke-linejoin="round"/>
<path d="M54.0169 67.1061C53.7374 67.3955 53.586 67.7851 53.5965 68.1873C53.6071 68.5895 53.7788 68.9706 54.073 69.245L58.4611 73.337C59.0596 73.8951 59.9949 73.8705 60.5632 73.2819C62.1784 71.609 63.1121 69.7083 63.1121 67.604C63.1121 67.188 62.9394 66.7907 62.6351 66.507L58.247 62.415C57.8103 62.0077 57.1735 61.8983 56.6259 62.1364C56.0782 62.3745 55.724 62.9148 55.724 63.512C55.724 64.6503 55.2391 65.8403 54.0169 67.1061Z" fill="#2B0057" stroke="white" stroke-width="3" stroke-linejoin="round"/>
<path d="M38.072 40.408H51.448C54.184 40.5093 55.856 41.2187 56.464 42.536C56.9707 43.4987 57.224 44.9173 57.224 46.792V63.512C57.224 65.1333 56.5147 66.6787 55.096 68.148C50.84 72.556 44.456 74.76 35.944 74.76C28.3947 74.76 21.8333 71.9227 16.26 66.248C10.6867 60.5227 7.9 53.632 7.9 45.576C7.9 37.52 10.7373 30.8067 16.412 25.436C22.0867 20.0147 28.7747 17.304 36.476 17.304C42.4547 17.304 48.104 19.28 53.424 23.232C54.792 24.2453 55.476 25.3853 55.476 26.652C55.476 27.868 54.8933 29.2867 53.728 30.908C51.752 33.5933 49.9533 34.936 48.332 34.936C47.3693 34.936 45.824 34.252 43.696 32.884C41.568 31.4653 39.0347 30.756 36.096 30.756C32.2453 30.756 28.8253 32.124 25.836 34.86C22.8467 37.5453 21.352 41.092 21.352 45.5C21.352 49.8573 22.872 53.5813 25.912 56.672C28.952 59.712 32.3973 61.232 36.248 61.232C39.0347 61.232 41.5427 60.776 43.772 59.864V51.58H37.768C36.1973 51.58 35.0827 51.3773 34.424 50.972C33.7653 50.5667 33.3347 49.984 33.132 49.224C32.9293 48.4133 32.828 47.3493 32.828 46.032C32.828 44.664 32.9293 43.5747 33.132 42.764C33.3853 41.9533 33.816 41.396 34.424 41.092C35.336 40.636 36.552 40.408 38.072 40.408Z" fill="#2B0057"/>
<path d="M51.448 40.408L51.559 37.4101L51.5035 37.408H51.448V40.408ZM56.464 42.536L53.7401 43.7932L53.7729 43.8641L53.8092 43.9332L56.464 42.536ZM55.096 68.148L52.9378 66.0642L52.9378 66.0642L55.096 68.148ZM16.26 66.248L14.1103 68.3406L14.1197 68.3501L16.26 66.248ZM16.412 25.436L18.4742 27.6149L18.4843 27.6052L16.412 25.436ZM53.424 23.232L51.635 25.6402L51.6383 25.6427L53.424 23.232ZM53.728 30.908L56.1443 32.686L56.1543 32.6725L56.164 32.6589L53.728 30.908ZM43.696 32.884L42.0319 35.3802L42.0527 35.394L42.0737 35.4075L43.696 32.884ZM25.836 34.86L27.8408 37.0918L27.8512 37.0824L27.8615 37.073L25.836 34.86ZM25.912 56.672L23.7732 58.7757L23.7819 58.7846L23.7907 58.7933L25.912 56.672ZM43.772 59.864L44.9079 62.6406L46.772 61.8781V59.864H43.772ZM43.772 51.58H46.772V48.58H43.772V51.58ZM34.424 50.972L32.8517 53.527L32.8517 53.527L34.424 50.972ZM33.132 49.224L30.2216 49.9516L30.2273 49.9743L30.2333 49.997L33.132 49.224ZM33.132 42.764L30.2686 41.8692L30.2426 41.9521L30.2216 42.0364L33.132 42.764ZM34.424 41.092L33.0824 38.4087L33.0824 38.4087L34.424 41.092ZM38.072 43.408H51.448V37.408H38.072V43.408ZM51.337 43.4059C52.5067 43.4493 53.2079 43.6189 53.5824 43.7777C53.9118 43.9175 53.8218 43.9701 53.7401 43.7932L59.1879 41.2788C57.7972 38.2656 54.4223 37.5161 51.559 37.4101L51.337 43.4059ZM53.8092 43.9332C53.9802 44.258 54.224 45.0986 54.224 46.792H60.224C60.224 44.7361 59.9612 42.7393 59.1188 41.1388L53.8092 43.9332ZM54.224 46.792V63.512H60.224V46.792H54.224ZM54.224 63.512C54.224 64.1673 53.9634 65.002 52.9378 66.0642L57.2542 70.2318C59.0659 68.3554 60.224 66.0994 60.224 63.512H54.224ZM52.9378 66.0642C49.4384 69.6886 43.9663 71.76 35.944 71.76V77.76C44.9457 77.76 52.2416 75.4234 57.2542 70.2318L52.9378 66.0642ZM35.944 71.76C29.2465 71.76 23.4433 69.2805 18.4003 64.1459L14.1197 68.3501C20.2234 74.5648 27.5428 77.76 35.944 77.76V71.76ZM18.4097 64.1554C13.3866 58.9953 10.9 52.8575 10.9 45.576H4.9C4.9 54.4065 7.98674 62.05 14.1103 68.3406L18.4097 64.1554ZM10.9 45.576C10.9 38.3154 13.4188 32.3994 18.4742 27.6149L14.3498 23.2571C8.05583 29.214 4.9 36.7246 4.9 45.576H10.9ZM18.4843 27.6052C23.6127 22.7058 29.5628 20.304 36.476 20.304V14.304C27.9865 14.304 20.5606 17.3235 14.3397 23.2668L18.4843 27.6052ZM36.476 20.304C41.7404 20.304 46.7733 22.0286 51.635 25.6402L55.213 20.8238C49.4347 16.5313 43.1689 14.304 36.476 14.304V20.304ZM51.6383 25.6427C52.5273 26.3012 52.476 26.6419 52.476 26.652H58.476C58.476 24.1288 57.0567 22.1895 55.2097 20.8213L51.6383 25.6427ZM52.476 26.652C52.476 26.9516 52.3052 27.7474 51.292 29.1571L56.164 32.6589C57.4815 30.826 58.476 28.7844 58.476 26.652H52.476ZM51.3117 29.13C50.4226 30.3382 49.6799 31.0939 49.1024 31.5249C48.5263 31.955 48.2887 31.936 48.332 31.936V37.936C49.9966 37.936 51.469 37.2457 52.6916 36.3331C53.9127 35.4215 55.0574 34.1631 56.1443 32.686L51.3117 29.13ZM48.332 31.936C48.4731 31.936 48.3015 31.9613 47.6652 31.6797C47.085 31.4229 46.3093 30.9976 45.3183 30.3605L42.0737 35.4075C43.2107 36.1384 44.2717 36.7391 45.2368 37.1663C46.1459 37.5687 47.2283 37.936 48.332 37.936V31.936ZM45.3601 30.3878C42.6688 28.5937 39.5362 27.756 36.096 27.756V33.756C38.5332 33.756 40.4672 34.337 42.0319 35.3802L45.3601 30.3878ZM36.096 27.756C31.4535 27.756 27.3212 29.4339 23.8105 32.647L27.8615 37.073C30.3295 34.8141 33.0371 33.756 36.096 33.756V27.756ZM23.8312 32.6282C20.1428 35.9415 18.352 40.3329 18.352 45.5H24.352C24.352 41.8511 25.5505 39.1492 27.8408 37.0918L23.8312 32.6282ZM18.352 45.5C18.352 50.6399 20.1781 55.1207 23.7732 58.7757L28.0508 54.5683C25.5659 52.0419 24.352 49.0748 24.352 45.5H18.352ZM23.7907 58.7933C27.3216 62.3242 31.5057 64.232 36.248 64.232V58.232C33.2889 58.232 30.5824 57.0998 28.0333 54.5507L23.7907 58.7933ZM36.248 64.232C39.3638 64.232 42.266 63.7214 44.9079 62.6406L42.6361 57.0874C40.8193 57.8306 38.7056 58.232 36.248 58.232V64.232ZM46.772 59.864V51.58H40.772V59.864H46.772ZM43.772 48.58H37.768V54.58H43.772V48.58ZM37.768 48.58C37.0993 48.58 36.6179 48.5359 36.2907 48.4764C35.9448 48.4135 35.8968 48.3558 35.9963 48.417L32.8517 53.527C34.2649 54.3966 36.1081 54.58 37.768 54.58V48.58ZM35.9963 48.417C35.9812 48.4077 35.9804 48.4055 35.9882 48.4126C35.9964 48.42 36.0079 48.4321 36.0195 48.4478C36.0311 48.4635 36.0377 48.4759 36.04 48.4809C36.0422 48.4855 36.0377 48.4771 36.0307 48.451L30.2333 49.997C30.63 51.4848 31.5269 52.7117 32.8517 53.527L35.9963 48.417ZM36.0424 48.4964C35.9232 48.0193 35.828 47.2274 35.828 46.032H29.828C29.828 47.4712 29.9355 48.8074 30.2216 49.9516L36.0424 48.4964ZM35.828 46.032C35.828 44.775 35.9248 43.9621 36.0424 43.4916L30.2216 42.0364C29.9339 43.1872 29.828 44.553 29.828 46.032H35.828ZM35.9954 43.6588C36.0372 43.5253 36.0608 43.518 36.0189 43.5723C35.9974 43.6001 35.9637 43.6374 35.9163 43.6768C35.8685 43.7164 35.8169 43.7497 35.7656 43.7753L33.0824 38.4087C31.5721 39.1638 30.7006 40.4866 30.2686 41.8692L35.9954 43.6588ZM35.7656 43.7753C36.1071 43.6045 36.808 43.408 38.072 43.408V37.408C36.296 37.408 34.5649 37.6674 33.0824 38.4087L35.7656 43.7753Z" fill="white"/>
</g>
<defs>
<filter id="filter0_d_7_16128" x="0.899994" y="14.304" width="67.7121" height="75.548" filterUnits="userSpaceOnUse" color-interpolation-filters="sRGB">
<feFlood flood-opacity="0" result="BackgroundImageFix"/>
<feColorMatrix in="SourceAlpha" type="matrix" values="0 0 0 0 0 0 0 0 0 0 0 0 0 0 0 0 0 0 127 0" result="hardAlpha"/>
<feOffset dy="4"/>
<feGaussianBlur stdDeviation="2"/>
<feComposite in2="hardAlpha" operator="out"/>
<feColorMatrix type="matrix" values="0 0 0 0 0 0 0 0 0 0 0 0 0 0 0 0 0 0 0.25 0"/>
<feBlend mode="normal" in2="BackgroundImageFix" result="effect1_dropShadow_7_16128"/>
<feBlend mode="normal" in="SourceGraphic" in2="effect1_dropShadow_7_16128" result="shape"/>
</filter>
</defs>
</svg>
