<svg width="149" height="148" viewBox="0 0 149 148" fill="none" xmlns="http://www.w3.org/2000/svg">
<path d="M27.7967 125.805L17.4044 9.25H131.596L121.189 125.786L74.4306 138.75L27.7967 125.805Z" fill="#E44F26" fill-opacity="0.5"/>
<path d="M74.5 128.843L112.286 118.368L121.175 18.7821H74.5V128.843Z" fill="#F1662A" fill-opacity="0.5"/>
<path d="M74.5 62.0074H55.5837L54.2795 47.3692H74.5V33.0734H38.6562L38.9985 36.9121L42.5089 76.3032H74.5V62.0074ZM74.5 99.1322L74.4353 99.1507L58.516 94.8541L57.4985 83.4535H43.1471L45.1498 105.894L74.4353 114.025L74.5 114.006V99.1322Z" fill="#EBEBEB" fill-opacity="0.8"/>
<path d="M74.4491 62.0074V76.3032H92.0518L90.3961 94.8449L74.4491 99.1461V114.02L103.758 105.894L103.97 103.48L107.328 65.8461L107.68 62.0074H74.4491ZM74.4491 33.0734V47.3692H108.979L109.266 44.1595L109.918 36.9121L110.26 33.0734H74.4491Z" fill="white" fill-opacity="0.8"/>
</svg>
