<svg width="22" height="92" viewBox="0 0 22 92" fill="none" xmlns="http://www.w3.org/2000/svg">
<path d="M7.9549 28.4215C7.9549 27.2561 7.98023 26.3948 8.03089 25.8375C8.13223 25.2295 8.38556 24.5455 8.79089 23.7855C9.50023 22.4175 11.4762 21.7335 14.7189 21.7335C16.9787 21.7335 18.6522 22.114 19.7396 22.875C20.3588 23.3084 20.7879 23.8652 21.0269 24.5455C21.2802 25.4068 21.4069 26.7241 21.4069 28.4975V70.7535C21.4069 71.9695 21.3562 72.8561 21.2549 73.4135C21.2042 73.9708 20.9762 74.6295 20.5709 75.3895C19.8616 76.7575 17.8856 77.4415 14.6429 77.4415C12.432 77.4415 10.792 77.0674 9.72308 76.3192C9.07728 75.8671 8.63988 75.2786 8.4109 74.5535C8.1069 73.7428 7.9549 72.4508 7.9549 70.6775V28.4215Z" fill="#2B0057"/>
<path d="M3.87597 20.344C3.47063 21.104 3.2173 21.788 3.11597 22.396L8.03088 25.8375C8.13221 25.2295 8.38555 24.5455 8.79088 23.7855L3.87597 20.344Z" fill="#2B0057"/>
<path d="M3.11598 22.396C3.06531 22.9533 3.03998 23.8147 3.03998 24.98L7.95489 28.4215C7.95489 27.2561 7.98022 26.3948 8.03089 25.8375L3.11598 22.396Z" fill="#2B0057"/>
<path d="M9.80398 18.292C6.56131 18.292 4.58531 18.976 3.87598 20.344L8.79089 23.7855C9.50022 22.4175 11.4762 21.7335 14.7189 21.7335L9.80398 18.292Z" fill="#2B0057"/>
<path d="M14.8246 19.4336C13.7373 18.6725 12.0637 18.292 9.80396 18.292L14.7189 21.7335C16.9786 21.7335 18.6522 22.114 19.7396 22.875L14.8246 19.4336Z" fill="#2B0057"/>
<path d="M16.112 21.104C15.8731 20.4243 15.4445 19.8678 14.8259 19.4345L19.7396 22.8751C20.3588 23.3085 20.7879 23.8653 21.0269 24.5455L16.112 21.104Z" fill="#2B0057"/>
<path d="M16.492 25.056C16.492 23.2827 16.3653 21.9653 16.112 21.104L21.0269 24.5455C21.2802 25.4068 21.4069 26.7241 21.4069 28.4975L16.492 25.056Z" fill="#2B0057"/>
<path d="M3.03998 24.98V67.236L7.95489 70.6774V28.4214L3.03998 24.98Z" fill="#2B0057"/>
<path d="M16.492 67.312V25.056L21.4069 28.4974V70.7534L16.492 67.312Z" fill="#2B0057"/>
<path d="M3.03998 67.236C3.03998 69.0093 3.19198 70.3013 3.49598 71.112L8.41089 74.5535C8.10689 73.7428 7.95489 72.4508 7.95489 70.6775L3.03998 67.236Z" fill="#2B0057"/>
<path d="M3.49597 71.112C3.72496 71.8371 4.16235 72.4257 4.80816 72.8777L9.72187 76.3183C9.07672 75.8664 8.63973 75.2781 8.41088 74.5535L3.49597 71.112Z" fill="#2B0057"/>
<path d="M4.80817 72.8777C5.87711 73.6259 7.51705 74 9.72798 74L14.6429 77.4415C12.432 77.4415 10.792 77.0674 9.72308 76.3192L4.80817 72.8777Z" fill="#2B0057"/>
<path d="M9.72797 74C12.9706 74 14.9466 73.316 15.656 71.948L20.5709 75.3895C19.8615 76.7575 17.8855 77.4415 14.6429 77.4415L9.72797 74Z" fill="#2B0057"/>
<path d="M16.34 69.972C16.4413 69.4147 16.492 68.528 16.492 67.312L21.4069 70.7535C21.4069 71.9695 21.3562 72.8561 21.2549 73.4135L16.34 69.972Z" fill="#2B0057"/>
<path d="M15.656 71.948C16.0613 71.188 16.2893 70.5293 16.34 69.972L21.2549 73.4134C21.2043 73.9708 20.9763 74.6294 20.5709 75.3894L15.656 71.948Z" fill="#2B0057"/>
<path d="M3.04 24.98C3.04 23.8147 3.06533 22.9533 3.116 22.396C3.21733 21.788 3.47067 21.104 3.876 20.344C4.58533 18.976 6.56133 18.292 9.804 18.292C13.3507 18.292 15.4533 19.2293 16.112 21.104C16.3653 21.9653 16.492 23.2827 16.492 25.056V67.312C16.492 68.528 16.4413 69.4147 16.34 69.972C16.2893 70.5293 16.0613 71.188 15.656 71.948C14.9467 73.316 12.9707 74 9.728 74C6.18133 74 4.104 73.0373 3.496 71.112C3.192 70.3013 3.04 69.0093 3.04 67.236V24.98Z" fill="white"/>
</svg>
