<svg width="129" height="128" viewBox="0 0 129 128" fill="none" xmlns="http://www.w3.org/2000/svg">
<g clip-path="url(#clip0_4_53)">
<path d="M0.5 0H128.5V128H0.5V0Z" fill="#F7DF1E" fill-opacity="0.8"/>
<path d="M34.156 106.966L43.951 101.038C45.841 104.389 47.56 107.224 51.6835 107.224C55.636 107.224 58.1285 105.678 58.1285 99.6635V58.7645H70.157V99.8335C70.157 112.292 62.854 117.963 52.199 117.963C42.5765 117.963 36.991 112.98 34.1555 106.965M76.6905 105.677L86.4845 100.007C89.063 104.217 92.414 107.31 98.342 107.31C103.327 107.31 106.505 104.818 106.505 101.381C106.505 97.257 103.24 95.796 97.7405 93.391L94.734 92.101C86.0555 88.4075 80.299 83.7675 80.299 73.9725C80.299 64.9505 87.1725 58.0765 97.913 58.0765C105.56 58.0765 111.059 60.7405 115.011 67.7L105.645 73.715C103.583 70.0205 101.35 68.56 97.9125 68.56C94.3895 68.56 92.1555 70.794 92.1555 73.715C92.1555 77.3235 94.3895 78.785 99.5445 81.019L102.552 82.3075C112.777 86.69 118.533 91.1575 118.533 101.21C118.533 112.037 110.027 117.965 98.5995 117.965C87.43 117.965 80.2125 112.638 76.69 105.678" fill="black" fill-opacity="0.8"/>
</g>
<defs>
<clipPath id="clip0_4_53">
<rect width="128" height="128" fill="white" transform="translate(0.5)"/>
</clipPath>
</defs>
</svg>
