<svg width="51" height="92" viewBox="0 0 51 92" fill="none" xmlns="http://www.w3.org/2000/svg">
<path d="M31.8189 49.4735C39.5709 56.9215 45.0683 62.5201 48.3109 66.2695C49.9829 68.1441 50.8189 69.7401 50.8189 71.0575C50.8189 72.3241 49.8056 73.8441 47.7789 75.6175C45.7523 77.3401 44.0803 78.2015 42.7629 78.2015C42.1169 78.2015 41.3983 77.9247 40.6072 77.3711C39.8474 76.8393 39.0206 76.0521 38.1269 75.0095L21.4069 55.9335V70.7535C21.4069 71.9695 21.3563 72.8561 21.2549 73.4135C21.2043 73.9708 20.9763 74.6295 20.5709 75.3895C19.8616 76.7575 17.8856 77.4415 14.6429 77.4415C12.432 77.4415 10.7921 77.0674 9.72311 76.3192C9.07731 75.8672 8.63991 75.2786 8.41093 74.5535C8.10693 73.7428 7.95493 72.4508 7.95493 70.6775V28.4215C7.95493 27.2561 7.98026 26.3948 8.03093 25.8375C8.13226 25.2295 8.38559 24.5455 8.79093 23.7855C9.50026 22.4175 11.4763 21.7335 14.7189 21.7335C16.9787 21.7335 18.6523 22.114 19.7396 22.8751C20.3588 23.3085 20.7879 23.8653 21.0269 24.5455C21.2803 25.4068 21.4069 26.7241 21.4069 28.4975V43.0135C28.2976 35.2615 33.8709 28.9028 38.1269 23.9375C39.9003 21.8601 41.4456 20.8215 42.7629 20.8215C43.714 20.8215 44.8498 21.2836 46.1706 22.2078C46.6793 22.5638 47.2154 22.9884 47.7789 23.4815C49.8056 25.2041 50.8189 26.7241 50.8189 28.0415C50.8189 29.3081 50.0589 30.8281 48.5389 32.6015C45.6003 35.9961 41.0403 40.6575 34.8589 46.5855L31.8189 49.4735Z" fill="#2B0057"/>
<path d="M3.876 20.344C3.47066 21.104 3.21733 21.788 3.116 22.396L8.03091 25.8375C8.13224 25.2295 8.38558 24.5455 8.79091 23.7855L3.876 20.344Z" fill="#2B0057"/>
<path d="M3.11601 22.396C3.06534 22.9533 3.04001 23.8147 3.04001 24.98L7.95492 28.4215C7.95492 27.2561 7.98025 26.3948 8.03092 25.8375L3.11601 22.396Z" fill="#2B0057"/>
<path d="M9.80401 18.292C6.56134 18.292 4.58534 18.976 3.87601 20.344L8.79092 23.7855C9.50025 22.4175 11.4763 21.7335 14.7189 21.7335L9.80401 18.292Z" fill="#2B0057"/>
<path d="M14.8247 19.4336C13.7374 18.6725 12.0638 18.292 9.80402 18.292L14.7189 21.7335C16.9787 21.7335 18.6523 22.114 19.7396 22.875L14.8247 19.4336Z" fill="#2B0057"/>
<path d="M16.112 21.104C15.8732 20.4243 15.4445 19.8678 14.826 19.4345L19.7396 22.8751C20.3588 23.3085 20.7879 23.8653 21.0269 24.5455L16.112 21.104Z" fill="#2B0057"/>
<path d="M16.492 25.056C16.492 23.2827 16.3653 21.9653 16.112 21.104L21.0269 24.5455C21.2802 25.4068 21.4069 26.7241 21.4069 28.4975L16.492 25.056Z" fill="#2B0057"/>
<path d="M3.04001 24.98V67.236L7.95492 70.6774V28.4214L3.04001 24.98Z" fill="#2B0057"/>
<path d="M16.492 39.572V25.056L21.4069 28.4975V43.0135L16.492 39.572Z" fill="#2B0057"/>
<path d="M33.212 20.496C28.956 25.4614 23.3827 31.82 16.492 39.572L21.4069 43.0135C28.2976 35.2615 33.8709 28.9028 38.1269 23.9375L33.212 20.496Z" fill="#2B0057"/>
<path d="M37.848 17.38C36.5307 17.38 34.9853 18.4187 33.212 20.496L38.1269 23.9375C39.9003 21.8601 41.4456 20.8215 42.7629 20.8215L37.848 17.38Z" fill="#2B0057"/>
<path d="M3.04001 67.236C3.04001 69.0094 3.19201 70.3014 3.49601 71.112L8.41092 74.5535C8.10692 73.7428 7.95492 72.4508 7.95492 70.6775L3.04001 67.236Z" fill="#2B0057"/>
<path d="M41.2557 18.7664C39.9349 17.8421 38.7991 17.38 37.848 17.38L42.7629 20.8215C43.714 20.8215 44.8498 21.2836 46.1706 22.2078L41.2557 18.7664Z" fill="#2B0057"/>
<path d="M3.496 71.112C3.72499 71.8371 4.16238 72.4257 4.80819 72.8777L9.7219 76.3183C9.07675 75.8664 8.63976 75.2781 8.41091 74.5535L3.496 71.112Z" fill="#2B0057"/>
<path d="M42.864 20.04C42.3028 19.5489 41.7688 19.1259 41.262 18.7708L46.1706 22.2078C46.6793 22.5638 47.2154 22.9883 47.7789 23.4814L42.864 20.04Z" fill="#2B0057"/>
<path d="M16.492 67.312V52.492L21.4069 55.9335V70.7535L16.492 67.312Z" fill="#2B0057"/>
<path d="M4.8082 72.8777C5.87714 73.6259 7.51708 74 9.72801 74L14.6429 77.4415C12.432 77.4415 10.7921 77.0674 9.72311 76.3192L4.8082 72.8777Z" fill="#2B0057"/>
<path d="M26.904 46.032L29.944 43.144L34.8589 46.5854L31.8189 49.4734L26.904 46.032Z" fill="#2B0057"/>
<path d="M45.904 24.6C45.904 23.2826 44.8907 21.7626 42.864 20.04L47.7789 23.4814C49.8056 25.2041 50.8189 26.7241 50.8189 28.0414L45.904 24.6Z" fill="#2B0057"/>
<path d="M29.944 43.144C36.1253 37.216 40.6853 32.5547 43.624 29.16L48.5389 32.6015C45.6002 35.9962 41.0402 40.6575 34.8589 46.5855L29.944 43.144Z" fill="#2B0057"/>
<path d="M43.624 29.16C45.144 27.3867 45.904 25.8667 45.904 24.6L50.8189 28.0415C50.8189 29.3082 50.0589 30.8282 48.5389 32.6015L43.624 29.16Z" fill="#2B0057"/>
<path d="M9.728 74C12.9707 74 14.9467 73.316 15.656 71.948L20.5709 75.3895C19.8616 76.7575 17.8856 77.4415 14.6429 77.4415L9.728 74Z" fill="#2B0057"/>
<path d="M16.34 69.972C16.4413 69.4147 16.492 68.528 16.492 67.312L21.4069 70.7535C21.4069 71.9695 21.3562 72.8561 21.2549 73.4135L16.34 69.972Z" fill="#2B0057"/>
<path d="M15.656 71.948C16.0613 71.188 16.2893 70.5293 16.34 69.972L21.2549 73.4134C21.2043 73.9708 20.9763 74.6294 20.5709 75.3894L15.656 71.948Z" fill="#2B0057"/>
<path d="M16.492 52.492L33.212 71.568L38.1269 75.0095L21.4069 55.9335L16.492 52.492Z" fill="#2B0057"/>
<path d="M43.396 62.828C40.1534 59.0787 34.656 53.48 26.904 46.032L31.8189 49.4734C39.5709 56.9214 45.0683 62.5201 48.3109 66.2694L43.396 62.828Z" fill="#2B0057"/>
<path d="M33.212 71.568C34.1057 72.6106 34.9324 73.3978 35.6923 73.9296L40.6041 77.3688C39.8451 76.8371 39.0194 76.0506 38.1269 75.0095L33.212 71.568Z" fill="#2B0057"/>
<path d="M35.6923 73.9296C36.4834 74.4832 37.2019 74.76 37.848 74.76L42.7629 78.2015C42.1169 78.2015 41.3983 77.9247 40.6072 77.3711L35.6923 73.9296Z" fill="#2B0057"/>
<path d="M45.904 67.616C45.904 66.2987 45.068 64.7027 43.396 62.828L48.3109 66.2695C49.9829 68.1441 50.8189 69.7401 50.8189 71.0575L45.904 67.616Z" fill="#2B0057"/>
<path d="M37.848 74.76C39.1654 74.76 40.8374 73.8987 42.864 72.176L47.7789 75.6175C45.7523 77.3402 44.0803 78.2015 42.7629 78.2015L37.848 74.76Z" fill="#2B0057"/>
<path d="M42.864 72.176C44.8907 70.4027 45.904 68.8827 45.904 67.616L50.8189 71.0575C50.8189 72.3242 49.8056 73.8442 47.7789 75.6175L42.864 72.176Z" fill="#2B0057"/>
<path d="M26.904 46.032C34.656 53.48 40.1533 59.0787 43.396 62.828C45.068 64.7027 45.904 66.2987 45.904 67.616C45.904 68.8827 44.8907 70.4027 42.864 72.176C40.8373 73.8987 39.1653 74.76 37.848 74.76C36.5813 74.76 35.036 73.696 33.212 71.568L16.492 52.492V67.312C16.492 68.528 16.4413 69.4147 16.34 69.972C16.2893 70.5293 16.0613 71.188 15.656 71.948C14.9467 73.316 12.9707 74 9.728 74C6.18133 74 4.104 73.0373 3.496 71.112C3.192 70.3013 3.04 69.0093 3.04 67.236V24.98C3.04 23.8147 3.06533 22.9533 3.116 22.396C3.21733 21.788 3.47067 21.104 3.876 20.344C4.58533 18.976 6.56133 18.292 9.804 18.292C13.3507 18.292 15.4533 19.2293 16.112 21.104C16.3653 21.9653 16.492 23.2827 16.492 25.056V39.572C23.3827 31.82 28.956 25.4613 33.212 20.496C34.9853 18.4187 36.5307 17.38 37.848 17.38C39.1653 17.38 40.8373 18.2667 42.864 20.04C44.8907 21.7627 45.904 23.2827 45.904 24.6C45.904 25.8667 45.144 27.3867 43.624 29.16C40.6853 32.5547 36.1253 37.216 29.944 43.144L26.904 46.032Z" fill="white"/>
</svg>
