<svg width="48" height="92" viewBox="0 0 48 92" fill="none" xmlns="http://www.w3.org/2000/svg">
<path d="M21.4069 66.1935H42.0789C43.7509 66.1935 44.9669 66.3961 45.7269 66.8015C45.8931 66.879 46.0471 66.9674 46.189 67.0668C46.6963 67.4218 47.049 67.916 47.2469 68.5495C47.5002 69.3601 47.6269 70.4495 47.6269 71.8175C47.6269 73.1348 47.5002 74.1988 47.2469 75.0095C46.9936 75.8201 46.5629 76.3775 45.9549 76.6815C44.9922 77.1881 43.6749 77.4415 42.0029 77.4415H14.6429C12.432 77.4415 10.792 77.0674 9.72308 76.3192C9.07728 75.8671 8.63988 75.2786 8.4109 74.5535C8.1069 73.7428 7.9549 72.4508 7.9549 70.6775V28.4215C7.9549 27.2561 7.98023 26.3948 8.03089 25.8375C8.13223 25.2295 8.38556 24.5455 8.79089 23.7855C9.50023 22.4175 11.4762 21.7335 14.7189 21.7335C16.9787 21.7335 18.6522 22.114 19.7396 22.875C20.3588 23.3084 20.7879 23.8652 21.0269 24.5455C21.2802 25.4068 21.4069 26.7241 21.4069 28.4975V66.1935Z" fill="#2B0057"/>
<path d="M3.87597 20.344C3.47063 21.104 3.2173 21.788 3.11597 22.396L8.03088 25.8375C8.13221 25.2295 8.38555 24.5455 8.79088 23.7855L3.87597 20.344Z" fill="#2B0057"/>
<path d="M3.11598 22.396C3.06531 22.9533 3.03998 23.8147 3.03998 24.98L7.95489 28.4215C7.95489 27.2561 7.98022 26.3948 8.03089 25.8375L3.11598 22.396Z" fill="#2B0057"/>
<path d="M9.80398 18.292C6.56131 18.292 4.58531 18.976 3.87598 20.344L8.79089 23.7855C9.50022 22.4175 11.4762 21.7335 14.7189 21.7335L9.80398 18.292Z" fill="#2B0057"/>
<path d="M14.8246 19.4336C13.7373 18.6725 12.0637 18.292 9.80396 18.292L14.7189 21.7335C16.9786 21.7335 18.6522 22.114 19.7396 22.875L14.8246 19.4336Z" fill="#2B0057"/>
<path d="M16.112 21.104C15.8731 20.4243 15.4445 19.8678 14.8259 19.4345L19.7396 22.8751C20.3588 23.3085 20.7879 23.8653 21.0269 24.5455L16.112 21.104Z" fill="#2B0057"/>
<path d="M16.492 25.056C16.492 23.2827 16.3653 21.9653 16.112 21.104L21.0269 24.5455C21.2802 25.4068 21.4069 26.7241 21.4069 28.4975L16.492 25.056Z" fill="#2B0057"/>
<path d="M3.03998 24.98V67.236L7.95489 70.6774V28.4214L3.03998 24.98Z" fill="#2B0057"/>
<path d="M16.492 62.752V25.056L21.4069 28.4974V66.1934L16.492 62.752Z" fill="#2B0057"/>
<path d="M3.03998 67.236C3.03998 69.0094 3.19198 70.3014 3.49598 71.112L8.41089 74.5535C8.10689 73.7428 7.95489 72.4508 7.95489 70.6775L3.03998 67.236Z" fill="#2B0057"/>
<path d="M3.49597 71.112C3.72496 71.8371 4.16235 72.4257 4.80816 72.8777L9.72187 76.3183C9.07672 75.8664 8.63973 75.2781 8.41088 74.5535L3.49597 71.112Z" fill="#2B0057"/>
<path d="M4.80817 72.8777C5.87711 73.6259 7.51705 74 9.72798 74L14.6429 77.4414C12.432 77.4414 10.792 77.0673 9.72308 76.3191L4.80817 72.8777Z" fill="#2B0057"/>
<path d="M37.164 62.752H16.492L21.4069 66.1935H42.0789L37.164 62.752Z" fill="#2B0057"/>
<path d="M9.72797 74H37.088L42.0029 77.4415H14.6429L9.72797 74Z" fill="#2B0057"/>
<path d="M40.812 63.36C40.052 62.9547 38.836 62.752 37.164 62.752L42.0789 66.1935C43.7509 66.1935 44.9669 66.3961 45.7269 66.8015L40.812 63.36Z" fill="#2B0057"/>
<path d="M41.2741 63.6253C41.1322 63.526 40.9781 63.4375 40.812 63.36L45.7269 66.8014C45.893 66.879 46.0471 66.9674 46.189 67.0668L41.2741 63.6253Z" fill="#2B0057"/>
<path d="M42.332 65.108C42.1342 64.475 41.7819 63.9811 41.2752 63.6261L46.189 67.0668C46.6963 67.4218 47.0489 67.916 47.2469 68.5494L42.332 65.108Z" fill="#2B0057"/>
<path d="M42.712 68.376C42.712 67.008 42.5853 65.9186 42.332 65.108L47.2469 68.5494C47.5002 69.3601 47.6269 70.4494 47.6269 71.8174L42.712 68.376Z" fill="#2B0057"/>
<path d="M37.088 74C38.76 74 40.0773 73.7467 41.04 73.24L45.9549 76.6814C44.9923 77.1881 43.6749 77.4415 42.0029 77.4415L37.088 74Z" fill="#2B0057"/>
<path d="M42.332 71.568C42.5853 70.7573 42.712 69.6933 42.712 68.376L47.6269 71.8174C47.6269 73.1348 47.5002 74.1988 47.2469 75.0094L42.332 71.568Z" fill="#2B0057"/>
<path d="M41.04 73.24C41.648 72.936 42.0786 72.3787 42.332 71.568L47.2469 75.0095C46.9936 75.8201 46.5629 76.3774 45.9549 76.6814L41.04 73.24Z" fill="#2B0057"/>
<path d="M16.492 62.752H37.164C38.836 62.752 40.052 62.9547 40.812 63.36C41.572 63.7147 42.0787 64.2973 42.332 65.108C42.5853 65.9187 42.712 67.008 42.712 68.376C42.712 69.6933 42.5853 70.7573 42.332 71.568C42.0787 72.3787 41.648 72.936 41.04 73.24C40.0773 73.7467 38.76 74 37.088 74H9.728C6.18133 74 4.104 73.0373 3.496 71.112C3.192 70.3013 3.04 69.0093 3.04 67.236V24.98C3.04 23.8147 3.06533 22.9533 3.116 22.396C3.21733 21.788 3.47067 21.104 3.876 20.344C4.58533 18.976 6.56133 18.292 9.804 18.292C13.3507 18.292 15.4533 19.2293 16.112 21.104C16.3653 21.9653 16.492 23.2827 16.492 25.056V62.752Z" fill="white"/>
</svg>
