<svg width="57" height="92" viewBox="0 0 57 92" fill="none" xmlns="http://www.w3.org/2000/svg">
<path d="M43.9029 24.0895C44.4096 23.1775 45.1442 22.5695 46.1069 22.2655C47.0696 21.9614 48.2602 21.8094 49.6789 21.8094C51.1482 21.8094 52.3136 21.9361 53.1749 22.1894C53.9448 22.4033 54.5342 22.6533 54.943 22.9394C55.0185 22.9922 55.0878 23.0462 55.1509 23.1014C55.6069 23.4561 55.9362 23.9881 56.1389 24.6975C56.4429 25.5081 56.5949 26.8001 56.5949 28.5735V70.7535C56.5949 71.9695 56.5442 72.8561 56.4429 73.4135C56.3922 73.9708 56.1642 74.6295 55.7589 75.3895C55.0496 76.7575 53.0736 77.4415 49.8309 77.4415C47.8549 77.4415 46.4869 77.2895 45.7269 76.9855C45.4014 76.8552 45.0991 76.6925 44.8201 76.4972C44.4476 76.2366 44.1166 75.918 43.8269 75.5415C32.4269 60.3414 24.9282 50.4108 21.3309 45.7495V70.7535C21.3309 71.9695 21.2802 72.8561 21.1789 73.4135C21.1282 73.9708 20.9002 74.6295 20.4949 75.3895C19.7856 76.7575 17.8096 77.4415 14.5669 77.4415C12.3173 77.4415 10.6913 77.0907 9.68891 76.3891C9.29159 76.111 8.99225 75.7778 8.79089 75.3895C8.38556 74.6295 8.13223 73.9455 8.03089 73.3375C7.98023 72.7295 7.9549 71.8428 7.9549 70.6775V28.2695C7.9549 26.3441 8.1829 24.9508 8.63889 24.0895C9.14556 23.1775 9.88023 22.5695 10.8429 22.2655C11.8056 21.9614 13.0469 21.8094 14.5669 21.8094C16.0869 21.8094 17.2776 21.9614 18.1389 22.2655C18.8533 22.4639 19.3967 22.6934 19.7691 22.954C19.8721 23.0261 19.962 23.1006 20.0389 23.1774C20.2416 23.3294 20.8242 23.9881 21.7869 25.1535C32.4776 39.6948 39.6216 49.2961 43.2189 53.9575V28.2695C43.2189 26.3441 43.4469 24.9508 43.9029 24.0895Z" fill="#2B0057"/>
<path d="M5.928 18.824C4.96533 19.128 4.23067 19.736 3.724 20.648L8.63891 24.0894C9.14558 23.1774 9.88024 22.5694 10.8429 22.2654L5.928 18.824Z" fill="#2B0057"/>
<path d="M3.72398 20.648C3.26798 21.5093 3.03998 22.9027 3.03998 24.828L7.95489 28.2695C7.95489 26.3441 8.18289 24.9508 8.63889 24.0895L3.72398 20.648Z" fill="#2B0057"/>
<path d="M9.65198 18.368C8.13198 18.368 6.89065 18.52 5.92798 18.824L10.8429 22.2654C11.8056 21.9614 13.0469 21.8094 14.5669 21.8094L9.65198 18.368Z" fill="#2B0057"/>
<path d="M13.224 18.824C12.3626 18.52 11.172 18.368 9.65198 18.368L14.5669 21.8094C16.0869 21.8094 17.2776 21.9614 18.1389 22.2654L13.224 18.824Z" fill="#2B0057"/>
<path d="M14.8542 19.5126C14.4818 19.2519 13.9384 19.0224 13.224 18.824L18.1389 22.2654C18.8533 22.4639 19.3967 22.6934 19.7691 22.954L14.8542 19.5126Z" fill="#2B0057"/>
<path d="M15.124 19.736C15.0474 19.6594 14.9578 19.5852 14.8553 19.5133L19.7691 22.954C19.8721 23.0261 19.962 23.1006 20.0389 23.1774L15.124 19.736Z" fill="#2B0057"/>
<path d="M16.872 21.712C15.9093 20.5466 15.3266 19.888 15.124 19.736L20.0389 23.1774C20.2415 23.3294 20.8242 23.9881 21.7869 25.1534L16.872 21.712Z" fill="#2B0057"/>
<path d="M3.03998 24.828V67.236L7.95489 70.6775V28.2695L3.03998 24.828Z" fill="#2B0057"/>
<path d="M3.03998 67.236C3.03998 68.4013 3.06531 69.288 3.11598 69.896L8.03089 73.3374C7.98022 72.7294 7.95489 71.8428 7.95489 70.6774L3.03998 67.236Z" fill="#2B0057"/>
<path d="M38.3039 50.516C34.7066 45.8546 27.5626 36.2533 16.8719 21.712L21.7869 25.1534C32.4775 39.6948 39.6215 49.2961 43.2189 53.9574L38.3039 50.516Z" fill="#2B0057"/>
<path d="M3.11597 69.896C3.2173 70.504 3.47063 71.188 3.87597 71.948L8.79088 75.3895C8.38555 74.6295 8.13221 73.9455 8.03088 73.3375L3.11597 69.896Z" fill="#2B0057"/>
<path d="M41.192 18.824C40.2293 19.128 39.4946 19.736 38.988 20.648L43.9029 24.0894C44.4096 23.1774 45.1442 22.5694 46.1069 22.2654L41.192 18.824Z" fill="#2B0057"/>
<path d="M38.988 20.648C38.532 21.5093 38.304 22.9027 38.304 24.828L43.2189 28.2695C43.2189 26.3441 43.4469 24.9508 43.9029 24.0895L38.988 20.648Z" fill="#2B0057"/>
<path d="M16.416 67.312V42.308L21.3309 45.7494V70.7534L16.416 67.312Z" fill="#2B0057"/>
<path d="M3.87598 71.948C4.07733 72.3363 4.37667 72.6695 4.77399 72.9476L9.68781 76.3883C9.29103 76.1104 8.99206 75.7774 8.79089 75.3895L3.87598 71.948Z" fill="#2B0057"/>
<path d="M44.764 18.368C43.3453 18.368 42.1546 18.52 41.192 18.824L46.1069 22.2654C47.0695 21.9614 48.2602 21.8094 49.6789 21.8094L44.764 18.368Z" fill="#2B0057"/>
<path d="M4.77399 72.9476C5.77636 73.6492 7.40235 74 9.65197 74L14.5669 77.4415C12.3173 77.4415 10.6913 77.0907 9.6889 76.3891L4.77399 72.9476Z" fill="#2B0057"/>
<path d="M48.26 18.748C47.3986 18.4946 46.2333 18.368 44.764 18.368L49.6789 21.8094C51.1482 21.8094 52.3136 21.9361 53.1749 22.1894L48.26 18.748Z" fill="#2B0057"/>
<path d="M50.0281 19.4979C49.6193 19.2118 49.0299 18.9619 48.26 18.748L53.1749 22.1894C53.9449 22.4033 54.5342 22.6533 54.9431 22.9394L50.0281 19.4979Z" fill="#2B0057"/>
<path d="M9.65198 74C12.8946 74 14.8706 73.316 15.58 71.948L20.4949 75.3895C19.7856 76.7575 17.8096 77.4415 14.5669 77.4415L9.65198 74Z" fill="#2B0057"/>
<path d="M50.236 19.66C50.1732 19.605 50.1043 19.5513 50.0294 19.4988L54.943 22.9394C55.0185 22.9922 55.0878 23.0462 55.1509 23.1014L50.236 19.66Z" fill="#2B0057"/>
<path d="M16.264 69.972C16.3653 69.4147 16.416 68.528 16.416 67.312L21.3309 70.7535C21.3309 71.9695 21.2802 72.8561 21.1789 73.4135L16.264 69.972Z" fill="#2B0057"/>
<path d="M38.304 24.828V50.516L43.2189 53.9575V28.2695L38.304 24.828Z" fill="#2B0057"/>
<path d="M51.224 21.256C51.0213 20.5466 50.692 20.0146 50.236 19.66L55.1509 23.1014C55.6069 23.4561 55.9362 23.9881 56.1389 24.6974L51.224 21.256Z" fill="#2B0057"/>
<path d="M15.58 71.948C15.9853 71.188 16.2133 70.5293 16.264 69.972L21.1789 73.4134C21.1282 73.9708 20.9002 74.6294 20.4949 75.3894L15.58 71.948Z" fill="#2B0057"/>
<path d="M51.68 25.132C51.68 23.3586 51.528 22.0666 51.224 21.256L56.1389 24.6974C56.4429 25.5081 56.5949 26.8001 56.5949 28.5734L51.68 25.132Z" fill="#2B0057"/>
<path d="M16.416 42.308C20.0133 46.9693 27.512 56.9 38.912 72.1L43.8269 75.5414C32.4269 60.3414 24.9282 50.4108 21.3309 45.7494L16.416 42.308Z" fill="#2B0057"/>
<path d="M51.68 67.312V25.132L56.5949 28.5734V70.7534L51.68 67.312Z" fill="#2B0057"/>
<path d="M38.912 72.1C39.2016 72.4765 39.5327 72.7951 39.9052 73.0558L44.818 76.4958C44.4464 76.2354 44.116 75.9173 43.8269 75.5414L38.912 72.1Z" fill="#2B0057"/>
<path d="M39.9052 73.0558C40.1842 73.2511 40.4865 73.4138 40.812 73.544L45.7269 76.9854C45.4014 76.8552 45.0991 76.6925 44.8201 76.4972L39.9052 73.0558Z" fill="#2B0057"/>
<path d="M40.812 73.544C41.572 73.848 42.94 74 44.916 74L49.8309 77.4415C47.8549 77.4415 46.4869 77.2895 45.7269 76.9855L40.812 73.544Z" fill="#2B0057"/>
<path d="M44.916 74C48.1586 74 50.1346 73.316 50.844 71.948L55.7589 75.3895C55.0495 76.7575 53.0735 77.4415 49.8309 77.4415L44.916 74Z" fill="#2B0057"/>
<path d="M51.528 69.972C51.6293 69.4147 51.68 68.528 51.68 67.312L56.5949 70.7535C56.5949 71.9695 56.5442 72.8561 56.4429 73.4135L51.528 69.972Z" fill="#2B0057"/>
<path d="M50.844 71.948C51.2493 71.188 51.4773 70.5293 51.528 69.972L56.4429 73.4134C56.3922 73.9708 56.1642 74.6294 55.7589 75.3894L50.844 71.948Z" fill="#2B0057"/>
<path d="M38.988 20.648C39.4947 19.736 40.2293 19.128 41.192 18.824C42.1547 18.52 43.3453 18.368 44.764 18.368C46.2333 18.368 47.3987 18.4947 48.26 18.748C49.172 19.0013 49.8307 19.3053 50.236 19.66C50.692 20.0147 51.0213 20.5467 51.224 21.256C51.528 22.0667 51.68 23.3587 51.68 25.132V67.312C51.68 68.528 51.6293 69.4147 51.528 69.972C51.4773 70.5293 51.2493 71.188 50.844 71.948C50.1347 73.316 48.1587 74 44.916 74C42.94 74 41.572 73.848 40.812 73.544C40.052 73.24 39.4187 72.7587 38.912 72.1C27.512 56.9 20.0133 46.9693 16.416 42.308V67.312C16.416 68.528 16.3653 69.4147 16.264 69.972C16.2133 70.5293 15.9853 71.188 15.58 71.948C14.8707 73.316 12.8947 74 9.652 74C6.51067 74 4.58533 73.316 3.876 71.948C3.47067 71.188 3.21733 70.504 3.116 69.896C3.06533 69.288 3.04 68.4013 3.04 67.236V24.828C3.04 22.9027 3.268 21.5093 3.724 20.648C4.23067 19.736 4.96533 19.128 5.928 18.824C6.89067 18.52 8.132 18.368 9.652 18.368C11.172 18.368 12.3627 18.52 13.224 18.824C14.136 19.0773 14.7693 19.3813 15.124 19.736C15.3267 19.888 15.9093 20.5467 16.872 21.712C27.5627 36.2533 34.7067 45.8547 38.304 50.516V24.828C38.304 22.9027 38.532 21.5093 38.988 20.648Z" fill="white"/>
</svg>
