<svg width="62" height="92" viewBox="0 0 62 92" fill="none" xmlns="http://www.w3.org/2000/svg">
<path d="M34.0989 21.0495C39.8824 21.0495 45.0782 22.6619 49.6862 25.8868C51.0528 26.8432 52.3677 27.9414 53.6309 29.1815C59.1536 34.6028 61.9149 41.3415 61.9149 49.3975C61.9149 57.4028 59.2802 64.2428 54.0109 69.9175C48.7416 75.5415 42.2562 78.3535 34.5549 78.3535C28.7651 78.3535 23.6195 76.7784 19.1183 73.6284C17.6323 72.5884 16.2165 71.3768 14.8709 69.9935C9.50024 64.4201 6.81491 57.7828 6.81491 50.0815C6.81491 45.8761 7.57491 41.9495 9.09491 38.3015C10.6149 34.6028 12.6416 31.5121 15.1749 29.0295C17.7082 26.5468 20.6216 24.5961 23.9149 23.1775C27.2082 21.7588 30.6029 21.0495 34.0989 21.0495ZM20.2669 49.7015C20.2669 54.2108 21.7109 57.8841 24.5989 60.7215C25.2574 61.3459 25.9324 61.9004 26.624 62.3849C29.0187 64.0626 31.6117 64.9015 34.4029 64.9015C38.0002 64.9015 41.2429 63.5335 44.1309 60.7975C47.0189 58.0615 48.4629 54.3881 48.4629 49.7775C48.4629 45.1668 46.9936 41.4681 44.0549 38.6815C43.3836 38.0337 42.6931 37.4612 41.9835 36.964C39.6402 35.3223 37.088 34.5015 34.3269 34.5015C30.7296 34.5015 27.4869 35.9201 24.5989 38.7575C21.7109 41.5441 20.2669 45.1921 20.2669 49.7015Z" fill="#2B0057"/>
<path d="M10.26 25.588C7.72666 28.0707 5.69999 31.1613 4.17999 34.86L9.0949 38.3015C10.6149 34.6028 12.6416 31.5121 15.1749 29.0295L10.26 25.588Z" fill="#2B0057"/>
<path d="M19 19.736C15.7067 21.1547 12.7933 23.1053 10.26 25.588L15.1749 29.0295C17.7083 26.5468 20.6216 24.5961 23.9149 23.1775L19 19.736Z" fill="#2B0057"/>
<path d="M4.17999 34.86C2.65999 38.508 1.89999 42.4347 1.89999 46.64L6.81491 50.0814C6.81491 45.8761 7.57491 41.9494 9.09491 38.3014L4.17999 34.86Z" fill="#2B0057"/>
<path d="M29.184 17.608C25.688 17.608 22.2933 18.3173 19 19.736L23.9149 23.1775C27.2082 21.7588 30.6029 21.0495 34.0989 21.0495L29.184 17.608Z" fill="#2B0057"/>
<path d="M1.89999 46.64C1.89999 54.3413 4.58533 60.9787 9.95599 66.552L14.8709 69.9935C9.50024 64.4201 6.81491 57.7828 6.81491 50.0815L1.89999 46.64Z" fill="#2B0057"/>
<path d="M15.352 46.26C15.352 41.7507 16.796 38.1027 19.684 35.316L24.5989 38.7575C21.7109 41.5441 20.2669 45.1921 20.2669 49.7015L15.352 46.26Z" fill="#2B0057"/>
<path d="M19.684 35.316C22.572 32.4787 25.8147 31.06 29.412 31.06L34.3269 34.5015C30.7296 34.5015 27.4869 35.9201 24.5989 38.7575L19.684 35.316Z" fill="#2B0057"/>
<path d="M44.7713 22.4454C40.1633 19.2205 34.9675 17.608 29.184 17.608L34.0989 21.0495C39.8824 21.0495 45.0782 22.6619 49.6862 25.8868L44.7713 22.4454Z" fill="#2B0057"/>
<path d="M19.684 57.28C16.796 54.4427 15.352 50.7693 15.352 46.26L20.2669 49.7015C20.2669 54.2108 21.7109 57.8841 24.5989 60.7215L19.684 57.28Z" fill="#2B0057"/>
<path d="M29.412 31.06C32.1731 31.06 34.7253 31.8809 37.0685 33.5226L41.9765 36.9592C39.6352 35.3207 37.0853 34.5015 34.3269 34.5015L29.412 31.06Z" fill="#2B0057"/>
<path d="M9.95599 66.552C11.3016 67.9353 12.7174 69.1469 14.2034 70.1869L19.1069 73.6204C17.625 72.5822 16.213 71.3732 14.8709 69.9935L9.95599 66.552Z" fill="#2B0057"/>
<path d="M21.7091 58.9434C21.0175 58.4589 20.3425 57.9044 19.684 57.28L24.5989 60.7215C25.2574 61.3459 25.9324 61.9003 26.624 62.3849L21.7091 58.9434Z" fill="#2B0057"/>
<path d="M37.0685 33.5226C37.7782 34.0197 38.4687 34.5922 39.14 35.24L44.0549 38.6814C43.3836 38.0337 42.6931 37.4612 41.9835 36.964L37.0685 33.5226Z" fill="#2B0057"/>
<path d="M48.716 25.74C47.4564 24.5034 46.1453 23.4079 44.7828 22.4534L49.6862 25.8868C51.0528 26.8432 52.3677 27.9414 53.6309 29.1815L48.716 25.74Z" fill="#2B0057"/>
<path d="M29.488 61.46C26.6994 61.46 24.1088 60.6227 21.716 58.9483L26.624 62.3848C29.0187 64.0626 31.6116 64.9015 34.4029 64.9015L29.488 61.46Z" fill="#2B0057"/>
<path d="M39.14 35.24C42.0787 38.0267 43.548 41.7253 43.548 46.336L48.4629 49.7774C48.4629 45.1668 46.9936 41.4681 44.0549 38.6814L39.14 35.24Z" fill="#2B0057"/>
<path d="M14.2034 70.1869C18.7046 73.337 23.8501 74.912 29.64 74.912L34.5549 78.3535C28.765 78.3535 23.6195 76.7784 19.1183 73.6284L14.2034 70.1869Z" fill="#2B0057"/>
<path d="M39.216 57.356C36.328 60.092 33.0853 61.46 29.488 61.46L34.4029 64.9015C38.0002 64.9015 41.2429 63.5335 44.1309 60.7975L39.216 57.356Z" fill="#2B0057"/>
<path d="M43.548 46.336C43.548 50.9467 42.104 54.62 39.216 57.356L44.1309 60.7975C47.0189 58.0615 48.4629 54.3881 48.4629 49.7775L43.548 46.336Z" fill="#2B0057"/>
<path d="M57 45.956C57 37.9 54.2387 31.1613 48.716 25.74L53.6309 29.1814C59.1536 34.6028 61.9149 41.3415 61.9149 49.3974L57 45.956Z" fill="#2B0057"/>
<path d="M29.64 74.912C37.3414 74.912 43.8267 72.1 49.096 66.476L54.0109 69.9175C48.7416 75.5415 42.2563 78.3535 34.5549 78.3535L29.64 74.912Z" fill="#2B0057"/>
<path d="M49.096 66.476C54.3653 60.8013 57 53.9613 57 45.956L61.9149 49.3975C61.9149 57.4028 59.2803 64.2428 54.0109 69.9175L49.096 66.476Z" fill="#2B0057"/>
<path d="M29.184 17.608C36.6827 17.608 43.1933 20.3187 48.716 25.74C54.2387 31.1613 57 37.9 57 45.956C57 53.9613 54.3653 60.8013 49.096 66.476C43.8267 72.1 37.3413 74.912 29.64 74.912C21.9387 74.912 15.3773 72.1253 9.956 66.552C4.58533 60.9787 1.9 54.3413 1.9 46.64C1.9 42.4347 2.66 38.508 4.18 34.86C5.7 31.1613 7.72667 28.0707 10.26 25.588C12.7933 23.1053 15.7067 21.1547 19 19.736C22.2933 18.3173 25.688 17.608 29.184 17.608ZM15.352 46.26C15.352 50.7693 16.796 54.4427 19.684 57.28C22.6227 60.0667 25.8907 61.46 29.488 61.46C33.0853 61.46 36.328 60.092 39.216 57.356C42.104 54.62 43.548 50.9467 43.548 46.336C43.548 41.7253 42.0787 38.0267 39.14 35.24C36.252 32.4533 33.0093 31.06 29.412 31.06C25.8147 31.06 22.572 32.4787 19.684 35.316C16.796 38.1027 15.352 41.7507 15.352 46.26Z" fill="white"/>
</svg>
