<svg width="48" height="92" viewBox="0 0 48 92" fill="none" xmlns="http://www.w3.org/2000/svg">
<path d="M8.79094 69.6135C7.47361 67.9921 6.81494 66.5481 6.81494 65.2815C6.81494 63.9641 7.90427 62.2415 10.0829 60.1135C11.3496 58.8975 12.6923 58.2895 14.1109 58.2895C14.9142 58.2895 15.8962 58.6956 17.0569 59.5078C17.946 60.13 18.94 60.9906 20.0389 62.0895C20.5645 62.7276 21.2569 63.3519 22.1161 63.9622C22.4166 64.1757 22.7376 64.3874 23.0789 64.5975C24.3963 65.3575 25.6123 65.7375 26.7269 65.7375C31.4389 65.7375 33.7949 63.8121 33.7949 59.9615C33.7949 58.9391 33.288 58.0727 32.274 57.3623C32.1322 57.263 31.9805 57.1667 31.8189 57.0735C30.5523 56.2628 28.9563 55.6801 27.0309 55.3255C25.1056 54.9708 23.0283 54.4135 20.7989 53.6535C18.5696 52.8428 16.4923 51.9055 14.5669 50.8415C14.2346 50.6578 13.9114 50.4561 13.5971 50.2362C12.091 49.1822 10.7929 47.7119 9.70294 45.8255C8.43627 43.4948 7.80294 40.7081 7.80294 37.4655C7.80294 33.0068 9.44961 29.1308 12.7429 25.8375C16.0869 22.4935 20.6216 20.8215 26.3469 20.8215C29.3869 20.8215 32.1483 21.2268 34.6309 22.0375C36.8625 22.7069 38.4847 23.3961 39.4975 24.1049C39.6345 24.2007 39.7603 24.2969 39.8749 24.3935C39.8749 24.3935 39.9325 24.4372 40.0276 24.5095C40.1106 24.5726 40.2222 24.6574 40.3491 24.7538C40.6396 24.9746 41.0102 25.2563 41.3008 25.4771C41.4276 25.5735 41.5392 25.6583 41.6222 25.7214C41.7174 25.7937 41.7749 25.8375 41.7749 25.8375C43.3456 27.3068 44.1309 28.5481 44.1309 29.5615C44.1309 30.5748 43.5229 31.9681 42.3069 33.7415C40.5843 36.2748 38.8109 37.5415 36.9869 37.5415C35.9229 37.5415 34.6056 37.0348 33.0349 36.0215C32.9949 35.9948 32.9444 35.9576 32.8833 35.9098C32.7123 35.7762 32.4589 35.5601 32.1229 35.2615C31.8696 35.0081 31.6262 34.7845 31.3926 34.5905C31.3033 34.5163 31.2154 34.4465 31.129 34.381C31.0799 34.3438 31.0312 34.3079 30.9829 34.2735C29.9189 33.6148 28.5509 33.2855 26.8789 33.2855C25.2576 33.2855 23.8896 33.6908 22.7749 34.5015C21.7109 35.2615 21.1789 36.3508 21.1789 37.7695C21.1789 39.1375 21.8123 40.2521 23.0789 41.1135C24.3963 41.9748 26.0176 42.5575 27.9429 42.8615C29.8683 43.1655 31.9709 43.6468 34.2509 44.3055C36.5309 44.9135 38.6336 45.6735 40.5589 46.5855C41.0173 46.8026 41.457 47.0585 41.878 47.3531C43.2255 48.2962 44.3818 49.6363 45.3469 51.3735C46.6643 53.6028 47.3229 56.3641 47.3229 59.6575C47.3229 62.9508 46.6643 65.8641 45.3469 68.3975C44.0296 70.8801 42.3069 72.8055 40.1789 74.1735C36.0749 76.8588 31.6923 78.2015 27.0309 78.2015C24.6496 78.2015 22.3949 77.9228 20.2669 77.3655C18.1389 76.7575 16.4163 76.0228 15.0989 75.1615C14.4369 74.7617 13.8241 74.3651 13.2606 73.9715C11.5385 72.7687 10.2766 71.5947 9.47494 70.4495L8.79094 69.6135Z" fill="#2B0057"/>
<path d="M7.828 22.396C4.53467 25.6893 2.888 29.5653 2.888 34.024L7.80291 37.4655C7.80291 33.0068 9.44958 29.1308 12.7429 25.8375L7.828 22.396Z" fill="#2B0057"/>
<path d="M21.432 17.38C15.7067 17.38 11.172 19.052 7.828 22.396L12.7429 25.8375C16.0869 22.4935 20.6216 20.8215 26.3469 20.8215L21.432 17.38Z" fill="#2B0057"/>
<path d="M2.888 34.024C2.888 37.2667 3.52133 40.0534 4.788 42.384L9.70291 45.8255C8.43625 43.4948 7.80291 40.7081 7.80291 37.4655L2.888 34.024Z" fill="#2B0057"/>
<path d="M4.78802 42.384C5.87798 44.2705 7.17605 45.7407 8.68223 46.7947L13.5921 50.2326C12.088 49.1789 10.7917 47.7098 9.70294 45.8255L4.78802 42.384Z" fill="#2B0057"/>
<path d="M29.716 18.596C27.2333 17.7853 24.472 17.38 21.432 17.38L26.3469 20.8215C29.3869 20.8215 32.1483 21.2268 34.6309 22.0375L29.716 18.596Z" fill="#2B0057"/>
<path d="M16.264 34.328C16.264 32.9093 16.796 31.82 17.86 31.06L22.775 34.5015C21.7109 35.2615 21.179 36.3508 21.179 37.7695L16.264 34.328Z" fill="#2B0057"/>
<path d="M17.86 31.06C18.9747 30.2493 20.3427 29.844 21.964 29.844L26.879 33.2855C25.2576 33.2855 23.8896 33.6908 22.775 34.5015L17.86 31.06Z" fill="#2B0057"/>
<path d="M8.68225 46.7947C8.99646 47.0146 9.31973 47.2164 9.65205 47.4L14.567 50.8415C14.2346 50.6578 13.9114 50.456 13.5972 50.2362L8.68225 46.7947Z" fill="#2B0057"/>
<path d="M18.164 37.672C16.8974 36.8107 16.264 35.696 16.264 34.328L21.179 37.7695C21.179 39.0872 21.7666 40.1699 22.9419 41.0175L23.0789 41.1135C23.0324 41.0818 22.9867 41.0498 22.9419 41.0175L18.164 37.672Z" fill="#2B0057"/>
<path d="M5.16802 56.672C2.98936 58.8 1.90002 60.5227 1.90002 61.84L6.81494 65.2815C6.81494 63.9641 7.90427 62.2415 10.0829 60.1135L5.16802 56.672Z" fill="#2B0057"/>
<path d="M21.9641 29.844C23.6361 29.844 25.0041 30.1733 26.0681 30.832L30.983 34.2735C29.919 33.6148 28.551 33.2855 26.879 33.2855L21.9641 29.844Z" fill="#2B0057"/>
<path d="M34.5826 20.6634C33.5698 19.9546 31.9476 19.2655 29.716 18.596L34.6309 22.0375C36.8625 22.7069 38.4847 23.3961 39.4975 24.1049L34.5826 20.6634Z" fill="#2B0057"/>
<path d="M9.19603 54.848C7.77736 54.848 6.4347 55.456 5.16803 56.672L10.0829 60.1135C11.3496 58.8975 12.6923 58.2895 14.1109 58.2895L9.19603 54.848Z" fill="#2B0057"/>
<path d="M9.65204 47.4C11.5774 48.464 13.6547 49.4013 15.884 50.212L20.799 53.6535C18.5696 52.8428 16.4923 51.9055 14.567 50.8415L9.65204 47.4Z" fill="#2B0057"/>
<path d="M23.028 39.42C21.1027 39.116 19.4813 38.5333 18.164 37.672L23.0789 41.1135C24.3962 41.9748 26.0176 42.5575 27.9429 42.8615L23.028 39.42Z" fill="#2B0057"/>
<path d="M1.90002 61.84C1.90002 63.1067 2.55869 64.5507 3.87602 66.172L8.79094 69.6135C7.4736 67.9921 6.81494 66.5481 6.81494 65.2815L1.90002 61.84Z" fill="#2B0057"/>
<path d="M26.0681 30.832C26.1163 30.8665 26.165 30.9023 26.2142 30.9396L31.1291 34.381C31.0799 34.3438 31.0312 34.3079 30.983 34.2735L26.0681 30.832Z" fill="#2B0057"/>
<path d="M26.2141 30.9396C26.3005 31.0051 26.3884 31.0749 26.4777 31.149L31.3926 34.5905C31.3033 34.5163 31.2154 34.4465 31.129 34.381L26.2141 30.9396Z" fill="#2B0057"/>
<path d="M26.4777 31.149C26.7112 31.343 26.9547 31.5667 27.208 31.82L32.1229 35.2615C31.8696 35.0081 31.6261 34.7845 31.3926 34.5905L26.4777 31.149Z" fill="#2B0057"/>
<path d="M34.96 20.952C34.8461 20.8561 34.7211 20.7605 34.5852 20.6652L39.4975 24.1048C39.6344 24.2007 39.7603 24.2969 39.8749 24.3935L34.96 20.952Z" fill="#2B0057"/>
<path d="M12.142 56.0663C10.9813 55.2541 9.99933 54.848 9.19604 54.848L14.111 58.2895C14.9142 58.2895 15.8962 58.6956 17.0569 59.5078L12.142 56.0663Z" fill="#2B0057"/>
<path d="M35.1127 21.0681L34.96 20.952L39.8749 24.3935L40.0276 24.5095L35.1127 21.0681Z" fill="#2B0057"/>
<path d="M27.208 31.82C27.5439 32.1186 27.7974 32.3347 27.9683 32.4683L32.8832 35.9098C32.7123 35.7762 32.4588 35.5601 32.1229 35.2615L27.208 31.82Z" fill="#2B0057"/>
<path d="M35.4342 21.3123L35.1127 21.0681L40.0276 24.5095L40.3491 24.7538L35.4342 21.3123Z" fill="#2B0057"/>
<path d="M28.12 32.58C28.08 32.5533 28.0294 32.5161 27.9683 32.4684L32.8832 35.9098C32.9184 35.9373 32.95 35.9613 32.9782 35.9818L33.0349 36.0215C33.0179 36.0101 32.999 35.9969 32.9782 35.9818L28.12 32.58Z" fill="#2B0057"/>
<path d="M3.87604 66.172L4.56004 67.008L9.47495 70.4495L8.79095 69.6135L3.87604 66.172Z" fill="#2B0057"/>
<path d="M36.3859 22.0357L35.4341 21.3123L40.3491 24.7538L41.3008 25.4771L36.3859 22.0357Z" fill="#2B0057"/>
<path d="M36.7073 22.28L36.3859 22.0357L41.3008 25.4771L41.6222 25.7214L36.7073 22.28Z" fill="#2B0057"/>
<path d="M36.86 22.396L36.7073 22.28L41.6222 25.7214L41.775 25.8375L36.86 22.396Z" fill="#2B0057"/>
<path d="M28.12 32.58C29.6907 33.5933 31.008 34.1 32.072 34.1L36.9869 37.5415C35.9229 37.5415 34.6056 37.0348 33.0349 36.0215L28.12 32.58Z" fill="#2B0057"/>
<path d="M15.1241 58.648C14.0276 57.5516 13.0356 56.6925 12.148 56.0706L17.0569 59.5078C17.946 60.13 18.9401 60.9906 20.039 62.0895L15.1241 58.648Z" fill="#2B0057"/>
<path d="M29.336 40.864C27.056 40.2053 24.9533 39.724 23.028 39.42L27.9429 42.8615C29.8683 43.1655 31.9709 43.6468 34.2509 44.3055L29.336 40.864Z" fill="#2B0057"/>
<path d="M8.34566 70.53C6.62356 69.3273 5.36167 68.1532 4.56 67.008L9.47491 70.4495C10.2683 71.5828 11.5123 72.7443 13.207 73.934L13.2606 73.9715C13.2427 73.959 13.2248 73.9465 13.207 73.934L8.34566 70.53Z" fill="#2B0057"/>
<path d="M15.884 50.212C18.1134 50.972 20.1907 51.5293 22.116 51.884L27.0309 55.3255C25.1056 54.9708 23.0283 54.4135 20.7989 53.6535L15.884 50.212Z" fill="#2B0057"/>
<path d="M39.216 26.12C39.216 25.1067 38.4307 23.8653 36.86 22.396L41.775 25.8375C43.3456 27.3068 44.131 28.5481 44.131 29.5615L39.216 26.12Z" fill="#2B0057"/>
<path d="M32.072 34.1C33.896 34.1 35.6694 32.8334 37.392 30.3L42.3069 33.7415C40.5843 36.2748 38.8109 37.5415 36.9869 37.5415L32.072 34.1Z" fill="#2B0057"/>
<path d="M17.2012 60.5207C16.3419 59.9104 15.6496 59.2862 15.124 58.648L20.0389 62.0895C20.5645 62.7276 21.2569 63.3518 22.1161 63.9622L17.2012 60.5207Z" fill="#2B0057"/>
<path d="M37.392 30.3C38.608 28.5267 39.216 27.1333 39.216 26.12L44.1309 29.5615C44.1309 30.5748 43.5229 31.9681 42.3069 33.7415L37.392 30.3Z" fill="#2B0057"/>
<path d="M8.3457 70.5301C8.90921 70.9236 9.52199 71.3203 10.184 71.72L15.099 75.1615C14.4369 74.7617 13.8241 74.3651 13.2606 73.9715L8.3457 70.5301Z" fill="#2B0057"/>
<path d="M17.3743 60.642C17.3159 60.6016 17.2582 60.5612 17.2012 60.5207L17.3743 60.642C17.6242 60.8144 17.8874 60.9858 18.164 61.156L23.0789 64.5975C22.7376 64.3874 22.4166 64.1756 22.1161 63.9622L17.3743 60.642Z" fill="#2B0057"/>
<path d="M22.116 51.884C24.0414 52.2387 25.6374 52.8213 26.904 53.632L31.8189 57.0735C30.5523 56.2628 28.9563 55.6801 27.0309 55.3255L22.116 51.884Z" fill="#2B0057"/>
<path d="M35.644 43.144C33.7187 42.232 31.616 41.472 29.336 40.864L34.2509 44.3055C36.5309 44.9135 38.6336 45.6735 40.5589 46.5855L35.644 43.144Z" fill="#2B0057"/>
<path d="M21.812 62.296C20.6973 62.296 19.4813 61.916 18.164 61.156L23.0789 64.5975C24.3962 65.3575 25.6122 65.7375 26.7269 65.7375L21.812 62.296Z" fill="#2B0057"/>
<path d="M10.184 71.72C11.5014 72.5813 13.224 73.316 15.352 73.924L20.2669 77.3655C18.1389 76.7575 16.4163 76.0228 15.0989 75.1615L10.184 71.72Z" fill="#2B0057"/>
<path d="M26.9041 53.632C27.0656 53.7252 27.2173 53.8215 27.3591 53.9208L32.2716 57.3606C32.1305 57.2619 31.9796 57.1662 31.819 57.0735L26.9041 53.632Z" fill="#2B0057"/>
<path d="M36.9631 43.9117C36.5421 43.617 36.1024 43.3611 35.644 43.144L40.559 46.5855C41.0173 46.8026 41.457 47.0585 41.878 47.3531L36.9631 43.9117Z" fill="#2B0057"/>
<path d="M27.3591 53.9208C28.373 54.6312 28.88 55.4976 28.88 56.52L33.7949 59.9615C33.7949 58.9391 33.288 58.0727 32.274 57.3623L27.3591 53.9208Z" fill="#2B0057"/>
<path d="M28.88 56.52C28.88 60.3707 26.524 62.296 21.812 62.296L26.7269 65.7375C31.4389 65.7375 33.7949 63.8121 33.7949 59.9615L28.88 56.52Z" fill="#2B0057"/>
<path d="M15.3521 73.924C17.4801 74.4813 19.7347 74.76 22.1161 74.76L27.031 78.2015C24.6496 78.2015 22.395 77.9228 20.267 77.3655L15.3521 73.924Z" fill="#2B0057"/>
<path d="M40.4321 47.932C39.4679 46.1964 38.3128 44.8572 36.967 43.9143L41.878 47.3531C43.2255 48.2961 44.3819 49.6363 45.347 51.3735L40.4321 47.932Z" fill="#2B0057"/>
<path d="M42.408 56.216C42.408 52.9227 41.7493 50.1613 40.432 47.932L45.3469 51.3735C46.6643 53.6028 47.3229 56.3641 47.3229 59.6575L42.408 56.216Z" fill="#2B0057"/>
<path d="M22.116 74.76C26.7774 74.76 31.16 73.4173 35.264 70.732L40.1789 74.1735C36.0749 76.8588 31.6923 78.2015 27.0309 78.2015L22.116 74.76Z" fill="#2B0057"/>
<path d="M40.432 64.956C41.7493 62.4227 42.408 59.5093 42.408 56.216L47.3229 59.6575C47.3229 62.9508 46.6643 65.8641 45.3469 68.3975L40.432 64.956Z" fill="#2B0057"/>
<path d="M35.264 70.732C37.392 69.364 39.1147 67.4387 40.432 64.956L45.3469 68.3975C44.0296 70.8801 42.307 72.8055 40.179 74.1735L35.264 70.732Z" fill="#2B0057"/>
<path d="M3.876 66.172C2.55867 64.5507 1.9 63.1067 1.9 61.84C1.9 60.5227 2.98933 58.8 5.168 56.672C6.43467 55.456 7.77733 54.848 9.196 54.848C10.6147 54.848 12.5907 56.1147 15.124 58.648C15.8333 59.5093 16.8467 60.3453 18.164 61.156C19.4813 61.916 20.6973 62.296 21.812 62.296C26.524 62.296 28.88 60.3707 28.88 56.52C28.88 55.3547 28.2213 54.392 26.904 53.632C25.6373 52.8213 24.0413 52.2387 22.116 51.884C20.1907 51.5293 18.1133 50.972 15.884 50.212C13.6547 49.4013 11.5773 48.464 9.652 47.4C7.72667 46.336 6.10533 44.664 4.788 42.384C3.52133 40.0533 2.888 37.2667 2.888 34.024C2.888 29.5653 4.53467 25.6893 7.828 22.396C11.172 19.052 15.7067 17.38 21.432 17.38C24.472 17.38 27.2333 17.7853 29.716 18.596C32.2493 19.356 33.9973 20.1413 34.96 20.952L36.86 22.396C38.4307 23.8653 39.216 25.1067 39.216 26.12C39.216 27.1333 38.608 28.5267 37.392 30.3C35.6693 32.8333 33.896 34.1 32.072 34.1C31.008 34.1 29.6907 33.5933 28.12 32.58C27.968 32.4787 27.664 32.2253 27.208 31.82C26.8027 31.4147 26.4227 31.0853 26.068 30.832C25.004 30.1733 23.636 29.844 21.964 29.844C20.3427 29.844 18.9747 30.2493 17.86 31.06C16.796 31.82 16.264 32.9093 16.264 34.328C16.264 35.696 16.8973 36.8107 18.164 37.672C19.4813 38.5333 21.1027 39.116 23.028 39.42C24.9533 39.724 27.056 40.2053 29.336 40.864C31.616 41.472 33.7187 42.232 35.644 43.144C37.5693 44.056 39.1653 45.652 40.432 47.932C41.7493 50.1613 42.408 52.9227 42.408 56.216C42.408 59.5093 41.7493 62.4227 40.432 64.956C39.1147 67.4387 37.392 69.364 35.264 70.732C31.16 73.4173 26.7773 74.76 22.116 74.76C19.7347 74.76 17.48 74.4813 15.352 73.924C13.224 73.316 11.5013 72.5813 10.184 71.72C7.49867 70.0987 5.624 68.528 4.56 67.008L3.876 66.172Z" fill="white"/>
</svg>
