<?xml version="1.0" standalone="no"?>
<!DOCTYPE svg PUBLIC "-//W3C//DTD SVG 20010904//EN"
 "http://www.w3.org/TR/2001/REC-SVG-20010904/DTD/svg10.dtd">
<svg version="1.0" xmlns="http://www.w3.org/2000/svg"
 width="205.000000pt" height="205.000000pt" viewBox="0 0 205.000000 205.000000"
 preserveAspectRatio="xMidYMid meet">
<metadata>
Created by potrace 1.14, written by Peter Selinger 2001-2017
</metadata>
<g transform="translate(0.000000,205.000000) scale(0.100000,-0.100000)"
fill="#000000" stroke="none">
<path d="M845 2035 c-428 -81 -755 -413 -830 -841 -22 -124 -14 -300 18 -425
47 -181 145 -349 277 -477 47 -46 127 -112 135 -112 5 0 16 -6 24 -14 51 -44
214 -114 331 -141 96 -23 300 -28 395 -10 136 26 164 35 278 91 156 77 265
167 385 319 51 65 123 216 152 321 29 103 35 151 35 284 0 138 -9 198 -41 298
-99 304 -316 536 -605 650 -65 26 -103 37 -199 58 -56 12 -287 11 -355 -1z"/>
</g>
</svg>
