<?xml version="1.0" standalone="no"?>
<!DOCTYPE svg PUBLIC "-//W3C//DTD SVG 20010904//EN"
 "http://www.w3.org/TR/2001/REC-SVG-20010904/DTD/svg10.dtd">
<svg version="1.0" xmlns="http://www.w3.org/2000/svg"
 width="99.000000pt" height="99.000000pt" viewBox="0 0 99.000000 99.000000"
 preserveAspectRatio="xMidYMid meet">
<metadata>
Created by potrace 1.14, written by Peter Selinger 2001-2017
</metadata>
<g transform="translate(0.000000,99.000000) scale(0.100000,-0.100000)"
fill="#000000" stroke="none">
<path d="M321 962 c-72 -36 -189 -152 -224 -222 -26 -54 -27 -60 -27 -236 l0
-181 31 -61 c42 -85 146 -190 228 -230 l64 -32 174 0 c165 0 177 1 227 25 30
14 70 41 90 59 l36 35 0 235 0 236 -26 17 c-22 14 -52 17 -183 17 -171 1 -216
-9 -232 -51 -12 -32 -12 -115 1 -148 13 -33 62 -54 123 -51 26 2 47 0 48 -3 1
-3 2 -25 4 -48 2 -41 1 -43 -32 -49 -97 -18 -187 16 -242 92 -38 53 -50 93
-46 157 4 68 23 105 77 151 77 66 172 72 270 17 80 -45 111 -42 167 17 91 94
87 162 -11 224 -90 57 -96 58 -286 58 -172 -1 -179 -1 -231 -28z"/>
</g>
</svg>
