<svg width="35" height="40" viewBox="0 0 35 40" fill="none" xmlns="http://www.w3.org/2000/svg">
<path d="M4.375 2.5H30.625C33.0391 2.5 35 4.46094 35 6.875V33.125C35 35.5391 33.0391 37.5 30.625 37.5H4.375C1.96094 37.5 0 35.5391 0 33.125V6.875C0 4.46094 1.96094 2.5 4.375 2.5ZM21.1641 21.4219C21.6797 17.2891 23.1875 15.9922 25.1797 15.9922C27.1562 15.9922 28.6875 17.5703 28.6875 19.875C28.6875 22.1797 27.1484 23.7578 25.1797 23.7578C23 23.7578 21.5625 22.0781 21.1641 21.4219ZM19.0781 18.1562C18.4375 16.9453 17.9609 15.3203 17.5781 13.8125H12.6641V19.9141C12.6641 22.1328 11.6563 23.7734 9.67969 23.7734C7.70313 23.7734 6.57031 22.1406 6.57031 19.9219L6.59375 13.8203H3.76563V19.9219C3.76563 21.7031 4.34375 23.3203 5.39844 24.4688C6.48437 25.6563 7.96094 26.2812 9.67969 26.2812C13.0938 26.2812 15.4766 23.6641 15.4766 19.9141V15.8125C15.8359 17.1641 16.6797 19.7578 18.3047 22.0391L16.7969 30.6719H19.6719L20.6719 24.5469C21 24.8203 21.3516 25.0625 21.7188 25.2813C22.6797 25.8906 23.7812 26.2344 24.9141 26.2656H25.1797C28.7031 26.2656 31.5 23.5391 31.5 19.8672C31.5 16.1953 28.6953 13.4453 25.1797 13.4453C21.6328 13.4453 19.6406 15.7656 19.0781 18.1406V18.1562Z" fill="black"/>
</svg>
