<svg width="39" height="39" viewBox="0 0 39 39" fill="none" xmlns="http://www.w3.org/2000/svg">
<path d="M28.3887 9.86376C26.6941 9.89357 25.0614 10.506 23.7652 11.598C22.469 12.69 21.5883 14.195 21.2712 15.86C19.6799 13.3867 18.4334 10.7078 17.5663 7.89751H13.8938V17.6475C13.8938 18.5698 13.5274 19.4543 12.8752 20.1065C12.2231 20.7586 11.3385 21.125 10.4162 21.125C9.49396 21.125 8.60944 20.7586 7.95729 20.1065C7.30513 19.4543 6.93875 18.5698 6.93875 17.6475V7.89751L3.25 7.97876V17.7288C3.26077 19.6251 4.02441 21.4394 5.37291 22.7727C6.72142 24.1059 8.54433 24.8489 10.4406 24.8381C12.3369 24.8274 14.1513 24.0637 15.4845 22.7152C16.8178 21.3667 17.5608 19.5438 17.55 17.6475V16.0225C18.3297 17.5517 19.2261 19.0186 20.2312 20.41L17.9887 31.1513H21.7588L23.3838 23.335C24.8898 24.3028 26.6475 24.8058 28.4375 24.7813C30.4071 24.7813 32.296 23.9988 33.6887 22.6062C35.0813 21.2135 35.8638 19.3246 35.8638 17.355C35.8638 15.3854 35.0813 13.4965 33.6887 12.1039C32.296 10.7112 30.4071 9.92876 28.4375 9.92876L28.3887 9.86376ZM28.3887 20.9625C26.8618 20.9132 25.3984 20.3393 24.245 19.3375L24.6187 17.8588V17.7775C24.8787 16.1525 25.6912 13.5525 28.4375 13.5525C28.919 13.5482 29.3966 13.6391 29.8429 13.8199C30.2892 14.0007 30.6954 14.2679 31.0381 14.6061C31.3809 14.9443 31.6535 15.3469 31.8402 15.7908C32.0269 16.2346 32.1241 16.711 32.1263 17.1925C32.0914 18.1675 31.694 19.0943 31.0117 19.7916C30.3294 20.4889 29.4115 20.9065 28.4375 20.9625H28.3887Z" fill="white"/>
</svg>
